SplineFontDB: 3.2
FontName: KoreeneSans-LightItalic
FullName: Koreene Sans Light Italic
FamilyName: Koreene Sans Light
Weight: Light
Copyright: (C) Copyright HanYang I&C Co.,Ltd. All rights reserved.
Version: 2.52
ItalicAngle: -9.4
UnderlinePosition: -244
UnderlineWidth: 90
Ascent: 1638
Descent: 410
InvalidEm: 0
sfntRevision: 0x00020147
LayerCount: 2
Layer: 0 1 "Back" 1
Layer: 1 1 "Fore" 0
XUID: [1021 531 -1996577725 10343650]
StyleMap: 0x0001
FSType: 0
OS2Version: 4
OS2_WeightWidthSlopeOnly: 0
OS2_UseTypoMetrics: 1
CreationTime: 1068260456
ModificationTime: 1706985600
PfmFamily: 81
TTFWeight: 300
TTFWidth: 5
LineGap: 512
VLineGap: 0
Panose: 0 0 0 0 0 0 0 0 0 0
OS2TypoAscent: 1940
OS2TypoAOffset: 0
OS2TypoDescent: -470
OS2TypoDOffset: 0
OS2TypoLinegap: 512
OS2WinAscent: 2196
OS2WinAOffset: 0
OS2WinDescent: 726
OS2WinDOffset: 0
HheadAscent: 1940
HheadAOffset: 0
HheadDescent: -470
HheadDOffset: 0
OS2SubXSize: 410
OS2SubYSize: 410
OS2SubXOff: 0
OS2SubYOff: 574
OS2SupXSize: 410
OS2SupYSize: 410
OS2SupXOff: 0
OS2SupYOff: 1926
OS2StrikeYSize: 204
OS2StrikeYPos: 1024
OS2CapHeight: 1470
OS2XHeight: 1050
OS2Vendor: 'HY  '
OS2CodePages: 2000019f.00000000
OS2UnicodeRanges: e10002ff.4000001b.00000000.00000000
Lookup: 1 0 0 "'aalt' Access All Alternates lookup 0" { "'aalt' Access All Alternates lookup 0 subtable"  } ['aalt' ('DFLT' <'dflt' > 'cyrl' <'dflt' > 'grek' <'dflt' > 'hang' <'dflt' > 'jamo' <'dflt' > 'latn' <'dflt' > ) ]
Lookup: 3 0 0 "'aalt' Access All Alternates lookup 1" { "'aalt' Access All Alternates lookup 1 subtable"  } ['aalt' ('DFLT' <'dflt' > 'cyrl' <'dflt' > 'grek' <'dflt' > 'hang' <'dflt' > 'jamo' <'dflt' > 'latn' <'dflt' > ) ]
Lookup: 1 0 0 "'locl' Localized Forms in Latin lookup 2" { "'locl' Localized Forms in Latin lookup 2 subtable"  } ['locl' ('latn' <'MOL ' > ) ]
Lookup: 1 0 0 "'locl' Localized Forms in Latin lookup 3" { "'locl' Localized Forms in Latin lookup 3 subtable"  } ['locl' ('latn' <'ROM ' > ) ]

StartChar: exclam
Encoding: 33 33 4
Width: 582
GlyphClass: 2
Flags: W
LayerCount: 2
Fore
SplineSet
86 -18 m 1,0,-1
 120 188 l 1,1,-1
 338 188 l 1,2,-1
 304 -18 l 1,3,-1
 86 -18 l 1,0,-1
322 412 m 1,4,-1
 212 412 l 1,5,-1
 372 1472 l 1,6,-1
 514 1472 l 1,7,-1
 322 412 l 1,4,-1
EndSplineSet
EndChar

StartChar: quotedbl
Encoding: 34 34 5
Width: 922
GlyphClass: 2
Flags: W
LayerCount: 2
Fore
SplineSet
596 1088 m 1,0,-1
 854 1656 l 1,1,-1
 1034 1656 l 1,2,-1
 698 1088 l 1,3,-1
 596 1088 l 1,0,-1
212 1088 m 1,4,-1
 468 1656 l 1,5,-1
 650 1656 l 1,6,-1
 312 1088 l 1,7,-1
 212 1088 l 1,4,-1
EndSplineSet
EndChar

StartChar: numbersign
Encoding: 35 35 6
Width: 1364
GlyphClass: 2
Flags: W
LayerCount: 2
Fore
SplineSet
62 414 m 1,0,-1
 78 510 l 1,1,-1
 334 510 l 1,2,-1
 458 920 l 1,3,-1
 210 920 l 1,4,-1
 226 1014 l 1,5,-1
 486 1014 l 1,6,-1
 606 1420 l 1,7,-1
 716 1420 l 1,8,-1
 594 1014 l 1,9,-1
 1002 1014 l 1,10,-1
 1122 1420 l 1,11,-1
 1232 1420 l 1,12,-1
 1110 1014 l 1,13,-1
 1352 1014 l 1,14,-1
 1338 920 l 1,15,-1
 1082 920 l 1,16,-1
 962 510 l 1,17,-1
 1206 510 l 1,18,-1
 1190 414 l 1,19,-1
 932 414 l 1,20,-1
 812 6 l 1,21,-1
 698 6 l 1,22,-1
 820 414 l 1,23,-1
 416 414 l 1,24,-1
 296 6 l 1,25,-1
 182 6 l 1,26,-1
 304 414 l 1,27,-1
 62 414 l 1,0,-1
446 510 m 1,28,-1
 850 510 l 1,29,-1
 972 920 l 1,30,-1
 568 920 l 1,31,-1
 446 510 l 1,28,-1
EndSplineSet
EndChar

StartChar: dollar
Encoding: 36 36 7
Width: 1136
GlyphClass: 2
Flags: W
LayerCount: 2
Fore
SplineSet
74 256 m 1,0,-1
 176 306 l 1,1,2
 218 216 218 216 309 161 c 128,-1,3
 400 106 400 106 496 106 c 0,4,5
 632 106 632 106 729 170 c 128,-1,6
 826 234 826 234 850 370 c 0,7,8
 862 440 862 440 843 494 c 128,-1,9
 824 548 824 548 775 587 c 128,-1,10
 726 626 726 626 671 654 c 128,-1,11
 616 682 616 682 536 718 c 0,12,13
 504 732 504 732 488 738 c 0,14,15
 352 800 352 800 289 885 c 128,-1,16
 226 970 226 970 248 1112 c 0,17,18
 270 1246 270 1246 384 1349 c 128,-1,19
 498 1452 498 1452 662 1464 c 1,20,-1
 690 1630 l 1,21,-1
 806 1630 l 1,22,-1
 778 1462 l 1,23,24
 882 1458 882 1458 965 1392 c 128,-1,25
 1048 1326 1048 1326 1072 1246 c 1,26,-1
 972 1200 l 1,27,28
 886 1364 886 1364 702 1364 c 0,29,30
 568 1364 568 1364 479 1292 c 128,-1,31
 390 1220 390 1220 372 1110 c 0,32,33
 362 1046 362 1046 377 997 c 128,-1,34
 392 948 392 948 439 910 c 128,-1,35
 486 872 486 872 531 848 c 128,-1,36
 576 824 576 824 658 788 c 0,37,38
 722 760 722 760 762 740 c 128,-1,39
 802 720 802 720 853 683 c 128,-1,40
 904 646 904 646 931 607 c 128,-1,41
 958 568 958 568 973 510 c 128,-1,42
 988 452 988 452 976 382 c 0,43,44
 948 208 948 208 824 112 c 128,-1,45
 700 16 700 16 536 2 c 1,46,-1
 510 -154 l 1,47,-1
 394 -154 l 1,48,-1
 420 4 l 1,49,50
 316 10 316 10 216 77 c 128,-1,51
 116 144 116 144 74 256 c 1,0,-1
EndSplineSet
EndChar

StartChar: percent
Encoding: 37 37 8
Width: 1888
GlyphClass: 2
Flags: W
LayerCount: 2
Fore
SplineSet
992 316 m 0,0,1
 1018 470 1018 470 1136 567 c 128,-1,2
 1254 664 1254 664 1408 664 c 256,3,4
 1562 664 1562 664 1650 567 c 128,-1,5
 1738 470 1738 470 1712 316 c 0,6,7
 1686 160 1686 160 1566 62 c 128,-1,8
 1446 -36 1446 -36 1292 -36 c 256,9,10
 1140 -36 1140 -36 1053 61 c 128,-1,11
 966 158 966 158 992 316 c 0,0,1
1108 316 m 0,12,13
 1090 202 1090 202 1150 133 c 128,-1,14
 1210 64 1210 64 1310 64 c 256,15,16
 1410 64 1410 64 1494 134 c 128,-1,17
 1578 204 1578 204 1596 316 c 256,18,19
 1614 428 1614 428 1555 496 c 128,-1,20
 1496 564 1496 564 1392 564 c 0,21,22
 1292 564 1292 564 1209 496 c 128,-1,23
 1126 428 1126 428 1108 316 c 0,12,13
234 1156 m 0,24,25
 260 1310 260 1310 379 1408 c 128,-1,26
 498 1506 498 1506 652 1506 c 256,27,28
 806 1506 806 1506 893 1409 c 128,-1,29
 980 1312 980 1312 954 1156 c 256,30,31
 928 1000 928 1000 809 904 c 128,-1,32
 690 808 690 808 536 808 c 256,33,34
 384 808 384 808 296 904 c 128,-1,35
 208 1000 208 1000 234 1156 c 0,24,25
350 1156 m 256,36,37
 332 1044 332 1044 393 975 c 128,-1,38
 454 906 454 906 554 906 c 256,39,40
 654 906 654 906 737 975 c 128,-1,41
 820 1044 820 1044 838 1156 c 256,42,43
 856 1268 856 1268 797 1338 c 128,-1,44
 738 1408 738 1408 636 1408 c 0,45,46
 536 1408 536 1408 452 1338 c 128,-1,47
 368 1268 368 1268 350 1156 c 256,36,37
266 -4 m 1,48,-1
 1550 1474 l 1,49,-1
 1678 1474 l 1,50,-1
 392 -4 l 1,51,-1
 266 -4 l 1,48,-1
EndSplineSet
EndChar

StartChar: ampersand
Encoding: 38 38 9
Width: 1250
GlyphClass: 2
Flags: W
LayerCount: 2
Fore
SplineSet
212 368 m 0,0,1
 190 234 190 234 265 151 c 128,-1,2
 340 68 340 68 476 68 c 0,3,4
 674 68 674 68 856 266 c 1,5,-1
 562 780 l 1,6,7
 426 700 426 700 330 603 c 128,-1,8
 234 506 234 506 212 368 c 0,0,1
88 366 m 0,9,10
 136 660 136 660 514 872 c 1,11,12
 510 880 510 880 495 907 c 128,-1,13
 480 934 480 934 476 942 c 128,-1,14
 472 950 472 950 460 973 c 128,-1,15
 448 996 448 996 445 1006 c 128,-1,16
 442 1016 442 1016 433 1036 c 128,-1,17
 424 1056 424 1056 422 1067 c 128,-1,18
 420 1078 420 1078 416 1096 c 128,-1,19
 412 1114 412 1114 412 1128 c 128,-1,20
 412 1142 412 1142 412 1159 c 128,-1,21
 412 1176 412 1176 416 1194 c 0,22,23
 436 1316 436 1316 542 1403 c 128,-1,24
 648 1490 648 1490 810 1490 c 0,25,26
 1060 1490 1060 1490 1136 1250 c 1,27,-1
 1034 1206 l 1,28,29
 1010 1276 1010 1276 947 1331 c 128,-1,30
 884 1386 884 1386 800 1386 c 0,31,32
 696 1386 696 1386 625 1329 c 128,-1,33
 554 1272 554 1272 540 1192 c 256,34,35
 526 1112 526 1112 611 944 c 128,-1,36
 696 776 696 776 888 448 c 0,37,38
 920 396 920 396 936 368 c 1,39,40
 1028 504 1028 504 1080 676 c 1,41,-1
 1190 656 l 1,42,43
 1126 442 1126 442 1000 268 c 1,44,-1
 1156 0 l 1,45,-1
 1012 0 l 1,46,-1
 910 170 l 1,47,48
 712 -36 712 -36 454 -36 c 0,49,50
 252 -36 252 -36 156 79 c 128,-1,51
 60 194 60 194 88 366 c 0,9,10
EndSplineSet
EndChar

StartChar: quotesingle
Encoding: 39 39 10
Width: 550
GlyphClass: 2
Flags: W
LayerCount: 2
Fore
SplineSet
222 1088 m 1,0,-1
 480 1656 l 1,1,-1
 662 1656 l 1,2,-1
 322 1088 l 1,3,-1
 222 1088 l 1,0,-1
EndSplineSet
EndChar

StartChar: parenleft
Encoding: 40 40 11
Width: 856
GlyphClass: 2
Flags: W
LayerCount: 2
Fore
SplineSet
316 702 m 0,0,1
 412 1278 412 1278 820 1710 c 1,2,-1
 898 1660 l 1,3,4
 812 1556 812 1556 765 1491 c 128,-1,5
 718 1426 718 1426 642 1301 c 128,-1,6
 566 1176 566 1176 516 1028 c 128,-1,7
 466 880 466 880 436 702 c 0,8,9
 406 522 406 522 408 371 c 128,-1,10
 410 220 410 220 445 95 c 128,-1,11
 480 -30 480 -30 505 -91 c 128,-1,12
 530 -152 530 -152 580 -254 c 1,13,-1
 486 -304 l 1,14,15
 222 136 222 136 316 702 c 0,0,1
EndSplineSet
Substitution2: "'sups' Superscript lookup 5 subtable" uni207D
Substitution2: "'aalt' Access All Alternates lookup 0 subtable" uni207D
EndChar

StartChar: parenright
Encoding: 41 41 12
Width: 856
GlyphClass: 2
Flags: W
LayerCount: 2
Fore
SplineSet
4 -254 m 1,0,1
 88 -154 88 -154 146 -72 c 128,-1,2
 204 10 204 10 272 129 c 128,-1,3
 340 248 340 248 388 392 c 128,-1,4
 436 536 436 536 464 702 c 0,5,6
 492 876 492 876 492 1022 c 128,-1,7
 492 1168 492 1168 461 1289 c 128,-1,8
 430 1410 430 1410 400 1484 c 128,-1,9
 370 1558 370 1558 320 1660 c 1,10,-1
 416 1710 l 1,11,12
 682 1282 682 1282 586 702 c 0,13,14
 492 138 492 138 82 -304 c 1,15,-1
 4 -254 l 1,0,1
EndSplineSet
Substitution2: "'sups' Superscript lookup 5 subtable" uni207E
Substitution2: "'aalt' Access All Alternates lookup 0 subtable" uni207E
EndChar

StartChar: asterisk
Encoding: 42 42 13
Width: 1088
GlyphClass: 2
Flags: W
LayerCount: 2
Fore
SplineSet
100 844 m 1,0,-1
 160 950 l 1,1,-1
 536 794 l 1,2,-1
 588 1196 l 1,3,-1
 710 1196 l 1,4,-1
 630 794 l 1,5,-1
 1054 950 l 1,6,-1
 1080 844 l 1,7,-1
 644 696 l 1,8,-1
 894 346 l 1,9,-1
 790 274 l 1,10,-1
 556 642 l 1,11,-1
 202 276 l 1,12,-1
 122 346 l 1,13,-1
 488 696 l 1,14,-1
 100 844 l 1,0,-1
EndSplineSet
EndChar

StartChar: plus
Encoding: 43 43 14
Width: 1088
GlyphClass: 2
Flags: W
LayerCount: 2
Fore
SplineSet
74 672 m 1,0,-1
 92 780 l 1,1,-1
 520 780 l 1,2,-1
 592 1208 l 1,3,-1
 710 1208 l 1,4,-1
 638 780 l 1,5,-1
 1066 780 l 1,6,-1
 1048 672 l 1,7,-1
 620 672 l 1,8,-1
 548 228 l 1,9,-1
 430 228 l 1,10,-1
 502 672 l 1,11,-1
 74 672 l 1,0,-1
EndSplineSet
Substitution2: "'sups' Superscript lookup 5 subtable" uni207A
Substitution2: "'aalt' Access All Alternates lookup 0 subtable" uni207A
EndChar

StartChar: comma
Encoding: 44 44 15
Width: 550
GlyphClass: 2
Flags: W
LayerCount: 2
Fore
SplineSet
-102 -354 m 1,0,-1
 156 212 l 1,1,-1
 336 212 l 1,2,-1
 -2 -354 l 1,3,-1
 -102 -354 l 1,0,-1
EndSplineSet
EndChar

StartChar: hyphen
Encoding: 45 45 16
Width: 758
GlyphClass: 2
Flags: W
LayerCount: 2
Fore
SplineSet
82 672 m 1,0,-1
 100 780 l 1,1,-1
 728 780 l 1,2,-1
 710 672 l 1,3,-1
 82 672 l 1,0,-1
EndSplineSet
EndChar

StartChar: period
Encoding: 46 46 17
Width: 550
GlyphClass: 2
Flags: W
LayerCount: 2
Fore
SplineSet
70 0 m 1,0,-1
 104 212 l 1,1,-1
 324 212 l 1,2,-1
 288 0 l 1,3,-1
 70 0 l 1,0,-1
EndSplineSet
EndChar

StartChar: slash
Encoding: 47 47 18
Width: 648
GlyphClass: 2
Flags: W
LayerCount: 2
Fore
SplineSet
-134 -120 m 1,0,-1
 708 1572 l 1,1,-1
 836 1572 l 1,2,-1
 -6 -120 l 1,3,-1
 -134 -120 l 1,0,-1
EndSplineSet
EndChar

StartChar: zero
Encoding: 48 48 19
Width: 1100
GlyphClass: 2
Flags: W
LayerCount: 2
Fore
SplineSet
262 734 m 0,0,1
 212 426 212 426 261 247 c 128,-1,2
 310 68 310 68 472 68 c 0,3,4
 558 68 558 68 629 122 c 128,-1,5
 700 176 700 176 750 271 c 128,-1,6
 800 366 800 366 835 481 c 128,-1,7
 870 596 870 596 894 734 c 0,8,9
 946 1044 946 1044 897 1223 c 128,-1,10
 848 1402 848 1402 688 1402 c 0,11,12
 534 1402 534 1402 424 1226 c 128,-1,13
 314 1050 314 1050 262 734 c 0,0,1
134 734 m 0,14,15
 200 1130 200 1130 356 1318 c 128,-1,16
 512 1506 512 1506 706 1506 c 0,17,18
 914 1506 914 1506 999 1309 c 128,-1,19
 1084 1112 1084 1112 1020 734 c 0,20,21
 992 570 992 570 945 434 c 128,-1,22
 898 298 898 298 829 191 c 128,-1,23
 760 84 760 84 664 24 c 128,-1,24
 568 -36 568 -36 454 -36 c 0,25,26
 256 -36 256 -36 164 159 c 128,-1,27
 72 354 72 354 134 734 c 0,14,15
EndSplineSet
EndChar

StartChar: one
Encoding: 49 49 20
Width: 1100
GlyphClass: 2
Flags: W
LayerCount: 2
Fore
SplineSet
304 1156 m 1,0,-1
 320 1254 l 1,1,-1
 384 1254 l 2,2,3
 542 1254 542 1254 605 1299 c 0,4,5
 666 1342 666 1342 684 1438 c 2,6,-1
 690 1470 l 5,7,-1
 794 1470 l 5,8,-1
 548 0 l 1,9,-1
 422 0 l 1,10,-1
 616 1156 l 1,11,-1
 304 1156 l 1,0,-1
EndSplineSet
Substitution2: "'subs' Subscript lookup 6 subtable" uni2081
Substitution2: "'sups' Superscript lookup 5 subtable" onesuperior
Substitution2: "'sinf' Scientific Inferiors lookup 4 subtable" uni2081
AlternateSubs2: "'aalt' Access All Alternates lookup 1 subtable" uni2081 onesuperior
EndChar

StartChar: two
Encoding: 50 50 21
Width: 1100
GlyphClass: 2
Flags: W
LayerCount: 2
Fore
SplineSet
206 1150 m 1,0,1
 360 1506 360 1506 702 1506 c 0,2,3
 882 1506 882 1506 981 1400 c 128,-1,4
 1080 1294 1080 1294 1048 1104 c 0,5,6
 1012 884 1012 884 750 668 c 0,7,8
 474 440 474 440 358 328 c 128,-1,9
 242 216 242 216 188 104 c 1,10,-1
 882 104 l 1,11,-1
 866 0 l 1,12,-1
 20 0 l 1,13,14
 30 58 30 58 55 115 c 128,-1,15
 80 172 80 172 137 240 c 128,-1,16
 194 308 194 308 232 352 c 128,-1,17
 270 396 270 396 365 479 c 128,-1,18
 460 562 460 562 500 595 c 128,-1,19
 540 628 540 628 658 726 c 0,20,21
 890 920 890 920 922 1106 c 0,22,23
 946 1248 946 1248 880 1325 c 128,-1,24
 814 1402 814 1402 680 1402 c 0,25,26
 552 1402 552 1402 459 1326 c 128,-1,27
 366 1250 366 1250 310 1120 c 1,28,-1
 206 1150 l 1,0,1
EndSplineSet
Substitution2: "'subs' Subscript lookup 6 subtable" uni2082
Substitution2: "'sups' Superscript lookup 5 subtable" twosuperior
Substitution2: "'sinf' Scientific Inferiors lookup 4 subtable" uni2082
AlternateSubs2: "'aalt' Access All Alternates lookup 1 subtable" uni2082 twosuperior
EndChar

StartChar: three
Encoding: 51 51 22
Width: 1100
GlyphClass: 2
Flags: W
LayerCount: 2
Fore
SplineSet
28 238 m 1,0,-1
 140 282 l 1,1,2
 218 68 218 68 442 68 c 0,3,4
 588 68 588 68 700 154 c 128,-1,5
 812 240 812 240 838 404 c 0,6,7
 864 558 864 558 772 642 c 128,-1,8
 680 726 680 726 530 726 c 0,9,10
 464 726 464 726 418 722 c 1,11,-1
 436 828 l 1,12,13
 474 824 474 824 538 824 c 0,14,15
 676 824 676 824 777 904 c 128,-1,16
 878 984 878 984 900 1122 c 0,17,18
 920 1244 920 1244 853 1323 c 128,-1,19
 786 1402 786 1402 658 1402 c 0,20,21
 464 1402 464 1402 330 1176 c 1,22,-1
 230 1212 l 1,23,24
 298 1340 298 1340 411 1423 c 128,-1,25
 524 1506 524 1506 682 1506 c 0,26,27
 870 1506 870 1506 962 1399 c 128,-1,28
 1054 1292 1054 1292 1028 1132 c 0,29,30
 1006 1000 1006 1000 920 910 c 128,-1,31
 834 820 834 820 728 784 c 1,32,33
 842 754 842 754 917 658 c 128,-1,34
 992 562 992 562 966 404 c 0,35,36
 930 192 930 192 783 78 c 128,-1,37
 636 -36 636 -36 426 -36 c 0,38,39
 266 -36 266 -36 166 42 c 128,-1,40
 66 120 66 120 28 238 c 1,0,-1
EndSplineSet
Substitution2: "'subs' Subscript lookup 6 subtable" uni2083
Substitution2: "'sups' Superscript lookup 5 subtable" threesuperior
Substitution2: "'sinf' Scientific Inferiors lookup 4 subtable" uni2083
AlternateSubs2: "'aalt' Access All Alternates lookup 1 subtable" uni2083 threesuperior
EndChar

StartChar: four
Encoding: 52 52 23
Width: 1100
GlyphClass: 2
Flags: W
LayerCount: 2
Fore
SplineSet
36 446 m 1,0,-1
 880 1470 l 1,1,-1
 996 1470 l 1,2,-1
 824 450 l 1,3,-1
 1044 450 l 1,4,-1
 1026 344 l 1,5,-1
 808 344 l 1,6,-1
 746 0 l 5,7,-1
 624 0 l 5,8,-1
 684 344 l 1,9,-1
 20 344 l 1,10,-1
 36 446 l 1,0,-1
158 450 m 1,11,-1
 702 450 l 1,12,-1
 802 1048 l 2,13,14
 822 1174 822 1174 848 1286 c 1,15,-1
 842 1286 l 1,16,-1
 680 1078 l 1,17,-1
 158 450 l 1,11,-1
EndSplineSet
Substitution2: "'subs' Subscript lookup 6 subtable" uni2084
Substitution2: "'sups' Superscript lookup 5 subtable" uni2074
Substitution2: "'sinf' Scientific Inferiors lookup 4 subtable" uni2084
AlternateSubs2: "'aalt' Access All Alternates lookup 1 subtable" uni2084 uni2074
EndChar

StartChar: five
Encoding: 53 53 24
Width: 1100
GlyphClass: 2
Flags: W
LayerCount: 2
Fore
SplineSet
44 224 m 1,0,-1
 154 266 l 1,1,2
 186 176 186 176 258 122 c 128,-1,3
 330 68 330 68 428 68 c 0,4,5
 582 68 582 68 687 171 c 128,-1,6
 792 274 792 274 818 434 c 0,7,8
 846 598 846 598 771 700 c 128,-1,9
 696 802 696 802 546 802 c 0,10,11
 472 802 472 802 387 767 c 128,-1,12
 302 732 302 732 234 672 c 1,13,-1
 166 702 l 1,14,-1
 366 1470 l 1,15,-1
 1032 1470 l 1,16,-1
 1014 1366 l 1,17,-1
 464 1366 l 1,18,-1
 314 820 l 1,19,20
 450 906 450 906 606 906 c 0,21,22
 790 906 790 906 886 778 c 128,-1,23
 982 650 982 650 946 436 c 0,24,25
 914 238 914 238 773 101 c 128,-1,26
 632 -36 632 -36 412 -36 c 0,27,28
 130 -36 130 -36 44 224 c 1,0,-1
EndSplineSet
EndChar

StartChar: six
Encoding: 54 54 25
Width: 1100
GlyphClass: 2
Flags: W
LayerCount: 2
Fore
SplineSet
228 454 m 0,0,1
 200 288 200 288 270 178 c 128,-1,2
 340 68 340 68 482 68 c 0,3,4
 622 68 622 68 729 177 c 128,-1,5
 836 286 836 286 864 454 c 0,6,7
 892 626 892 626 820 734 c 128,-1,8
 748 842 748 842 608 842 c 0,9,10
 472 842 472 842 364 730 c 128,-1,11
 256 618 256 618 228 454 c 0,0,1
122 652 m 0,12,13
 148 812 148 812 199 956 c 128,-1,14
 250 1100 250 1100 327 1227 c 128,-1,15
 404 1354 404 1354 519 1430 c 128,-1,16
 634 1506 634 1506 772 1506 c 0,17,18
 1016 1506 1016 1506 1102 1256 c 1,19,-1
 994 1218 l 1,20,21
 920 1402 920 1402 754 1402 c 0,22,23
 662 1402 662 1402 584 1352 c 128,-1,24
 506 1302 506 1302 452 1217 c 128,-1,25
 398 1132 398 1132 363 1049 c 128,-1,26
 328 966 328 966 300 872 c 0,27,28
 272 776 272 776 252 690 c 1,29,30
 308 806 308 806 412 877 c 128,-1,31
 516 948 516 948 644 948 c 0,32,33
 832 948 832 948 927 807 c 128,-1,34
 1022 666 1022 666 988 456 c 0,35,36
 954 248 954 248 814 106 c 128,-1,37
 674 -36 674 -36 474 -36 c 0,38,39
 272 -36 272 -36 174 104 c 0,40,41
 58 264 58 264 122 652 c 0,12,13
EndSplineSet
EndChar

StartChar: seven
Encoding: 55 55 26
Width: 1100
GlyphClass: 2
Flags: W
LayerCount: 2
Fore
SplineSet
214 1362 m 1,0,-1
 232 1470 l 1,1,-1
 1114 1470 l 1,2,-1
 1100 1382 l 1,3,4
 832 1028 832 1028 647 708 c 128,-1,5
 462 388 462 388 314 0 c 5,6,-1
 186 0 l 5,7,8
 340 408 340 408 522 713 c 128,-1,9
 704 1018 704 1018 954 1362 c 1,10,-1
 214 1362 l 1,0,-1
EndSplineSet
EndChar

StartChar: eight
Encoding: 56 56 27
Width: 1100
GlyphClass: 2
Flags: W
LayerCount: 2
Fore
SplineSet
356 1120 m 0,0,1
 336 994 336 994 407 916 c 128,-1,2
 478 838 478 838 596 838 c 0,3,4
 716 838 716 838 812 918 c 128,-1,5
 908 998 908 998 928 1120 c 0,6,7
 948 1244 948 1244 880 1323 c 128,-1,8
 812 1402 812 1402 690 1402 c 0,9,10
 562 1402 562 1402 469 1320 c 128,-1,11
 376 1238 376 1238 356 1120 c 0,0,1
62 388 m 0,12,13
 88 548 88 548 188 648 c 128,-1,14
 288 748 288 748 418 788 c 1,15,16
 190 882 190 882 230 1126 c 0,17,18
 256 1284 256 1284 391 1395 c 128,-1,19
 526 1506 526 1506 706 1506 c 0,20,21
 882 1506 882 1506 982 1397 c 128,-1,22
 1082 1288 1082 1288 1056 1126 c 0,23,24
 1034 994 1034 994 949 908 c 128,-1,25
 864 822 864 822 758 788 c 1,26,27
 878 750 878 750 944 648 c 128,-1,28
 1010 546 1010 546 984 386 c 0,29,30
 954 202 954 202 804 83 c 128,-1,31
 654 -36 654 -36 452 -36 c 0,32,33
 256 -36 256 -36 143 80 c 128,-1,34
 30 196 30 196 62 388 c 0,12,13
190 396 m 0,35,36
 166 254 166 254 247 161 c 128,-1,37
 328 68 328 68 468 68 c 0,38,39
 612 68 612 68 724 162 c 128,-1,40
 836 256 836 256 860 396 c 0,41,42
 884 540 884 540 802 637 c 128,-1,43
 720 734 720 734 578 734 c 0,44,45
 440 734 440 734 327 638 c 128,-1,46
 214 542 214 542 190 396 c 0,35,36
EndSplineSet
EndChar

StartChar: nine
Encoding: 57 57 28
Width: 1100
GlyphClass: 2
Flags: W
LayerCount: 2
Fore
SplineSet
288 1018 m 0,0,1
 260 846 260 846 337 740 c 128,-1,2
 414 634 414 634 542 634 c 0,3,4
 674 634 674 634 784 743 c 128,-1,5
 894 852 894 852 922 1016 c 0,6,7
 948 1178 948 1178 878 1290 c 128,-1,8
 808 1402 808 1402 670 1402 c 0,9,10
 534 1402 534 1402 425 1294 c 128,-1,11
 316 1186 316 1186 288 1018 c 0,0,1
50 222 m 1,12,-1
 160 262 l 1,13,14
 186 176 186 176 252 122 c 128,-1,15
 318 68 318 68 412 68 c 0,16,17
 512 68 512 68 594 123 c 128,-1,18
 676 178 676 178 732 278 c 128,-1,19
 788 378 788 378 825 496 c 128,-1,20
 862 614 862 614 890 760 c 1,21,22
 838 668 838 668 737 599 c 128,-1,23
 636 530 636 530 510 530 c 0,24,25
 336 530 336 530 231 662 c 128,-1,26
 126 794 126 794 164 1016 c 0,27,28
 200 1230 200 1230 349 1368 c 128,-1,29
 498 1506 498 1506 688 1506 c 0,30,31
 852 1506 852 1506 944 1401 c 128,-1,32
 1036 1296 1036 1296 1046 1132 c 0,33,34
 1052 1016 1052 1016 1018 810 c 0,35,36
 878 -36 878 -36 390 -36 c 0,37,38
 252 -36 252 -36 166 40 c 128,-1,39
 80 116 80 116 50 222 c 1,12,-1
EndSplineSet
EndChar

StartChar: colon
Encoding: 58 58 29
Width: 550
GlyphClass: 2
Flags: W
LayerCount: 2
Fore
SplineSet
70 0 m 1,0,-1
 104 214 l 1,1,-1
 324 214 l 1,2,-1
 288 0 l 1,3,-1
 70 0 l 1,0,-1
198 776 m 1,4,-1
 234 990 l 1,5,-1
 452 990 l 1,6,-1
 418 776 l 1,7,-1
 198 776 l 1,4,-1
EndSplineSet
EndChar

StartChar: semicolon
Encoding: 59 59 30
Width: 550
GlyphClass: 2
Flags: W
LayerCount: 2
Fore
SplineSet
-104 -366 m 1,0,-1
 154 202 l 1,1,-1
 334 202 l 1,2,-1
 -4 -366 l 1,3,-1
 -104 -366 l 1,0,-1
202 764 m 1,4,-1
 238 978 l 1,5,-1
 456 978 l 1,6,-1
 420 764 l 1,7,-1
 202 764 l 1,4,-1
EndSplineSet
EndChar

StartChar: less
Encoding: 60 60 31
Width: 1080
GlyphClass: 2
Flags: W
LayerCount: 2
Fore
SplineSet
126 654 m 1,0,-1
 144 766 l 1,1,-1
 1056 1392 l 1,2,-1
 1106 1300 l 1,3,-1
 252 710 l 1,4,-1
 912 120 l 1,5,-1
 832 28 l 1,6,-1
 126 654 l 1,0,-1
EndSplineSet
EndChar

StartChar: equal
Encoding: 61 61 32
Width: 1082
GlyphClass: 2
Flags: W
LayerCount: 2
Fore
SplineSet
78 482 m 1,0,-1
 96 590 l 1,1,-1
 994 590 l 1,2,-1
 976 482 l 1,3,-1
 78 482 l 1,0,-1
142 864 m 1,4,-1
 160 972 l 1,5,-1
 1058 972 l 1,6,-1
 1040 864 l 1,7,-1
 142 864 l 1,4,-1
EndSplineSet
Substitution2: "'sups' Superscript lookup 5 subtable" uni207C
Substitution2: "'aalt' Access All Alternates lookup 0 subtable" uni207C
EndChar

StartChar: greater
Encoding: 62 62 33
Width: 1080
GlyphClass: 2
Flags: W
LayerCount: 2
Fore
SplineSet
72 28 m 1,0,-1
 24 120 l 1,1,-1
 874 710 l 1,2,-1
 220 1300 l 1,3,-1
 298 1392 l 1,4,-1
 1006 766 l 1,5,-1
 986 654 l 1,6,-1
 72 28 l 1,0,-1
EndSplineSet
EndChar

StartChar: question
Encoding: 63 63 34
Width: 1058
GlyphClass: 2
Flags: W
LayerCount: 2
Fore
SplineSet
224 1200 m 1,0,1
 300 1342 300 1342 423 1424 c 128,-1,2
 546 1506 546 1506 686 1506 c 0,3,4
 866 1506 866 1506 953 1400 c 128,-1,5
 1040 1294 1040 1294 1010 1116 c 0,6,7
 996 1026 996 1026 947 952 c 128,-1,8
 898 878 898 878 838 827 c 128,-1,9
 778 776 778 776 718 726 c 128,-1,10
 658 676 658 676 610 604 c 128,-1,11
 562 532 562 532 546 444 c 2,12,-1
 538 396 l 1,13,-1
 416 396 l 1,14,-1
 424 450 l 2,15,16
 440 548 440 548 489 627 c 128,-1,17
 538 706 538 706 598 758 c 128,-1,18
 658 810 658 810 717 860 c 128,-1,19
 776 910 776 910 823 975 c 128,-1,20
 870 1040 870 1040 884 1118 c 0,21,22
 906 1246 906 1246 849 1323 c 128,-1,23
 792 1400 792 1400 668 1400 c 0,24,25
 468 1400 468 1400 328 1160 c 1,26,-1
 224 1200 l 1,0,1
298 -18 m 1,27,-1
 332 188 l 1,28,-1
 552 188 l 1,29,-1
 518 -18 l 1,30,-1
 298 -18 l 1,27,-1
EndSplineSet
EndChar

StartChar: at
Encoding: 64 64 35
Width: 1850
GlyphClass: 2
Flags: W
LayerCount: 2
Fore
SplineSet
134 690 m 256,0,1
 194 1056 194 1056 470 1288 c 128,-1,2
 746 1520 746 1520 1126 1520 c 0,3,4
 1470 1520 1470 1520 1650 1318 c 128,-1,5
 1830 1116 1830 1116 1778 794 c 0,6,7
 1732 514 1732 514 1602 376 c 128,-1,8
 1472 238 1472 238 1326 238 c 0,9,10
 1238 238 1238 238 1184 303 c 128,-1,11
 1130 368 1130 368 1142 468 c 1,12,-1
 1140 468 l 1,13,14
 1094 382 1094 382 999 311 c 128,-1,15
 904 240 904 240 790 240 c 0,16,17
 652 240 652 240 579 345 c 128,-1,18
 506 450 506 450 536 624 c 0,19,20
 574 856 574 856 717 990 c 128,-1,21
 860 1124 860 1124 1024 1124 c 0,22,23
 1120 1124 1120 1124 1171 1080 c 128,-1,24
 1222 1036 1222 1036 1236 986 c 1,25,-1
 1264 1106 l 1,26,-1
 1360 1106 l 1,27,-1
 1244 554 l 2,28,29
 1242 544 1242 544 1240 536 c 0,30,31
 1224 444 1224 444 1254 390 c 128,-1,32
 1284 336 1284 336 1350 336 c 0,33,34
 1458 336 1458 336 1545 454 c 128,-1,35
 1632 572 1632 572 1668 784 c 0,36,37
 1716 1068 1716 1068 1567 1247 c 128,-1,38
 1418 1426 1418 1426 1110 1426 c 0,39,40
 786 1426 786 1426 542 1222 c 128,-1,41
 298 1018 298 1018 242 690 c 0,42,43
 186 352 186 352 354 154 c 128,-1,44
 522 -44 522 -44 840 -44 c 0,45,46
 1074 -44 1074 -44 1284 18 c 1,47,-1
 1292 -70 l 1,48,49
 1078 -136 1078 -136 826 -136 c 0,50,51
 450 -136 450 -136 262 94 c 128,-1,52
 74 324 74 324 134 690 c 256,0,1
650 624 m 0,53,54
 630 498 630 498 677 420 c 128,-1,55
 724 342 724 342 818 342 c 0,56,57
 864 342 864 342 913 363 c 128,-1,58
 962 384 962 384 1018 430 c 128,-1,59
 1074 476 1074 476 1119 571 c 128,-1,60
 1164 666 1164 666 1186 794 c 0,61,62
 1202 888 1202 888 1161 958 c 128,-1,63
 1120 1028 1120 1028 1010 1028 c 0,64,65
 898 1028 898 1028 790 920 c 128,-1,66
 682 812 682 812 650 624 c 0,53,54
EndSplineSet
EndChar

StartChar: A
Encoding: 65 65 36
Width: 1238
GlyphClass: 2
Flags: W
LayerCount: 2
Fore
SplineSet
326 546 m 1,0,-1
 906 546 l 1,1,-1
 802 1094 l 2,2,3
 796 1136 796 1136 779 1227 c 128,-1,4
 762 1318 762 1318 756 1354 c 1,5,-1
 746 1354 l 1,6,7
 732 1328 732 1328 684 1233 c 128,-1,8
 636 1138 636 1138 614 1094 c 2,9,-1
 326 546 l 1,0,-1
-98 0 m 1,10,-1
 692 1470 l 1,11,-1
 848 1470 l 1,12,-1
 1148 0 l 1,13,-1
 1012 0 l 1,14,-1
 928 444 l 1,15,-1
 272 444 l 1,16,-1
 40 0 l 1,17,-1
 -98 0 l 1,10,-1
EndSplineSet
Substitution2: "Single Substitution lookup 12 subtable" ordfeminine
EndChar

StartChar: B
Encoding: 66 66 37
Width: 1294
GlyphClass: 2
Flags: W
LayerCount: 2
Fore
SplineSet
106 0 m 1,0,-1
 350 1470 l 1,1,-1
 872 1470 l 2,2,3
 1076 1470 1076 1470 1167 1369 c 128,-1,4
 1258 1268 1258 1268 1230 1098 c 0,5,6
 1210 974 1210 974 1133 890 c 128,-1,7
 1056 806 1056 806 954 770 c 1,8,9
 1066 738 1066 738 1131 640 c 128,-1,10
 1196 542 1196 542 1174 406 c 0,11,12
 1146 234 1146 234 1015 117 c 128,-1,13
 884 0 884 0 694 0 c 2,14,-1
 106 0 l 1,0,-1
248 108 m 1,15,-1
 682 108 l 2,16,17
 820 108 820 108 922 189 c 128,-1,18
 1024 270 1024 270 1044 402 c 0,19,20
 1066 530 1066 530 990 617 c 128,-1,21
 914 704 914 704 772 704 c 2,22,-1
 346 704 l 1,23,-1
 248 108 l 1,15,-1
364 810 m 1,24,-1
 738 810 l 2,25,26
 876 810 876 810 978 880 c 128,-1,27
 1080 950 1080 950 1104 1088 c 0,28,29
 1124 1208 1124 1208 1061 1285 c 128,-1,30
 998 1362 998 1362 840 1362 c 2,31,-1
 456 1362 l 1,32,-1
 364 810 l 1,24,-1
EndSplineSet
EndChar

StartChar: C
Encoding: 67 67 38
Width: 1250
GlyphClass: 2
Flags: W
LayerCount: 2
Fore
SplineSet
128 734 m 256,0,1
 188 1094 188 1094 390 1300 c 128,-1,2
 592 1506 592 1506 862 1506 c 0,3,4
 1028 1506 1028 1506 1127 1413 c 128,-1,5
 1226 1320 1226 1320 1260 1196 c 1,6,-1
 1148 1156 l 1,7,8
 1062 1398 1062 1398 842 1398 c 0,9,10
 624 1398 624 1398 464 1216 c 128,-1,11
 304 1034 304 1034 256 734 c 0,12,13
 206 428 206 428 307 251 c 128,-1,14
 408 74 408 74 622 74 c 0,15,16
 758 74 758 74 866 148 c 128,-1,17
 974 222 974 222 1044 334 c 1,18,-1
 1148 296 l 1,19,20
 1060 154 1060 154 924 59 c 128,-1,21
 788 -36 788 -36 606 -36 c 0,22,23
 338 -36 338 -36 203 169 c 128,-1,24
 68 374 68 374 128 734 c 256,0,1
EndSplineSet
EndChar

StartChar: D
Encoding: 68 68 39
Width: 1326
GlyphClass: 2
Flags: W
LayerCount: 2
Fore
SplineSet
106 0 m 1,0,-1
 350 1470 l 1,1,-1
 728 1470 l 2,2,3
 1036 1470 1036 1470 1182 1284 c 128,-1,4
 1328 1098 1328 1098 1268 734 c 0,5,6
 1210 384 1210 384 1005 192 c 128,-1,7
 800 0 800 0 482 0 c 2,8,-1
 106 0 l 1,0,-1
248 108 m 1,9,-1
 474 108 l 2,10,11
 734 108 734 108 911 258 c 128,-1,12
 1088 408 1088 408 1142 734 c 0,13,14
 1196 1064 1196 1064 1072 1213 c 128,-1,15
 948 1362 948 1362 686 1362 c 2,16,-1
 456 1362 l 1,17,-1
 248 108 l 1,9,-1
EndSplineSet
EndChar

StartChar: E
Encoding: 69 69 40
Width: 1178
GlyphClass: 2
Flags: W
LayerCount: 2
Fore
SplineSet
106 0 m 1,0,-1
 350 1470 l 1,1,-1
 1236 1470 l 1,2,-1
 1218 1362 l 1,3,-1
 456 1362 l 1,4,-1
 364 814 l 1,5,-1
 1054 814 l 1,6,-1
 1036 708 l 1,7,-1
 346 708 l 1,8,-1
 248 108 l 1,9,-1
 1030 108 l 1,10,-1
 1012 0 l 1,11,-1
 106 0 l 1,0,-1
EndSplineSet
EndChar

StartChar: F
Encoding: 70 70 41
Width: 1100
GlyphClass: 2
Flags: W
LayerCount: 2
Fore
SplineSet
106 0 m 1,0,-1
 350 1470 l 1,1,-1
 1206 1470 l 1,2,-1
 1188 1362 l 1,3,-1
 456 1362 l 1,4,-1
 362 794 l 1,5,-1
 1022 794 l 1,6,-1
 1004 688 l 1,7,-1
 344 688 l 1,8,-1
 230 0 l 1,9,-1
 106 0 l 1,0,-1
EndSplineSet
EndChar

StartChar: G
Encoding: 71 71 42
Width: 1380
GlyphClass: 2
Flags: W
LayerCount: 2
Fore
SplineSet
128 734 m 0,0,1
 184 1078 184 1078 384 1292 c 128,-1,2
 584 1506 584 1506 874 1506 c 0,3,4
 1052 1506 1052 1506 1153 1415 c 128,-1,5
 1254 1324 1254 1324 1292 1206 c 1,6,-1
 1180 1168 l 1,7,8
 1082 1398 1082 1398 856 1398 c 0,9,10
 622 1398 622 1398 463 1215 c 128,-1,11
 304 1032 304 1032 256 734 c 0,12,13
 206 426 206 426 308 250 c 128,-1,14
 410 74 410 74 632 74 c 0,15,16
 832 74 832 74 959 210 c 128,-1,17
 1086 346 1086 346 1118 532 c 2,18,-1
 1140 674 l 1,19,-1
 714 674 l 1,20,-1
 732 782 l 1,21,-1
 1280 782 l 1,22,-1
 1150 0 l 1,23,-1
 1058 0 l 1,24,-1
 1090 244 l 1,25,26
 932 -36 932 -36 610 -36 c 0,27,28
 334 -36 334 -36 202 171 c 128,-1,29
 70 378 70 378 128 734 c 0,0,1
EndSplineSet
EndChar

StartChar: H
Encoding: 72 72 43
Width: 1402
GlyphClass: 2
Flags: W
LayerCount: 2
Fore
SplineSet
106 0 m 1,0,-1
 350 1470 l 1,1,-1
 474 1470 l 1,2,-1
 364 810 l 1,3,-1
 1120 810 l 1,4,-1
 1230 1470 l 1,5,-1
 1354 1470 l 1,6,-1
 1110 0 l 1,7,-1
 986 0 l 1,8,-1
 1102 704 l 1,9,-1
 346 704 l 1,10,-1
 230 0 l 1,11,-1
 106 0 l 1,0,-1
EndSplineSet
EndChar

StartChar: I
Encoding: 73 73 44
Width: 522
GlyphClass: 2
Flags: W
LayerCount: 2
Fore
SplineSet
106 0 m 1,0,-1
 350 1470 l 1,1,-1
 474 1470 l 1,2,-1
 230 0 l 1,3,-1
 106 0 l 1,0,-1
EndSplineSet
EndChar

StartChar: J
Encoding: 74 74 45
Width: 950
GlyphClass: 2
Flags: W
LayerCount: 2
Fore
SplineSet
-28 220 m 1,0,-1
 90 264 l 1,1,2
 106 174 106 174 161 124 c 128,-1,3
 216 74 216 74 294 74 c 0,4,5
 296 74 296 74 300 74 c 0,6,7
 546 78 546 78 604 424 c 2,8,-1
 776 1470 l 1,9,-1
 900 1470 l 1,10,-1
 722 400 l 2,11,12
 686 184 686 184 575 74 c 128,-1,13
 464 -36 464 -36 286 -36 c 0,14,15
 22 -36 22 -36 -28 220 c 1,0,-1
EndSplineSet
EndChar

StartChar: K
Encoding: 75 75 46
Width: 1228
GlyphClass: 2
Flags: W
LayerCount: 2
Fore
SplineSet
106 0 m 1,0,-1
 350 1470 l 1,1,-1
 474 1470 l 1,2,-1
 338 650 l 1,3,-1
 342 650 l 1,4,-1
 1170 1470 l 1,5,-1
 1338 1470 l 1,6,-1
 688 836 l 1,7,-1
 1130 0 l 1,8,-1
 972 0 l 1,9,-1
 590 744 l 1,10,-1
 308 468 l 1,11,-1
 230 0 l 1,12,-1
 106 0 l 1,0,-1
EndSplineSet
EndChar

StartChar: L
Encoding: 76 76 47
Width: 1036
GlyphClass: 2
Flags: W
LayerCount: 2
Fore
SplineSet
106 0 m 1,0,-1
 350 1470 l 1,1,-1
 474 1470 l 1,2,-1
 248 108 l 1,3,-1
 946 108 l 1,4,-1
 928 0 l 1,5,-1
 106 0 l 1,0,-1
EndSplineSet
EndChar

StartChar: M
Encoding: 77 77 48
Width: 1700
GlyphClass: 2
Flags: W
LayerCount: 2
Fore
SplineSet
106 0 m 1,0,-1
 350 1470 l 1,1,-1
 512 1470 l 1,2,-1
 720 630 l 2,3,4
 738 558 738 558 764 438 c 128,-1,5
 790 318 790 318 798 276 c 1,6,-1
 806 276 l 1,7,8
 908 464 908 464 1002 630 c 2,9,-1
 1488 1470 l 1,10,-1
 1652 1470 l 1,11,-1
 1410 0 l 1,12,-1
 1286 0 l 1,13,-1
 1434 892 l 2,14,15
 1458 1040 1458 1040 1518 1312 c 1,16,-1
 1514 1312 l 1,17,-1
 834 118 l 1,18,-1
 722 118 l 1,19,-1
 482 1114 l 1,20,-1
 438 1312 l 1,21,-1
 430 1312 l 1,22,23
 402 1038 402 1038 378 892 c 2,24,-1
 230 0 l 1,25,-1
 106 0 l 1,0,-1
EndSplineSet
EndChar

StartChar: N
Encoding: 78 78 49
Width: 1412
GlyphClass: 2
Flags: W
LayerCount: 2
Fore
SplineSet
106 0 m 1,0,-1
 350 1470 l 1,1,-1
 494 1470 l 1,2,-1
 912 476 l 1,3,-1
 1036 178 l 1,4,-1
 1046 178 l 1,5,6
 1054 344 1054 344 1090 572 c 2,7,-1
 1240 1470 l 1,8,-1
 1364 1470 l 1,9,-1
 1122 0 l 1,10,-1
 976 0 l 1,11,-1
 436 1290 l 1,12,-1
 430 1290 l 1,13,14
 416 1120 416 1120 376 884 c 2,15,-1
 230 0 l 1,16,-1
 106 0 l 1,0,-1
EndSplineSet
EndChar

StartChar: O
Encoding: 79 79 50
Width: 1374
GlyphClass: 2
Flags: W
LayerCount: 2
Fore
SplineSet
128 734 m 0,0,1
 186 1082 186 1082 380 1294 c 128,-1,2
 574 1506 574 1506 844 1506 c 256,3,4
 1114 1506 1114 1506 1236 1293 c 128,-1,5
 1358 1080 1358 1080 1302 732 c 0,6,7
 1244 382 1244 382 1050 173 c 128,-1,8
 856 -36 856 -36 588 -36 c 0,9,10
 318 -36 318 -36 194 174 c 128,-1,11
 70 384 70 384 128 734 c 0,0,1
256 734 m 0,12,13
 206 434 206 434 299 254 c 128,-1,14
 392 74 392 74 606 74 c 0,15,16
 816 74 816 74 970 251 c 128,-1,17
 1124 428 1124 428 1174 732 c 256,18,19
 1224 1036 1224 1036 1133 1217 c 128,-1,20
 1042 1398 1042 1398 826 1398 c 0,21,22
 614 1398 614 1398 460 1218 c 128,-1,23
 306 1038 306 1038 256 734 c 0,12,13
EndSplineSet
Substitution2: "Single Substitution lookup 12 subtable" ordmasculine
EndChar

StartChar: P
Encoding: 80 80 51
Width: 1262
GlyphClass: 2
Flags: W
LayerCount: 2
Fore
SplineSet
106 0 m 1,0,-1
 350 1470 l 1,1,-1
 888 1470 l 2,2,3
 1092 1470 1092 1470 1194 1354 c 128,-1,4
 1296 1238 1296 1238 1264 1046 c 0,5,6
 1232 848 1232 848 1089 735 c 128,-1,7
 946 622 946 622 748 622 c 2,8,-1
 332 622 l 1,9,-1
 230 0 l 1,10,-1
 106 0 l 1,0,-1
350 728 m 1,11,-1
 742 728 l 2,12,13
 900 728 900 728 1005 808 c 128,-1,14
 1110 888 1110 888 1136 1046 c 0,15,16
 1162 1198 1162 1198 1085 1280 c 128,-1,17
 1008 1362 1008 1362 844 1362 c 2,18,-1
 456 1362 l 1,19,-1
 350 728 l 1,11,-1
EndSplineSet
EndChar

StartChar: Q
Encoding: 81 81 52
Width: 1372
GlyphClass: 2
Flags: W
LayerCount: 2
Fore
SplineSet
128 732 m 0,0,1
 186 1084 186 1084 381 1295 c 128,-1,2
 576 1506 576 1506 844 1506 c 256,3,4
 1112 1506 1112 1506 1235 1293 c 128,-1,5
 1358 1080 1358 1080 1302 732 c 0,6,7
 1244 386 1244 386 1052 176 c 0,8,9
 1040 164 1040 164 1032 154 c 1,10,-1
 1174 -28 l 1,11,-1
 1078 -102 l 1,12,-1
 940 76 l 1,13,14
 784 -36 784 -36 588 -36 c 0,15,16
 318 -36 318 -36 194 175 c 128,-1,17
 70 386 70 386 128 732 c 0,0,1
648 446 m 1,18,-1
 744 522 l 1,19,-1
 962 242 l 1,20,21
 966 248 966 248 970 252 c 0,22,23
 1122 430 1122 430 1174 732 c 0,24,25
 1226 1044 1226 1044 1130 1221 c 128,-1,26
 1034 1398 1034 1398 826 1398 c 0,27,28
 616 1398 616 1398 461 1219 c 128,-1,29
 306 1040 306 1040 254 732 c 0,30,31
 204 430 204 430 299 252 c 128,-1,32
 394 74 394 74 606 74 c 0,33,34
 754 74 754 74 872 162 c 1,35,-1
 648 446 l 1,18,-1
EndSplineSet
EndChar

StartChar: R
Encoding: 82 82 53
Width: 1284
GlyphClass: 2
Flags: W
LayerCount: 2
Fore
SplineSet
356 758 m 1,0,-1
 772 758 l 2,1,2
 924 758 924 758 1022 841 c 128,-1,3
 1120 924 1120 924 1142 1062 c 0,4,5
 1164 1194 1164 1194 1091 1278 c 128,-1,6
 1018 1362 1018 1362 854 1362 c 2,7,-1
 456 1362 l 1,8,-1
 356 758 l 1,0,-1
106 0 m 1,9,-1
 350 1470 l 1,10,-1
 904 1470 l 2,11,12
 1112 1470 1112 1470 1206 1355 c 128,-1,13
 1300 1240 1300 1240 1272 1070 c 0,14,15
 1246 908 1246 908 1148 813 c 128,-1,16
 1050 718 1050 718 948 696 c 1,17,18
 1024 656 1024 656 1054 588 c 128,-1,19
 1084 520 1084 520 1090 406 c 0,20,21
 1090 394 1090 394 1094 346 c 128,-1,22
 1098 298 1098 298 1098 288 c 128,-1,23
 1098 278 1098 278 1102 240 c 128,-1,24
 1106 202 1106 202 1109 190 c 128,-1,25
 1112 178 1112 178 1117 147 c 128,-1,26
 1122 116 1122 116 1127 98 c 128,-1,27
 1132 80 1132 80 1141 53 c 128,-1,28
 1150 26 1150 26 1160 0 c 1,29,-1
 1022 0 l 1,30,31
 1000 60 1000 60 987 129 c 128,-1,32
 974 198 974 198 970 244 c 128,-1,33
 966 290 966 290 960 398 c 0,34,35
 954 512 954 512 908 581 c 128,-1,36
 862 650 862 650 742 650 c 2,37,-1
 338 650 l 1,38,-1
 230 0 l 1,39,-1
 106 0 l 1,9,-1
EndSplineSet
EndChar

StartChar: S
Encoding: 83 83 54
Width: 1184
GlyphClass: 2
Flags: W
LayerCount: 2
Fore
SplineSet
32 260 m 1,0,-1
 156 304 l 1,1,2
 200 198 200 198 295 136 c 128,-1,3
 390 74 390 74 530 74 c 0,4,5
 690 74 690 74 804 154 c 128,-1,6
 918 234 918 234 942 374 c 0,7,8
 952 430 952 430 937 477 c 128,-1,9
 922 524 922 524 896 555 c 128,-1,10
 870 586 870 586 819 616 c 128,-1,11
 768 646 768 646 727 663 c 128,-1,12
 686 680 686 680 620 704 c 0,13,14
 558 726 558 726 527 737 c 128,-1,15
 496 748 496 748 441 773 c 128,-1,16
 386 798 386 798 357 818 c 128,-1,17
 328 838 328 838 292 871 c 128,-1,18
 256 904 256 904 241 939 c 128,-1,19
 226 974 226 974 218 1023 c 128,-1,20
 210 1072 210 1072 220 1128 c 0,21,22
 248 1300 248 1300 393 1403 c 128,-1,23
 538 1506 538 1506 756 1506 c 0,24,25
 916 1506 916 1506 1027 1431 c 128,-1,26
 1138 1356 1138 1356 1172 1244 c 1,27,-1
 1060 1206 l 1,28,29
 972 1398 972 1398 734 1398 c 0,30,31
 574 1398 574 1398 471 1324 c 128,-1,32
 368 1250 368 1250 346 1128 c 0,33,34
 332 1038 332 1038 387 972 c 128,-1,35
 442 906 442 906 498 879 c 128,-1,36
 554 852 554 852 686 806 c 0,37,38
 698 800 698 800 706 798 c 0,39,40
 778 772 778 772 827 751 c 128,-1,41
 876 730 876 730 933 694 c 128,-1,42
 990 658 990 658 1021 617 c 128,-1,43
 1052 576 1052 576 1067 515 c 128,-1,44
 1082 454 1082 454 1070 380 c 0,45,46
 1038 184 1038 184 886 74 c 128,-1,47
 734 -36 734 -36 508 -36 c 0,48,49
 322 -36 322 -36 202 44 c 128,-1,50
 82 124 82 124 32 260 c 1,0,-1
EndSplineSet
EndChar

StartChar: T
Encoding: 84 84 55
Width: 1068
GlyphClass: 2
Flags: W
LayerCount: 2
Fore
SplineSet
158 1362 m 1,0,-1
 176 1470 l 1,1,-1
 1194 1470 l 1,2,-1
 1176 1362 l 1,3,-1
 730 1362 l 1,4,-1
 504 0 l 1,5,-1
 380 0 l 1,6,-1
 606 1362 l 1,7,-1
 158 1362 l 1,0,-1
EndSplineSet
EndChar

StartChar: U
Encoding: 85 85 56
Width: 1400
GlyphClass: 2
Flags: W
LayerCount: 2
Fore
SplineSet
190 522 m 2,0,-1
 348 1470 l 1,1,-1
 472 1470 l 1,2,-1
 316 528 l 2,3,4
 278 302 278 302 363 188 c 128,-1,5
 448 74 448 74 618 74 c 0,6,7
 792 74 792 74 915 190 c 128,-1,8
 1038 306 1038 306 1074 528 c 2,9,-1
 1230 1470 l 1,10,-1
 1354 1470 l 1,11,-1
 1196 522 l 2,12,13
 1152 258 1152 258 999 111 c 128,-1,14
 846 -36 846 -36 600 -36 c 0,15,16
 360 -36 360 -36 253 109 c 128,-1,17
 146 254 146 254 190 522 c 2,0,-1
EndSplineSet
EndChar

StartChar: V
Encoding: 86 86 57
Width: 1130
GlyphClass: 2
Flags: W
LayerCount: 2
Fore
SplineSet
146 1470 m 1,0,-1
 282 1470 l 1,1,-1
 444 430 l 2,2,3
 448 396 448 396 464 292 c 128,-1,4
 480 188 480 188 488 128 c 1,5,-1
 494 128 l 1,6,7
 522 192 522 192 574 298 c 128,-1,8
 626 404 626 404 638 430 c 2,9,-1
 1150 1470 l 1,10,-1
 1288 1470 l 1,11,-1
 548 0 l 1,12,-1
 396 0 l 1,13,-1
 146 1470 l 1,0,-1
EndSplineSet
EndChar

StartChar: W
Encoding: 87 87 58
Width: 1656
GlyphClass: 2
Flags: W
LayerCount: 2
Fore
SplineSet
170 1470 m 1,0,-1
 306 1470 l 1,1,-1
 360 440 l 2,2,3
 364 232 364 232 366 142 c 1,4,-1
 374 142 l 1,5,6
 468 390 468 390 488 440 c 2,7,-1
 908 1470 l 1,8,-1
 1048 1470 l 1,9,-1
 1128 440 l 2,10,11
 1134 364 1134 364 1146 142 c 1,12,-1
 1152 142 l 1,13,14
 1160 162 1160 162 1258 440 c 2,15,-1
 1652 1470 l 1,16,-1
 1788 1470 l 1,17,-1
 1200 0 l 1,18,-1
 1054 0 l 1,19,-1
 972 1016 l 2,20,21
 958 1208 958 1208 956 1312 c 1,22,-1
 950 1312 l 1,23,24
 932 1258 932 1258 890 1154 c 128,-1,25
 848 1050 848 1050 836 1016 c 2,26,-1
 420 0 l 1,27,-1
 272 0 l 1,28,-1
 170 1470 l 1,0,-1
EndSplineSet
EndChar

StartChar: X
Encoding: 88 88 59
Width: 1096
GlyphClass: 2
Flags: W
LayerCount: 2
Fore
SplineSet
-100 0 m 1,0,-1
 500 756 l 1,1,-1
 168 1470 l 1,2,-1
 322 1470 l 1,3,-1
 494 1080 l 1,4,-1
 592 852 l 1,5,-1
 598 852 l 1,6,7
 630 896 630 896 691 974 c 128,-1,8
 752 1052 752 1052 776 1080 c 2,9,-1
 1074 1470 l 1,10,-1
 1230 1470 l 1,11,-1
 658 756 l 1,12,-1
 1012 0 l 1,13,-1
 858 0 l 1,14,-1
 672 410 l 2,15,16
 652 454 652 454 614 543 c 128,-1,17
 576 632 576 632 566 656 c 1,18,-1
 560 656 l 1,19,20
 384 424 384 424 374 410 c 2,21,-1
 54 0 l 1,22,-1
 -100 0 l 1,0,-1
EndSplineSet
EndChar

StartChar: Y
Encoding: 89 89 60
Width: 1136
GlyphClass: 2
Flags: W
LayerCount: 2
Fore
SplineSet
144 1470 m 1,0,-1
 292 1470 l 1,1,-1
 492 974 l 2,2,3
 512 926 512 926 551 827 c 128,-1,4
 590 728 590 728 592 720 c 1,5,-1
 596 720 l 1,6,7
 624 756 624 756 656 800 c 128,-1,8
 688 844 688 844 725 896 c 128,-1,9
 762 948 762 948 782 974 c 2,10,-1
 1144 1470 l 1,11,-1
 1292 1470 l 1,12,-1
 640 606 l 1,13,-1
 540 0 l 1,14,-1
 414 0 l 1,15,-1
 514 606 l 1,16,-1
 144 1470 l 1,0,-1
EndSplineSet
EndChar

StartChar: Z
Encoding: 90 90 61
Width: 1188
GlyphClass: 2
Flags: W
LayerCount: 2
Fore
SplineSet
16 96 m 1,0,-1
 1060 1362 l 1,1,-1
 288 1362 l 1,2,-1
 306 1470 l 1,3,-1
 1228 1470 l 1,4,-1
 1212 1374 l 1,5,-1
 166 108 l 1,6,-1
 1024 108 l 1,7,-1
 1006 0 l 1,8,-1
 0 0 l 1,9,-1
 16 96 l 1,0,-1
EndSplineSet
EndChar

StartChar: bracketleft
Encoding: 91 91 62
Width: 852
GlyphClass: 2
Flags: W
LayerCount: 2
Fore
SplineSet
156 -262 m 1,0,-1
 476 1668 l 1,1,-1
 856 1668 l 1,2,-1
 838 1566 l 1,3,-1
 578 1566 l 1,4,-1
 292 -162 l 1,5,-1
 552 -162 l 1,6,-1
 536 -262 l 1,7,-1
 156 -262 l 1,0,-1
EndSplineSet
EndChar

StartChar: backslash
Encoding: 92 92 63
Width: 614
GlyphClass: 2
Flags: W
LayerCount: 2
Fore
SplineSet
146 1572 m 1,0,-1
 270 1572 l 1,1,-1
 524 -120 l 1,2,-1
 402 -120 l 1,3,-1
 146 1572 l 1,0,-1
EndSplineSet
EndChar

StartChar: bracketright
Encoding: 93 93 64
Width: 852
GlyphClass: 2
Flags: W
LayerCount: 2
Fore
SplineSet
62 -162 m 1,0,-1
 320 -162 l 1,1,-1
 606 1566 l 1,2,-1
 348 1566 l 1,3,-1
 364 1668 l 1,4,-1
 744 1668 l 1,5,-1
 424 -262 l 1,6,-1
 44 -262 l 1,7,-1
 62 -162 l 1,0,-1
EndSplineSet
EndChar

StartChar: asciicircum
Encoding: 94 94 65
Width: 962
GlyphClass: 2
Flags: W
LayerCount: 2
Fore
SplineSet
106 972 m 1,0,-1
 598 1624 l 1,1,-1
 716 1624 l 1,2,-1
 990 972 l 1,3,-1
 862 972 l 1,4,-1
 640 1522 l 1,5,-1
 550 1402 l 1,6,-1
 236 972 l 1,7,-1
 106 972 l 1,0,-1
EndSplineSet
EndChar

StartChar: underscore
Encoding: 95 95 66
Width: 860
GlyphClass: 2
Flags: W
LayerCount: 2
Fore
SplineSet
-90 -56 m 1,0,-1
 750 -56 l 1,1,-1
 734 -158 l 1,2,-1
 -108 -158 l 1,3,-1
 -90 -56 l 1,0,-1
EndSplineSet
EndChar

StartChar: grave
Encoding: 96 96 67
Width: 546
GlyphClass: 2
Flags: W
LayerCount: 2
Fore
SplineSet
398 1088 m 1,0,-1
 250 1656 l 1,1,-1
 432 1656 l 1,2,-1
 498 1088 l 1,3,-1
 398 1088 l 1,0,-1
EndSplineSet
EndChar

StartChar: a
Encoding: 97 97 68
Width: 1044
GlyphClass: 2
Flags: W
LayerCount: 2
Fore
SplineSet
148 260 m 0,0,1
 134 180 134 180 189 123 c 128,-1,2
 244 66 244 66 358 66 c 0,3,4
 500 66 500 66 618 163 c 128,-1,5
 736 260 736 260 762 410 c 2,6,-1
 788 576 l 1,7,8
 698 548 698 548 494 516 c 0,9,10
 330 488 330 488 248 426 c 128,-1,11
 166 364 166 364 148 260 c 0,0,1
30 252 m 0,12,13
 54 396 54 396 170 485 c 128,-1,14
 286 574 286 574 512 610 c 0,15,16
 738 648 738 648 806 674 c 1,17,-1
 814 734 l 2,18,19
 832 844 832 844 771 915 c 128,-1,20
 710 986 710 986 578 986 c 0,21,22
 486 986 486 986 394 941 c 128,-1,23
 302 896 302 896 232 820 c 1,24,-1
 168 884 l 1,25,26
 252 974 252 974 363 1030 c 128,-1,27
 474 1086 474 1086 592 1086 c 0,28,29
 798 1086 798 1086 874 978 c 128,-1,30
 950 870 950 870 920 688 c 2,31,-1
 806 0 l 1,32,-1
 696 0 l 1,33,-1
 726 190 l 1,34,35
 678 100 678 100 568 32 c 128,-1,36
 458 -36 458 -36 328 -36 c 0,37,38
 166 -36 166 -36 88 45 c 128,-1,39
 10 126 10 126 30 252 c 0,12,13
EndSplineSet
Substitution2: "Single Substitution lookup 12 subtable" ordfeminine
EndChar

StartChar: b
Encoding: 98 98 69
Width: 1098
GlyphClass: 2
Flags: W
LayerCount: 2
Fore
SplineSet
72 0 m 1,0,-1
 324 1528 l 1,1,-1
 438 1528 l 1,2,-1
 322 836 l 1,3,4
 362 928 362 928 463 1007 c 128,-1,5
 564 1086 564 1086 682 1086 c 0,6,7
 868 1086 868 1086 958 937 c 128,-1,8
 1048 788 1048 788 1006 528 c 0,9,10
 960 248 960 248 812 106 c 128,-1,11
 664 -36 664 -36 498 -36 c 0,12,13
 386 -36 386 -36 312 35 c 128,-1,14
 238 106 238 106 218 208 c 1,15,-1
 184 0 l 1,16,-1
 72 0 l 1,0,-1
268 528 m 0,17,18
 232 316 232 316 301 191 c 128,-1,19
 370 66 370 66 500 66 c 0,20,21
 638 66 638 66 747 190 c 128,-1,22
 856 314 856 314 892 528 c 0,23,24
 926 736 926 736 859 860 c 128,-1,25
 792 984 792 984 654 984 c 0,26,27
 526 984 526 984 414 861 c 128,-1,28
 302 738 302 738 268 528 c 0,17,18
EndSplineSet
EndChar

StartChar: c
Encoding: 99 99 70
Width: 948
GlyphClass: 2
Flags: W
LayerCount: 2
Fore
SplineSet
80 526 m 0,0,1
 122 774 122 774 265 930 c 128,-1,2
 408 1086 408 1086 610 1086 c 0,3,4
 740 1086 740 1086 821 1010 c 128,-1,5
 902 934 902 934 918 826 c 1,6,-1
 812 796 l 1,7,8
 794 876 794 876 737 930 c 128,-1,9
 680 984 680 984 594 984 c 0,10,11
 448 984 448 984 339 854 c 128,-1,12
 230 724 230 724 196 526 c 0,13,14
 162 316 162 316 232 191 c 128,-1,15
 302 66 302 66 442 66 c 0,16,17
 534 66 534 66 620 126 c 128,-1,18
 706 186 706 186 752 268 c 1,19,-1
 846 234 l 1,20,21
 786 122 786 122 672 43 c 128,-1,22
 558 -36 558 -36 426 -36 c 0,23,24
 230 -36 230 -36 134 117 c 128,-1,25
 38 270 38 270 80 526 c 0,0,1
EndSplineSet
EndChar

StartChar: d
Encoding: 100 100 71
Width: 1098
GlyphClass: 2
Flags: W
LayerCount: 2
Fore
SplineSet
80 528 m 0,0,1
 124 788 124 788 265 937 c 128,-1,2
 406 1086 406 1086 588 1086 c 0,3,4
 704 1086 704 1086 776 1012 c 128,-1,5
 848 938 848 938 866 838 c 1,6,-1
 980 1528 l 1,7,-1
 1094 1528 l 1,8,-1
 840 0 l 1,9,-1
 732 0 l 1,10,-1
 766 210 l 1,11,12
 710 104 710 104 614 34 c 128,-1,13
 518 -36 518 -36 402 -36 c 0,14,15
 236 -36 236 -36 135 106 c 128,-1,16
 34 248 34 248 80 528 c 0,0,1
198 528 m 0,17,18
 164 318 164 318 229 192 c 128,-1,19
 294 66 294 66 434 66 c 0,20,21
 564 66 564 66 674 190 c 128,-1,22
 784 314 784 314 818 528 c 0,23,24
 852 738 852 738 782 861 c 128,-1,25
 712 984 712 984 584 984 c 0,26,27
 446 984 446 984 339 860 c 128,-1,28
 232 736 232 736 198 528 c 0,17,18
EndSplineSet
EndChar

StartChar: e
Encoding: 101 101 72
Width: 1046
GlyphClass: 2
Flags: W
LayerCount: 2
Fore
SplineSet
82 532 m 0,0,1
 122 778 122 778 271 932 c 128,-1,2
 420 1086 420 1086 618 1086 c 0,3,4
 818 1086 818 1086 909 935 c 128,-1,5
 1000 784 1000 784 962 558 c 0,6,7
 958 534 958 534 948 486 c 1,8,-1
 190 486 l 1,9,10
 162 314 162 314 230 190 c 128,-1,11
 298 66 298 66 456 66 c 0,12,13
 556 66 556 66 645 118 c 128,-1,14
 734 170 734 170 790 254 c 1,15,-1
 882 220 l 1,16,17
 814 108 814 108 700 36 c 128,-1,18
 586 -36 586 -36 438 -36 c 0,19,20
 234 -36 234 -36 137 121 c 128,-1,21
 40 278 40 278 82 532 c 0,0,1
208 580 m 1,22,-1
 850 580 l 1,23,24
 878 748 878 748 812 866 c 128,-1,25
 746 984 746 984 602 984 c 0,26,27
 454 984 454 984 346 863 c 128,-1,28
 238 742 238 742 208 580 c 1,22,-1
EndSplineSet
EndChar

StartChar: f
Encoding: 102 102 73
Width: 626
GlyphClass: 2
Flags: W
LayerCount: 2
Fore
SplineSet
108 948 m 1,0,-1
 126 1050 l 1,1,-1
 304 1050 l 1,2,-1
 334 1230 l 2,3,4
 360 1382 360 1382 444 1455 c 128,-1,5
 528 1528 528 1528 654 1528 c 2,6,-1
 770 1528 l 1,7,-1
 752 1426 l 1,8,-1
 652 1426 l 2,9,10
 482 1426 482 1426 448 1214 c 2,11,-1
 420 1050 l 1,12,-1
 664 1050 l 1,13,-1
 646 948 l 1,14,-1
 404 948 l 1,15,-1
 246 0 l 1,16,-1
 130 0 l 1,17,-1
 288 948 l 1,18,-1
 108 948 l 1,0,-1
EndSplineSet
EndChar

StartChar: g
Encoding: 103 103 74
Width: 1076
GlyphClass: 2
Flags: W
LayerCount: 2
Fore
SplineSet
200 544 m 0,0,1
 168 348 168 348 231 227 c 128,-1,2
 294 106 294 106 430 106 c 0,3,4
 568 106 568 106 667 223 c 128,-1,5
 766 340 766 340 802 548 c 0,6,7
 836 748 836 748 773 866 c 128,-1,8
 710 984 710 984 578 984 c 0,9,10
 438 984 438 984 335 860 c 128,-1,11
 232 736 232 736 200 544 c 0,0,1
84 544 m 0,12,13
 124 788 124 788 260 937 c 128,-1,14
 396 1086 396 1086 580 1086 c 0,15,16
 702 1086 702 1086 767 1016 c 128,-1,17
 832 946 832 946 852 854 c 1,18,-1
 884 1050 l 1,19,-1
 996 1050 l 1,20,-1
 840 108 l 2,21,22
 790 -188 790 -188 669 -333 c 128,-1,23
 548 -478 548 -478 332 -478 c 0,24,25
 98 -478 98 -478 2 -294 c 1,26,-1
 96 -236 l 1,27,28
 192 -378 192 -378 352 -378 c 0,29,30
 500 -378 500 -378 593 -262 c 128,-1,31
 686 -146 686 -146 720 58 c 2,32,-1
 748 228 l 1,33,34
 694 130 694 130 607 66 c 128,-1,35
 520 2 520 2 406 2 c 0,36,37
 218 2 218 2 131 154 c 128,-1,38
 44 306 44 306 84 544 c 0,12,13
EndSplineSet
EndChar

StartChar: h
Encoding: 104 104 75
Width: 1072
GlyphClass: 2
Flags: W
LayerCount: 2
Fore
SplineSet
72 0 m 1,0,-1
 324 1528 l 1,1,-1
 438 1528 l 1,2,-1
 328 864 l 1,3,-1
 332 864 l 1,4,5
 380 952 380 952 480 1019 c 128,-1,6
 580 1086 580 1086 694 1086 c 0,7,8
 1012 1086 1012 1086 946 680 c 2,9,-1
 834 0 l 1,10,-1
 720 0 l 1,11,-1
 830 658 l 2,12,13
 884 984 884 984 656 984 c 0,14,15
 534 984 534 984 423 878 c 128,-1,16
 312 772 312 772 288 630 c 2,17,-1
 184 0 l 1,18,-1
 72 0 l 1,0,-1
EndSplineSet
Substitution2: "'sups' Superscript lookup 5 subtable" uni02B0
Substitution2: "'aalt' Access All Alternates lookup 0 subtable" uni02B0
EndChar

StartChar: i
Encoding: 105 105 76
Width: 502
GlyphClass: 2
Flags: W
LayerCount: 2
Fore
SplineSet
292 1308 m 1,0,-1
 322 1492 l 1,1,-1
 486 1492 l 1,2,-1
 456 1308 l 1,3,-1
 292 1308 l 1,0,-1
102 0 m 1,4,-1
 276 1050 l 1,5,-1
 390 1050 l 1,6,-1
 216 0 l 1,7,-1
 102 0 l 1,4,-1
EndSplineSet
EndChar

StartChar: j
Encoding: 106 106 77
Width: 518
GlyphClass: 2
Flags: W
LayerCount: 2
Fore
SplineSet
306 1308 m 1,0,-1
 336 1492 l 1,1,-1
 504 1492 l 1,2,-1
 472 1308 l 1,3,-1
 306 1308 l 1,0,-1
-168 -354 m 1,4,-1
 -120 -354 l 2,5,6
 58 -354 58 -354 102 -98 c 2,7,-1
 292 1050 l 1,8,-1
 404 1050 l 1,9,-1
 212 -106 l 2,10,11
 184 -276 184 -276 98 -366 c 128,-1,12
 12 -456 12 -456 -118 -456 c 2,13,-1
 -184 -456 l 1,14,-1
 -168 -354 l 1,4,-1
EndSplineSet
Substitution2: "'sups' Superscript lookup 5 subtable" uni02B2
Substitution2: "'aalt' Access All Alternates lookup 0 subtable" uni02B2
EndChar

StartChar: k
Encoding: 107 107 78
Width: 946
GlyphClass: 2
Flags: W
LayerCount: 2
Fore
SplineSet
74 0 m 1,0,-1
 326 1528 l 1,1,-1
 442 1528 l 1,2,-1
 270 486 l 1,3,-1
 836 1050 l 1,4,-1
 988 1050 l 1,5,-1
 566 634 l 1,6,-1
 860 0 l 1,7,-1
 718 0 l 1,8,-1
 474 546 l 1,9,-1
 242 320 l 1,10,-1
 190 0 l 1,11,-1
 74 0 l 1,0,-1
EndSplineSet
EndChar

StartChar: l
Encoding: 108 108 79
Width: 462
GlyphClass: 2
Flags: W
LayerCount: 2
Fore
SplineSet
80 0 m 1,0,-1
 334 1528 l 1,1,-1
 446 1528 l 1,2,-1
 194 0 l 1,3,-1
 80 0 l 1,0,-1
EndSplineSet
Substitution2: "'sups' Superscript lookup 5 subtable" uni02E1
Substitution2: "'aalt' Access All Alternates lookup 0 subtable" uni02E1
EndChar

StartChar: m
Encoding: 109 109 80
Width: 1582
GlyphClass: 2
Flags: W
LayerCount: 2
Fore
SplineSet
60 0 m 1,0,-1
 234 1050 l 1,1,-1
 348 1050 l 1,2,-1
 318 878 l 1,3,-1
 320 878 l 1,4,5
 360 956 360 956 447 1021 c 128,-1,6
 534 1086 534 1086 650 1086 c 0,7,8
 850 1086 850 1086 870 836 c 1,9,10
 882 862 882 862 908 898 c 128,-1,11
 934 934 934 934 979 979 c 128,-1,12
 1024 1024 1024 1024 1094 1055 c 128,-1,13
 1164 1086 1164 1086 1242 1086 c 0,14,15
 1392 1086 1392 1086 1441 982 c 128,-1,16
 1490 878 1490 878 1458 680 c 2,17,-1
 1346 0 l 1,18,-1
 1230 0 l 1,19,-1
 1342 668 l 2,20,21
 1368 824 1368 824 1340 904 c 128,-1,22
 1312 984 1312 984 1198 984 c 256,23,24
 1084 984 1084 984 988 884 c 128,-1,25
 892 784 892 784 866 628 c 2,26,-1
 762 0 l 1,27,-1
 646 0 l 1,28,-1
 758 668 l 2,29,30
 810 984 810 984 610 984 c 0,31,32
 488 984 488 984 398 887 c 128,-1,33
 308 790 308 790 282 638 c 2,34,-1
 178 0 l 1,35,-1
 60 0 l 1,0,-1
EndSplineSet
EndChar

StartChar: n
Encoding: 110 110 81
Width: 1062
GlyphClass: 2
Flags: W
LayerCount: 2
Fore
SplineSet
60 0 m 1,0,-1
 234 1050 l 1,1,-1
 348 1050 l 1,2,-1
 314 852 l 1,3,-1
 316 852 l 1,4,5
 350 932 350 932 455 1009 c 128,-1,6
 560 1086 560 1086 688 1086 c 0,7,8
 822 1086 822 1086 899 995 c 128,-1,9
 976 904 976 904 938 680 c 2,10,-1
 826 0 l 1,11,-1
 710 0 l 1,12,-1
 818 658 l 2,13,14
 872 984 872 984 646 984 c 0,15,16
 524 984 524 984 415 880 c 128,-1,17
 306 776 306 776 282 634 c 2,18,-1
 178 0 l 1,19,-1
 60 0 l 1,0,-1
EndSplineSet
Substitution2: "'sups' Superscript lookup 5 subtable" uni207F
Substitution2: "'aalt' Access All Alternates lookup 0 subtable" uni207F
EndChar

StartChar: o
Encoding: 111 111 82
Width: 1056
GlyphClass: 2
Flags: W
LayerCount: 2
Fore
SplineSet
196 526 m 0,0,1
 162 318 162 318 233 192 c 128,-1,2
 304 66 304 66 446 66 c 0,3,4
 586 66 586 66 700 193 c 128,-1,5
 814 320 814 320 848 526 c 0,6,7
 882 736 882 736 809 860 c 128,-1,8
 736 984 736 984 598 984 c 256,9,10
 460 984 460 984 345 860 c 128,-1,11
 230 736 230 736 196 526 c 0,0,1
80 526 m 0,12,13
 120 768 120 768 263 927 c 128,-1,14
 406 1086 406 1086 614 1086 c 0,15,16
 820 1086 820 1086 913 927 c 128,-1,17
 1006 768 1006 768 966 526 c 0,18,19
 942 382 942 382 877 259 c 128,-1,20
 812 136 812 136 694 50 c 128,-1,21
 576 -36 576 -36 428 -36 c 256,22,23
 280 -36 280 -36 192 50 c 128,-1,24
 104 136 104 136 80 259 c 128,-1,25
 56 382 56 382 80 526 c 0,12,13
EndSplineSet
Substitution2: "Single Substitution lookup 12 subtable" ordmasculine
EndChar

StartChar: p
Encoding: 112 112 83
Width: 1098
GlyphClass: 2
Flags: W
LayerCount: 2
Fore
SplineSet
272 528 m 0,0,1
 238 320 238 320 299 193 c 128,-1,2
 360 66 360 66 502 66 c 0,3,4
 636 66 636 66 746 190 c 128,-1,5
 856 314 856 314 892 528 c 0,6,7
 926 728 926 728 863 856 c 128,-1,8
 800 984 800 984 654 984 c 0,9,10
 522 984 522 984 413 855 c 128,-1,11
 304 726 304 726 272 528 c 0,0,1
-6 -470 m 1,12,-1
 246 1050 l 1,13,-1
 356 1050 l 1,14,-1
 320 836 l 1,15,16
 380 950 380 950 477 1018 c 128,-1,17
 574 1086 574 1086 684 1086 c 0,18,19
 868 1086 868 1086 958 934 c 128,-1,20
 1048 782 1048 782 1006 528 c 0,21,22
 962 258 962 258 816 111 c 128,-1,23
 670 -36 670 -36 498 -36 c 0,24,25
 382 -36 382 -36 311 32 c 128,-1,26
 240 100 240 100 218 206 c 1,27,-1
 106 -470 l 1,28,-1
 -6 -470 l 1,12,-1
EndSplineSet
EndChar

StartChar: q
Encoding: 113 113 84
Width: 1096
GlyphClass: 2
Flags: W
LayerCount: 2
Fore
SplineSet
198 528 m 0,0,1
 162 316 162 316 230 191 c 128,-1,2
 298 66 298 66 432 66 c 0,3,4
 570 66 570 66 675 194 c 128,-1,5
 780 322 780 322 814 528 c 0,6,7
 848 730 848 730 783 857 c 128,-1,8
 718 984 718 984 584 984 c 0,9,10
 436 984 436 984 334 856 c 128,-1,11
 232 728 232 728 198 528 c 0,0,1
80 528 m 0,12,13
 122 782 122 782 263 934 c 128,-1,14
 404 1086 404 1086 588 1086 c 0,15,16
 694 1086 694 1086 770 1020 c 128,-1,17
 846 954 846 954 870 838 c 1,18,-1
 906 1050 l 1,19,-1
 1014 1050 l 1,20,-1
 762 -470 l 1,21,-1
 650 -470 l 1,22,-1
 762 208 l 1,23,24
 704 102 704 102 610 33 c 128,-1,25
 516 -36 516 -36 402 -36 c 0,26,27
 230 -36 230 -36 132 110 c 128,-1,28
 34 256 34 256 80 528 c 0,12,13
EndSplineSet
EndChar

StartChar: r
Encoding: 114 114 85
Width: 692
GlyphClass: 2
Flags: W
LayerCount: 2
Fore
SplineSet
60 0 m 1,0,-1
 234 1050 l 1,1,-1
 346 1050 l 1,2,-1
 318 884 l 1,3,4
 360 960 360 960 442 1023 c 128,-1,5
 524 1086 524 1086 638 1086 c 0,6,7
 726 1086 726 1086 778 1058 c 1,8,-1
 760 946 l 1,9,10
 690 976 690 976 620 976 c 0,11,12
 488 976 488 976 396 872 c 128,-1,13
 304 768 304 768 276 602 c 2,14,-1
 178 0 l 1,15,-1
 60 0 l 1,0,-1
EndSplineSet
Substitution2: "'sups' Superscript lookup 5 subtable" uni02B3
Substitution2: "'aalt' Access All Alternates lookup 0 subtable" uni02B3
EndChar

StartChar: s
Encoding: 115 115 86
Width: 922
GlyphClass: 2
Flags: W
LayerCount: 2
Fore
SplineSet
12 196 m 1,0,-1
 108 250 l 1,1,2
 190 66 190 66 384 66 c 0,3,4
 504 66 504 66 586 116 c 128,-1,5
 668 166 668 166 682 254 c 0,6,7
 688 294 688 294 676 325 c 128,-1,8
 664 356 664 356 646 377 c 128,-1,9
 628 398 628 398 580 421 c 128,-1,10
 532 444 532 444 503 455 c 128,-1,11
 474 466 474 466 402 490 c 0,12,13
 340 512 340 512 296 533 c 128,-1,14
 252 554 252 554 208 590 c 128,-1,15
 164 626 164 626 146 678 c 128,-1,16
 128 730 128 730 140 798 c 0,17,18
 162 928 162 928 274 1007 c 128,-1,19
 386 1086 386 1086 552 1086 c 0,20,21
 672 1086 672 1086 760 1021 c 128,-1,22
 848 956 848 956 876 866 c 1,23,-1
 788 812 l 1,24,25
 760 884 760 884 693 934 c 128,-1,26
 626 984 626 984 536 984 c 0,27,28
 416 984 416 984 342 933 c 128,-1,29
 268 882 268 882 254 796 c 0,30,31
 244 732 244 732 281 684 c 128,-1,32
 318 636 318 636 366 613 c 128,-1,33
 414 590 414 590 494 564 c 0,34,35
 564 542 564 542 612 521 c 128,-1,36
 660 500 660 500 713 463 c 128,-1,37
 766 426 766 426 788 373 c 128,-1,38
 810 320 810 320 800 254 c 0,39,40
 780 130 780 130 664 47 c 128,-1,41
 548 -36 548 -36 366 -36 c 0,42,43
 238 -36 238 -36 146 25 c 128,-1,44
 54 86 54 86 12 196 c 1,0,-1
EndSplineSet
Substitution2: "'hist' Historical Forms lookup 11 subtable" longs
Substitution2: "'sups' Superscript lookup 5 subtable" uni02E2
AlternateSubs2: "'aalt' Access All Alternates lookup 1 subtable" uni02E2 longs
EndChar

StartChar: t
Encoding: 116 116 87
Width: 672
GlyphClass: 2
Flags: W
LayerCount: 2
Fore
SplineSet
104 948 m 1,0,-1
 122 1050 l 1,1,-1
 304 1050 l 1,2,-1
 362 1396 l 1,3,-1
 478 1396 l 1,4,-1
 420 1050 l 1,5,-1
 686 1050 l 1,6,-1
 670 948 l 1,7,-1
 404 948 l 1,8,-1
 296 298 l 2,9,10
 278 194 278 194 308 149 c 128,-1,11
 338 104 338 104 418 104 c 0,12,13
 422 104 422 104 426 104 c 2,14,-1
 530 106 l 1,15,-1
 512 0 l 1,16,-1
 394 0 l 2,17,18
 390 0 390 0 386 0 c 0,19,20
 264 0 264 0 209 69 c 128,-1,21
 154 138 154 138 178 286 c 2,22,-1
 288 948 l 1,23,-1
 104 948 l 1,0,-1
EndSplineSet
EndChar

StartChar: u
Encoding: 117 117 88
Width: 1056
GlyphClass: 2
Flags: W
LayerCount: 2
Fore
SplineSet
112 366 m 2,0,-1
 226 1050 l 1,1,-1
 340 1050 l 1,2,-1
 232 396 l 2,3,4
 178 66 178 66 412 66 c 0,5,6
 554 66 554 66 650 180 c 128,-1,7
 746 294 746 294 770 450 c 2,8,-1
 870 1050 l 1,9,-1
 984 1050 l 1,10,-1
 810 0 l 1,11,-1
 698 0 l 1,12,-1
 730 188 l 1,13,14
 720 158 720 158 693 123 c 128,-1,15
 666 88 666 88 622 50 c 128,-1,16
 578 12 578 12 512 -12 c 128,-1,17
 446 -36 446 -36 368 -36 c 0,18,19
 220 -36 220 -36 150 69 c 128,-1,20
 80 174 80 174 112 366 c 2,0,-1
EndSplineSet
EndChar

StartChar: v
Encoding: 118 118 89
Width: 928
GlyphClass: 2
Flags: W
LayerCount: 2
Fore
SplineSet
100 1050 m 1,0,-1
 230 1050 l 1,1,-1
 350 358 l 1,2,-1
 388 106 l 1,3,-1
 392 106 l 1,4,5
 412 152 412 152 455 237 c 128,-1,6
 498 322 498 322 516 358 c 2,7,-1
 860 1050 l 1,8,-1
 990 1050 l 1,9,-1
 442 0 l 1,10,-1
 300 0 l 1,11,-1
 100 1050 l 1,0,-1
EndSplineSet
EndChar

StartChar: w
Encoding: 119 119 90
Width: 1342
GlyphClass: 2
Flags: W
LayerCount: 2
Fore
SplineSet
98 1050 m 1,0,-1
 228 1050 l 1,1,-1
 280 356 l 2,2,3
 288 224 288 224 292 112 c 1,4,-1
 300 112 l 1,5,6
 324 174 324 174 396 356 c 2,7,-1
 684 1050 l 1,8,-1
 824 1050 l 1,9,-1
 880 350 l 2,10,11
 882 334 882 334 889 249 c 128,-1,12
 896 164 896 164 896 112 c 1,13,-1
 902 112 l 1,14,15
 916 150 916 150 948 230 c 128,-1,16
 980 310 980 310 998 356 c 2,17,-1
 1278 1050 l 1,18,-1
 1408 1050 l 1,19,-1
 954 0 l 1,20,-1
 808 0 l 1,21,-1
 748 674 l 2,22,23
 738 798 738 798 734 920 c 1,24,-1
 728 920 l 1,25,26
 680 790 680 790 632 674 c 2,27,-1
 352 0 l 1,28,-1
 204 0 l 1,29,-1
 98 1050 l 1,0,-1
EndSplineSet
Substitution2: "'sups' Superscript lookup 5 subtable" uni02B7
Substitution2: "'aalt' Access All Alternates lookup 0 subtable" uni02B7
EndChar

StartChar: x
Encoding: 120 120 91
Width: 880
GlyphClass: 2
Flags: W
LayerCount: 2
Fore
SplineSet
-84 0 m 1,0,-1
 364 546 l 1,1,-1
 108 1050 l 1,2,-1
 246 1050 l 1,3,-1
 388 764 l 2,4,5
 396 748 396 748 448 636 c 1,6,-1
 454 636 l 1,7,8
 470 658 470 658 506 704 c 128,-1,9
 542 750 542 750 554 764 c 2,10,-1
 788 1050 l 1,11,-1
 926 1050 l 1,12,-1
 506 546 l 1,13,-1
 776 0 l 1,14,-1
 638 0 l 1,15,-1
 482 330 l 2,16,17
 428 446 428 446 424 454 c 1,18,-1
 418 454 l 1,19,20
 400 430 400 430 365 388 c 128,-1,21
 330 346 330 346 318 330 c 2,22,-1
 54 0 l 1,23,-1
 -84 0 l 1,0,-1
EndSplineSet
Substitution2: "'sups' Superscript lookup 5 subtable" uni02E3
Substitution2: "'aalt' Access All Alternates lookup 0 subtable" uni02E3
EndChar

StartChar: y
Encoding: 121 121 92
Width: 918
GlyphClass: 2
Flags: W
LayerCount: 2
Fore
SplineSet
98 1050 m 1,0,-1
 232 1050 l 1,1,-1
 348 388 l 2,2,3
 370 258 370 258 390 124 c 1,4,-1
 396 124 l 1,5,6
 420 174 420 174 464 264 c 128,-1,7
 508 354 508 354 524 390 c 2,8,-1
 848 1050 l 1,9,-1
 982 1050 l 1,10,-1
 344 -190 l 2,11,12
 266 -344 266 -344 184 -407 c 128,-1,13
 102 -470 102 -470 6 -470 c 2,14,-1
 -48 -470 l 1,15,-1
 -30 -368 l 1,16,-1
 4 -368 l 2,17,18
 72 -368 72 -368 131 -321 c 128,-1,19
 190 -274 190 -274 248 -156 c 2,20,-1
 310 -28 l 1,21,-1
 98 1050 l 1,0,-1
EndSplineSet
Substitution2: "'sups' Superscript lookup 5 subtable" uni02B8
Substitution2: "'aalt' Access All Alternates lookup 0 subtable" uni02B8
EndChar

StartChar: z
Encoding: 122 122 93
Width: 898
GlyphClass: 2
Flags: W
LayerCount: 2
Fore
SplineSet
-28 0 m 1,0,-1
 -14 84 l 1,1,-1
 730 948 l 1,2,-1
 180 948 l 1,3,-1
 196 1050 l 1,4,-1
 898 1050 l 1,5,-1
 884 970 l 1,6,-1
 136 104 l 1,7,-1
 758 104 l 1,8,-1
 742 0 l 1,9,-1
 -28 0 l 1,0,-1
EndSplineSet
EndChar

StartChar: braceleft
Encoding: 123 123 94
Width: 866
GlyphClass: 2
Flags: W
LayerCount: 2
Fore
SplineSet
148 646 m 1,0,-1
 164 742 l 1,1,-1
 214 742 l 2,2,3
 370 742 370 742 418 1030 c 2,4,-1
 484 1420 l 2,5,6
 504 1538 504 1538 577 1603 c 128,-1,7
 650 1668 650 1668 742 1668 c 2,8,-1
 890 1668 l 1,9,-1
 872 1566 l 1,10,-1
 746 1566 l 2,11,12
 696 1566 696 1566 655 1524 c 128,-1,13
 614 1482 614 1482 600 1402 c 2,14,-1
 534 1008 l 2,15,16
 512 880 512 880 464 809 c 128,-1,17
 416 738 416 738 338 694 c 1,18,19
 472 626 472 626 434 402 c 2,20,-1
 372 20 l 2,21,22
 358 -70 358 -70 383 -115 c 128,-1,23
 408 -160 408 -160 464 -160 c 2,24,-1
 586 -160 l 1,25,-1
 570 -260 l 1,26,-1
 422 -260 l 2,27,28
 332 -260 332 -260 279 -199 c 128,-1,29
 226 -138 226 -138 246 -16 c 2,30,-1
 310 376 l 2,31,32
 332 506 332 506 301 576 c 128,-1,33
 270 646 270 646 198 646 c 2,34,-1
 148 646 l 1,0,-1
EndSplineSet
EndChar

StartChar: bar
Encoding: 124 124 95
Width: 476
GlyphClass: 2
Flags: W
LayerCount: 2
Fore
SplineSet
30 -334 m 1,0,-1
 372 1734 l 1,1,-1
 492 1734 l 1,2,-1
 150 -334 l 1,3,-1
 30 -334 l 1,0,-1
EndSplineSet
EndChar

StartChar: braceright
Encoding: 125 125 96
Width: 866
GlyphClass: 2
Flags: W
LayerCount: 2
Fore
SplineSet
40 -160 m 1,0,-1
 164 -160 l 2,1,2
 286 -160 286 -160 314 20 c 2,3,-1
 378 406 l 2,4,5
 396 520 396 520 451 593 c 128,-1,6
 506 666 506 666 572 694 c 1,7,8
 510 736 510 736 483 806 c 128,-1,9
 456 876 456 876 478 1006 c 2,10,-1
 544 1402 l 2,11,12
 558 1482 558 1482 531 1524 c 128,-1,13
 504 1566 504 1566 452 1566 c 2,14,-1
 326 1566 l 1,15,-1
 342 1668 l 1,16,-1
 492 1668 l 2,17,18
 584 1668 584 1668 635 1603 c 128,-1,19
 686 1538 686 1538 666 1420 c 2,20,-1
 602 1030 l 2,21,22
 578 884 578 884 608 813 c 128,-1,23
 638 742 638 742 710 742 c 2,24,-1
 762 742 l 1,25,-1
 746 646 l 1,26,-1
 694 646 l 2,27,28
 622 646 622 646 568 574 c 128,-1,29
 514 502 514 502 494 380 c 2,30,-1
 428 -16 l 2,31,32
 408 -138 408 -138 334 -199 c 128,-1,33
 260 -260 260 -260 170 -260 c 2,34,-1
 24 -260 l 1,35,-1
 40 -160 l 1,0,-1
EndSplineSet
EndChar

StartChar: asciitilde
Encoding: 126 126 97
Width: 1450
GlyphClass: 2
Flags: W
LayerCount: 2
Fore
SplineSet
142 622 m 1,0,1
 312 888 312 888 542 888 c 0,2,3
 606 888 606 888 658 861 c 128,-1,4
 710 834 710 834 745 795 c 128,-1,5
 780 756 780 756 813 718 c 128,-1,6
 846 680 846 680 887 653 c 128,-1,7
 928 626 928 626 978 626 c 0,8,9
 1008 626 1008 626 1034 633 c 128,-1,10
 1060 640 1060 640 1081 649 c 128,-1,11
 1102 658 1102 658 1125 676 c 128,-1,12
 1148 694 1148 694 1161 706 c 128,-1,13
 1174 718 1174 718 1194 743 c 128,-1,14
 1214 768 1214 768 1222 778 c 128,-1,15
 1230 788 1230 788 1248 815 c 128,-1,16
 1266 842 1266 842 1268 846 c 1,17,-1
 1360 794 l 1,18,19
 1176 524 1176 524 962 524 c 0,20,21
 882 524 882 524 818 565 c 128,-1,22
 754 606 754 606 720 655 c 128,-1,23
 686 704 686 704 634 745 c 128,-1,24
 582 786 582 786 524 786 c 0,25,26
 376 786 376 786 232 570 c 1,27,-1
 142 622 l 1,0,1
EndSplineSet
EndChar

StartChar: exclamdown
Encoding: 161 161 99
Width: 582
GlyphClass: 2
Flags: W
LayerCount: 2
Fore
SplineSet
56 -428 m 1,0,-1
 248 628 l 1,1,-1
 358 628 l 1,2,-1
 200 -428 l 1,3,-1
 56 -428 l 1,0,-1
230 852 m 1,4,-1
 264 1058 l 1,5,-1
 482 1058 l 1,6,-1
 448 852 l 1,7,-1
 230 852 l 1,4,-1
EndSplineSet
EndChar

StartChar: cent
Encoding: 162 162 100
Width: 972
GlyphClass: 2
Flags: W
LayerCount: 2
Fore
SplineSet
80 526 m 0,0,1
 118 752 118 752 250 910 c 128,-1,2
 382 1068 382 1068 574 1082 c 1,3,-1
 600 1240 l 1,4,-1
 714 1240 l 1,5,-1
 688 1082 l 1,6,7
 798 1064 798 1064 862 992 c 128,-1,8
 926 920 926 920 942 828 c 1,9,-1
 836 796 l 1,10,11
 816 876 816 876 758 930 c 128,-1,12
 700 984 700 984 612 984 c 0,13,14
 458 984 458 984 347 855 c 128,-1,15
 236 726 236 726 202 526 c 0,16,17
 168 320 168 320 240 193 c 128,-1,18
 312 66 312 66 460 66 c 0,19,20
 550 66 550 66 637 126 c 128,-1,21
 724 186 724 186 774 268 c 1,22,-1
 870 234 l 1,23,24
 812 138 812 138 719 65 c 128,-1,25
 626 -8 626 -8 504 -30 c 1,26,-1
 476 -194 l 1,27,-1
 364 -194 l 1,28,-1
 390 -32 l 1,29,30
 214 -18 214 -18 127 133 c 128,-1,31
 40 284 40 284 80 526 c 0,0,1
EndSplineSet
EndChar

StartChar: sterling
Encoding: 163 163 101
Width: 1118
GlyphClass: 2
Flags: W
LayerCount: 2
Fore
SplineSet
88 676 m 1,0,-1
 104 784 l 1,1,-1
 324 784 l 1,2,-1
 384 1138 l 2,3,4
 414 1316 414 1316 534 1412 c 128,-1,5
 654 1508 654 1508 828 1508 c 0,6,7
 950 1508 950 1508 1030 1446 c 128,-1,8
 1110 1384 1110 1384 1138 1300 c 1,9,-1
 1044 1248 l 1,10,11
 1016 1312 1016 1312 956 1355 c 128,-1,12
 896 1398 896 1398 814 1398 c 0,13,14
 692 1398 692 1398 609 1330 c 128,-1,15
 526 1262 526 1262 502 1128 c 2,16,-1
 446 784 l 1,17,-1
 900 784 l 1,18,-1
 882 676 l 1,19,-1
 428 676 l 1,20,-1
 384 414 l 2,21,22
 348 198 348 198 222 108 c 1,23,24
 350 134 350 134 424 134 c 0,25,26
 484 134 484 134 576 103 c 128,-1,27
 668 72 668 72 730 72 c 0,28,29
 874 72 874 72 992 134 c 1,30,-1
 1012 32 l 1,31,32
 872 -36 872 -36 708 -36 c 0,33,34
 648 -36 648 -36 541 -4 c 128,-1,35
 434 28 434 28 372 28 c 0,36,37
 308 28 308 28 217 14 c 128,-1,38
 126 0 126 0 70 -12 c 2,39,-1
 12 -26 l 1,40,-1
 -8 68 l 1,41,42
 106 100 106 100 174 194 c 128,-1,43
 242 288 242 288 262 410 c 2,44,-1
 306 676 l 1,45,-1
 88 676 l 1,0,-1
EndSplineSet
EndChar

StartChar: currency
Encoding: 164 164 102
Width: 1226
GlyphClass: 2
Flags: W
LayerCount: 2
Fore
SplineSet
10 282 m 1,0,-1
 258 486 l 1,1,2
 188 588 188 588 214 736 c 0,3,4
 238 882 238 882 340 986 c 1,5,-1
 160 1188 l 1,6,-1
 254 1268 l 1,7,-1
 430 1066 l 1,8,9
 564 1158 564 1158 712 1158 c 0,10,11
 864 1158 864 1158 966 1066 c 1,12,-1
 1204 1266 l 1,13,-1
 1274 1186 l 1,14,-1
 1030 986 l 1,15,16
 1100 882 1100 882 1074 736 c 0,17,18
 1050 594 1050 594 946 486 c 1,19,-1
 1124 282 l 1,20,-1
 1030 202 l 1,21,-1
 854 404 l 1,22,23
 728 312 728 312 572 312 c 0,24,25
 424 312 424 312 322 404 c 1,26,-1
 78 204 l 1,27,-1
 10 282 l 1,0,-1
326 736 m 0,28,29
 304 606 304 606 379 513 c 128,-1,30
 454 420 454 420 590 420 c 256,31,32
 728 420 728 420 834 513 c 128,-1,33
 940 606 940 606 962 736 c 0,34,35
 984 868 984 868 907 960 c 128,-1,36
 830 1052 830 1052 696 1052 c 0,37,38
 558 1052 558 1052 453 960 c 128,-1,39
 348 868 348 868 326 736 c 0,28,29
EndSplineSet
EndChar

StartChar: yen
Encoding: 165 165 103
Width: 1134
GlyphClass: 2
Flags: W
LayerCount: 2
Fore
SplineSet
144 1470 m 1,0,-1
 292 1470 l 1,1,-1
 496 1040 l 2,2,3
 574 864 574 864 604 792 c 1,4,-1
 608 792 l 1,5,6
 710 924 710 924 798 1038 c 2,7,-1
 1144 1470 l 1,8,-1
 1292 1470 l 1,9,-1
 730 776 l 1,10,-1
 1050 776 l 1,11,-1
 1034 682 l 1,12,-1
 650 682 l 1,13,-1
 614 458 l 1,14,-1
 998 458 l 1,15,-1
 982 364 l 1,16,-1
 598 364 l 1,17,-1
 538 0 l 1,18,-1
 414 0 l 1,19,-1
 474 364 l 1,20,-1
 84 364 l 1,21,-1
 100 458 l 1,22,-1
 490 458 l 1,23,-1
 526 682 l 1,24,-1
 136 682 l 1,25,-1
 152 776 l 1,26,-1
 478 776 l 1,27,-1
 144 1470 l 1,0,-1
EndSplineSet
EndChar

StartChar: brokenbar
Encoding: 166 166 104
Width: 476
GlyphClass: 2
Flags: W
LayerCount: 2
Fore
SplineSet
238 930 m 1,0,-1
 372 1734 l 1,1,-1
 492 1734 l 1,2,-1
 360 930 l 1,3,-1
 238 930 l 1,0,-1
30 -332 m 1,4,-1
 162 466 l 1,5,-1
 284 466 l 1,6,-1
 150 -332 l 1,7,-1
 30 -332 l 1,4,-1
EndSplineSet
EndChar

StartChar: section
Encoding: 167 167 105
Width: 1088
GlyphClass: 2
Flags: W
LayerCount: 2
Fore
SplineSet
40 84 m 1,0,-1
 134 146 l 1,1,2
 166 78 166 78 240 36 c 128,-1,3
 314 -6 314 -6 410 -6 c 0,4,5
 534 -6 534 -6 606 38 c 128,-1,6
 678 82 678 82 692 158 c 0,7,8
 702 220 702 220 671 257 c 128,-1,9
 640 294 640 294 556 334 c 2,10,-1
 360 430 l 2,11,12
 248 484 248 484 200 550 c 128,-1,13
 152 616 152 616 168 710 c 0,14,15
 180 780 180 780 226 843 c 128,-1,16
 272 906 272 906 312 937 c 128,-1,17
 352 968 352 968 418 1010 c 1,18,19
 294 1116 294 1116 314 1232 c 0,20,21
 334 1358 334 1358 443 1432 c 128,-1,22
 552 1506 552 1506 738 1506 c 0,23,24
 862 1506 862 1506 954 1451 c 128,-1,25
 1046 1396 1046 1396 1088 1306 c 1,26,-1
 996 1248 l 1,27,28
 902 1400 902 1400 716 1400 c 0,29,30
 586 1400 586 1400 518 1353 c 128,-1,31
 450 1306 450 1306 438 1234 c 0,32,33
 434 1212 434 1212 436 1192 c 128,-1,34
 438 1172 438 1172 449 1154 c 128,-1,35
 460 1136 460 1136 469 1121 c 128,-1,36
 478 1106 478 1106 501 1089 c 128,-1,37
 524 1072 524 1072 538 1062 c 128,-1,38
 552 1052 552 1052 581 1035 c 128,-1,39
 610 1018 610 1018 625 1010 c 128,-1,40
 640 1002 640 1002 676 984 c 128,-1,41
 712 966 712 966 726 958 c 0,42,43
 872 880 872 880 932 814 c 128,-1,44
 992 748 992 748 974 640 c 0,45,46
 948 482 948 482 758 342 c 1,47,48
 832 270 832 270 814 158 c 0,49,50
 794 38 794 38 689 -38 c 128,-1,51
 584 -114 584 -114 394 -114 c 0,52,53
 262 -114 262 -114 171 -57 c 128,-1,54
 80 0 80 0 40 84 c 1,0,-1
294 718 m 0,55,56
 282 640 282 640 316 602 c 128,-1,57
 350 564 350 564 458 510 c 2,58,-1
 672 402 l 1,59,60
 830 516 830 516 852 640 c 0,61,62
 862 706 862 706 820 749 c 128,-1,63
 778 792 778 792 666 856 c 2,64,-1
 502 952 l 1,65,66
 440 912 440 912 405 886 c 128,-1,67
 370 860 370 860 336 814 c 128,-1,68
 302 768 302 768 294 718 c 0,55,56
EndSplineSet
EndChar

StartChar: dieresis
Encoding: 168 168 106
Width: 884
GlyphClass: 2
Flags: W
LayerCount: 2
Fore
SplineSet
306 1290 m 1,0,-1
 334 1470 l 1,1,-1
 512 1470 l 1,2,-1
 482 1290 l 1,3,-1
 306 1290 l 1,0,-1
646 1290 m 1,4,-1
 676 1470 l 1,5,-1
 850 1470 l 1,6,-1
 820 1290 l 1,7,-1
 646 1290 l 1,4,-1
EndSplineSet
EndChar

StartChar: copyright
Encoding: 169 169 107
Width: 1720
GlyphClass: 2
Flags: W
LayerCount: 2
Fore
SplineSet
534 744 m 0,0,1
 570 956 570 956 694 1088 c 128,-1,2
 818 1220 818 1220 996 1220 c 0,3,4
 1202 1220 1202 1220 1266 1002 c 1,5,-1
 1164 968 l 1,6,7
 1110 1120 1110 1120 980 1120 c 0,8,9
 854 1120 854 1120 762 1016 c 128,-1,10
 670 912 670 912 644 744 c 0,11,12
 616 572 616 572 674 470 c 128,-1,13
 732 368 732 368 856 368 c 0,14,15
 934 368 934 368 1002 415 c 128,-1,16
 1070 462 1070 462 1112 532 c 1,17,-1
 1204 498 l 1,18,19
 1150 404 1150 404 1053 336 c 128,-1,20
 956 268 956 268 838 268 c 0,21,22
 668 268 668 268 583 397 c 128,-1,23
 498 526 498 526 534 744 c 0,0,1
126 748 m 256,24,25
 182 1090 182 1090 436 1310 c 128,-1,26
 690 1530 690 1530 1020 1530 c 0,27,28
 1354 1530 1354 1530 1535 1310 c 128,-1,29
 1716 1090 1716 1090 1660 748 c 0,30,31
 1604 414 1604 414 1349 190 c 128,-1,32
 1094 -34 1094 -34 762 -34 c 0,33,34
 432 -34 432 -34 251 186 c 128,-1,35
 70 406 70 406 126 748 c 256,24,25
218 748 m 0,36,37
 168 452 168 452 322 252 c 128,-1,38
 476 52 476 52 776 52 c 0,39,40
 1072 52 1072 52 1295 250 c 128,-1,41
 1518 448 1518 448 1566 748 c 0,42,43
 1616 1046 1616 1046 1459 1245 c 128,-1,44
 1302 1444 1302 1444 1006 1444 c 0,45,46
 714 1444 714 1444 491 1247 c 128,-1,47
 268 1050 268 1050 218 748 c 0,36,37
EndSplineSet
EndChar

StartChar: ordfeminine
Encoding: 170 170 108
Width: 750
GlyphClass: 2
Flags: W
LayerCount: 2
Fore
SplineSet
90 672 m 1,0,-1
 104 760 l 1,1,-1
 712 760 l 1,2,-1
 696 672 l 1,3,-1
 90 672 l 1,0,-1
244 1096 m 0,4,5
 236 1046 236 1046 272 1008 c 128,-1,6
 308 970 308 970 386 970 c 0,7,8
 482 970 482 970 562 1033 c 128,-1,9
 642 1096 642 1096 658 1196 c 2,10,-1
 676 1300 l 1,11,12
 640 1290 640 1290 575 1279 c 128,-1,13
 510 1268 510 1268 462 1259 c 128,-1,14
 414 1250 414 1250 364 1233 c 128,-1,15
 314 1216 314 1216 283 1182 c 128,-1,16
 252 1148 252 1148 244 1096 c 0,4,5
146 1090 m 0,17,18
 158 1164 158 1164 201 1215 c 128,-1,19
 244 1266 244 1266 309 1292 c 128,-1,20
 374 1318 374 1318 435 1331 c 128,-1,21
 496 1344 496 1344 573 1358 c 128,-1,22
 650 1372 650 1372 690 1384 c 1,23,-1
 694 1418 l 2,24,25
 706 1490 706 1490 666 1536 c 128,-1,26
 626 1582 626 1582 536 1582 c 0,27,28
 460 1582 460 1582 391 1542 c 128,-1,29
 322 1502 322 1502 294 1466 c 1,30,-1
 238 1518 l 1,31,32
 280 1570 280 1570 367 1617 c 128,-1,33
 454 1664 454 1664 548 1664 c 0,34,35
 696 1664 696 1664 751 1589 c 128,-1,36
 806 1514 806 1514 786 1386 c 2,37,-1
 706 910 l 1,38,-1
 614 910 l 1,39,-1
 632 1016 l 1,40,41
 590 960 590 960 519 923 c 128,-1,42
 448 886 448 886 364 886 c 0,43,44
 246 886 246 886 189 943 c 128,-1,45
 132 1000 132 1000 146 1090 c 0,17,18
EndSplineSet
EndChar

StartChar: guillemotleft
Encoding: 171 171 109
Width: 862
GlyphClass: 2
Flags: W
LayerCount: 2
Fore
SplineSet
56 500 m 1,0,-1
 442 946 l 1,1,-1
 520 886 l 1,2,-1
 190 500 l 1,3,-1
 390 114 l 1,4,-1
 292 52 l 1,5,-1
 56 500 l 1,0,-1
390 500 m 1,6,-1
 774 936 l 1,7,-1
 848 872 l 1,8,-1
 522 500 l 1,9,-1
 724 126 l 1,10,-1
 626 62 l 1,11,-1
 390 500 l 1,6,-1
EndSplineSet
EndChar

StartChar: logicalnot
Encoding: 172 172 110
Width: 1052
GlyphClass: 2
Flags: W
LayerCount: 2
Fore
SplineSet
104 646 m 1,0,-1
 122 754 l 1,1,-1
 996 754 l 1,2,-1
 912 252 l 1,3,-1
 798 252 l 1,4,-1
 862 646 l 1,5,-1
 104 646 l 1,0,-1
EndSplineSet
EndChar

StartChar: uni00AD
Encoding: 173 173 111
Width: 1080
GlyphClass: 2
Flags: W
LayerCount: 2
Fore
SplineSet
128 672 m 1,0,-1
 146 780 l 1,1,-1
 1004 780 l 1,2,-1
 986 672 l 1,3,-1
 128 672 l 1,0,-1
EndSplineSet
EndChar

StartChar: registered
Encoding: 174 174 112
Width: 1720
GlyphClass: 2
Flags: W
LayerCount: 2
Fore
SplineSet
554 294 m 1,0,-1
 704 1192 l 1,1,-1
 1032 1192 l 2,2,3
 1156 1192 1156 1192 1214 1120 c 128,-1,4
 1272 1048 1272 1048 1254 942 c 0,5,6
 1228 780 1228 780 1076 720 c 1,7,8
 1136 674 1136 674 1142 552 c 0,9,10
 1152 396 1152 396 1190 294 c 1,11,-1
 1068 294 l 1,12,13
 1044 360 1044 360 1032 536 c 0,14,15
 1030 604 1030 604 1009 642 c 128,-1,16
 988 680 988 680 928 680 c 2,17,-1
 726 680 l 1,18,-1
 662 294 l 1,19,-1
 554 294 l 1,0,-1
742 774 m 1,20,-1
 948 774 l 2,21,22
 1026 774 1026 774 1078 817 c 128,-1,23
 1130 860 1130 860 1142 934 c 0,24,25
 1154 1002 1154 1002 1119 1047 c 128,-1,26
 1084 1092 1084 1092 1000 1092 c 2,27,-1
 794 1092 l 1,28,-1
 742 774 l 1,20,-1
126 748 m 256,29,30
 182 1090 182 1090 436 1310 c 128,-1,31
 690 1530 690 1530 1020 1530 c 0,32,33
 1354 1530 1354 1530 1535 1310 c 128,-1,34
 1716 1090 1716 1090 1660 748 c 0,35,36
 1604 412 1604 412 1350 189 c 128,-1,37
 1096 -34 1096 -34 762 -34 c 0,38,39
 432 -34 432 -34 251 186 c 128,-1,40
 70 406 70 406 126 748 c 256,29,30
218 748 m 0,41,42
 168 452 168 452 322 252 c 128,-1,43
 476 52 476 52 776 52 c 0,44,45
 1074 52 1074 52 1296 252 c 128,-1,46
 1518 452 1518 452 1566 748 c 0,47,48
 1616 1048 1616 1048 1459 1246 c 128,-1,49
 1302 1444 1302 1444 1006 1444 c 0,50,51
 714 1444 714 1444 491 1247 c 128,-1,52
 268 1050 268 1050 218 748 c 0,41,42
EndSplineSet
EndChar

StartChar: macron
Encoding: 175 175 113
Width: 1002
GlyphClass: 2
Flags: W
LayerCount: 2
Fore
SplineSet
158 1520 m 1,0,-1
 176 1626 l 1,1,-1
 1180 1626 l 1,2,-1
 1164 1520 l 1,3,-1
 158 1520 l 1,0,-1
EndSplineSet
EndChar

StartChar: degree
Encoding: 176 176 114
Width: 792
GlyphClass: 2
Flags: W
LayerCount: 2
Fore
SplineSet
270 1248 m 0,0,1
 286 1344 286 1344 365 1415 c 128,-1,2
 444 1486 444 1486 550 1486 c 0,3,4
 650 1486 650 1486 708 1418 c 128,-1,5
 766 1350 766 1350 750 1248 c 256,6,7
 734 1146 734 1146 652 1079 c 128,-1,8
 570 1012 570 1012 472 1012 c 0,9,10
 372 1012 372 1012 313 1080 c 128,-1,11
 254 1148 254 1148 270 1248 c 0,0,1
354 1248 m 0,12,13
 342 1178 342 1178 380 1134 c 128,-1,14
 418 1090 418 1090 484 1090 c 0,15,16
 548 1090 548 1090 601 1135 c 128,-1,17
 654 1180 654 1180 666 1248 c 0,18,19
 676 1314 676 1314 640 1360 c 128,-1,20
 604 1406 604 1406 536 1406 c 0,21,22
 466 1406 466 1406 415 1359 c 128,-1,23
 364 1312 364 1312 354 1248 c 0,12,13
EndSplineSet
EndChar

StartChar: plusminus
Encoding: 177 177 115
Width: 1084
GlyphClass: 2
Flags: W
LayerCount: 2
Fore
SplineSet
124 812 m 1,0,-1
 142 920 l 1,1,-1
 542 920 l 1,2,-1
 604 1292 l 1,3,-1
 722 1292 l 1,4,-1
 660 920 l 1,5,-1
 1062 920 l 1,6,-1
 1044 812 l 1,7,-1
 642 812 l 1,8,-1
 580 444 l 1,9,-1
 464 444 l 1,10,-1
 524 812 l 1,11,-1
 124 812 l 1,0,-1
22 186 m 1,12,-1
 40 294 l 1,13,-1
 956 294 l 1,14,-1
 938 186 l 1,15,-1
 22 186 l 1,12,-1
EndSplineSet
EndChar

StartChar: twosuperior
Encoding: 178 178 116
Width: 614
GlyphClass: 2
Flags: W
LayerCount: 2
Fore
SplineSet
200 1444 m 1,0,1
 288 1660 288 1660 490 1660 c 0,2,3
 594 1660 594 1660 651 1598 c 128,-1,4
 708 1536 708 1536 690 1428 c 0,5,6
 670 1304 670 1304 508 1166 c 0,7,8
 490 1150 490 1150 448 1115 c 128,-1,9
 406 1080 406 1080 389 1065 c 128,-1,10
 372 1050 372 1050 341 1022 c 128,-1,11
 310 994 310 994 293 976 c 128,-1,12
 276 958 276 958 257 935 c 128,-1,13
 238 912 238 912 226 890 c 1,14,-1
 602 890 l 1,15,-1
 588 808 l 1,16,-1
 100 808 l 1,17,18
 100 810 100 810 102 814 c 0,19,20
 116 902 116 902 190 983 c 128,-1,21
 264 1064 264 1064 460 1230 c 0,22,23
 580 1330 580 1330 596 1428 c 0,24,25
 608 1500 608 1500 576 1539 c 128,-1,26
 544 1578 544 1578 474 1578 c 0,27,28
 344 1578 344 1578 278 1422 c 1,29,-1
 200 1444 l 1,0,1
EndSplineSet
EndChar

StartChar: threesuperior
Encoding: 179 179 117
Width: 618
GlyphClass: 2
Flags: W
LayerCount: 2
Fore
SplineSet
106 960 m 1,0,-1
 188 994 l 1,1,2
 234 872 234 872 348 872 c 0,3,4
 424 872 424 872 482 916 c 128,-1,5
 540 960 540 960 554 1046 c 0,6,7
 566 1120 566 1120 521 1165 c 128,-1,8
 476 1210 476 1210 386 1210 c 0,9,10
 364 1210 364 1210 320 1206 c 1,11,-1
 334 1292 l 1,12,13
 384 1288 384 1288 396 1288 c 0,14,15
 476 1288 476 1288 525 1330 c 128,-1,16
 574 1372 574 1372 586 1440 c 0,17,18
 596 1504 596 1504 564 1543 c 128,-1,19
 532 1582 532 1582 464 1582 c 0,20,21
 362 1582 362 1582 288 1454 c 1,22,-1
 214 1482 l 1,23,24
 308 1662 308 1662 480 1662 c 0,25,26
 588 1662 588 1662 642 1600 c 128,-1,27
 696 1538 696 1538 682 1446 c 0,28,29
 660 1316 660 1316 538 1256 c 1,30,31
 672 1200 672 1200 646 1046 c 0,32,33
 626 924 626 924 541 857 c 128,-1,34
 456 790 456 790 336 790 c 0,35,36
 152 790 152 790 106 960 c 1,0,-1
EndSplineSet
EndChar

StartChar: acute
Encoding: 180 180 118
Width: 628
GlyphClass: 2
Flags: W
LayerCount: 2
Fore
SplineSet
264 1310 m 1,0,-1
 542 1656 l 1,1,-1
 708 1656 l 1,2,-1
 372 1310 l 1,3,-1
 264 1310 l 1,0,-1
EndSplineSet
EndChar

StartChar: uni00B5
Encoding: 181 181 119
Width: 1082
GlyphClass: 2
Flags: W
LayerCount: 2
Fore
SplineSet
-6 -470 m 1,0,-1
 246 1050 l 1,1,-1
 360 1050 l 1,2,-1
 252 392 l 2,3,4
 228 246 228 246 268 156 c 128,-1,5
 308 66 308 66 430 66 c 0,6,7
 574 66 574 66 671 180 c 128,-1,8
 768 294 768 294 794 450 c 2,9,-1
 894 1050 l 1,10,-1
 1008 1050 l 1,11,-1
 834 0 l 1,12,-1
 724 0 l 1,13,-1
 756 188 l 1,14,-1
 754 188 l 1,15,16
 712 96 712 96 617 30 c 128,-1,17
 522 -36 522 -36 396 -36 c 0,18,19
 248 -36 248 -36 202 92 c 1,20,-1
 108 -470 l 1,21,-1
 -6 -470 l 1,0,-1
EndSplineSet
EndChar

StartChar: paragraph
Encoding: 182 182 120
Width: 1220
GlyphClass: 2
Flags: W
LayerCount: 2
Fore
SplineSet
202 1094 m 0,0,1
 236 1296 236 1296 358 1418 c 128,-1,2
 480 1540 480 1540 670 1540 c 2,3,-1
 1212 1540 l 1,4,-1
 934 -142 l 1,5,-1
 832 -142 l 1,6,-1
 1092 1426 l 1,7,-1
 868 1426 l 1,8,-1
 608 -142 l 1,9,-1
 506 -142 l 1,10,-1
 640 662 l 1,11,12
 568 640 568 640 496 640 c 0,13,14
 340 640 340 640 253 759 c 128,-1,15
 166 878 166 878 202 1094 c 0,0,1
EndSplineSet
EndChar

StartChar: periodcentered
Encoding: 183 183 121
Width: 632
GlyphClass: 2
Flags: W
LayerCount: 2
Fore
SplineSet
212 598 m 1,0,-1
 248 810 l 1,1,-1
 468 810 l 1,2,-1
 432 598 l 1,3,-1
 212 598 l 1,0,-1
EndSplineSet
EndChar

StartChar: cedilla
Encoding: 184 184 122
Width: 562
GlyphClass: 2
Flags: W
LayerCount: 2
Fore
SplineSet
-68 -352 m 1,0,1
 22 -372 22 -372 54 -372 c 0,2,3
 200 -372 200 -372 214 -278 c 0,4,5
 228 -188 228 -188 40 -166 c 1,6,-1
 154 10 l 1,7,-1
 264 10 l 1,8,-1
 190 -106 l 1,9,10
 348 -144 348 -144 326 -280 c 0,11,12
 312 -364 312 -364 243 -414 c 128,-1,13
 174 -464 174 -464 48 -464 c 0,14,15
 -32 -464 -32 -464 -84 -444 c 1,16,-1
 -68 -352 l 1,0,1
EndSplineSet
EndChar

StartChar: onesuperior
Encoding: 185 185 123
Width: 598
GlyphClass: 2
Flags: W
LayerCount: 2
Fore
SplineSet
252 1452 m 1,0,-1
 264 1528 l 1,1,-1
 312 1528 l 2,2,3
 392 1528 392 1528 424 1549 c 128,-1,4
 456 1570 456 1570 464 1616 c 2,5,-1
 470 1658 l 1,6,-1
 552 1658 l 1,7,-1
 412 804 l 1,8,-1
 318 804 l 1,9,-1
 424 1452 l 1,10,-1
 252 1452 l 1,0,-1
EndSplineSet
EndChar

StartChar: ordmasculine
Encoding: 186 186 124
Width: 750
GlyphClass: 2
Flags: W
LayerCount: 2
Fore
SplineSet
272 1276 m 0,0,1
 250 1138 250 1138 298 1054 c 128,-1,2
 346 970 346 970 442 970 c 0,3,4
 536 970 536 970 614 1055 c 128,-1,5
 692 1140 692 1140 714 1276 c 0,6,7
 738 1416 738 1416 688 1498 c 128,-1,8
 638 1580 638 1580 544 1580 c 256,9,10
 450 1580 450 1580 373 1498 c 128,-1,11
 296 1416 296 1416 272 1276 c 0,0,1
176 1276 m 0,12,13
 204 1442 204 1442 306 1553 c 128,-1,14
 408 1664 408 1664 558 1664 c 0,15,16
 706 1664 706 1664 772 1554 c 128,-1,17
 838 1444 838 1444 810 1276 c 0,18,19
 784 1118 784 1118 685 1002 c 128,-1,20
 586 886 586 886 428 886 c 256,21,22
 272 886 272 886 211 1002 c 128,-1,23
 150 1118 150 1118 176 1276 c 0,12,13
90 672 m 1,24,-1
 104 760 l 1,25,-1
 712 760 l 1,26,-1
 696 672 l 1,27,-1
 90 672 l 1,24,-1
EndSplineSet
EndChar

StartChar: guillemotright
Encoding: 187 187 125
Width: 862
GlyphClass: 2
Flags: W
LayerCount: 2
Fore
SplineSet
116 872 m 1,0,-1
 214 936 l 1,1,-1
 452 500 l 1,2,-1
 70 62 l 1,3,-1
 -4 126 l 1,4,-1
 320 500 l 1,5,-1
 116 872 l 1,0,-1
324 116 m 1,6,-1
 652 500 l 1,7,-1
 450 886 l 1,8,-1
 550 946 l 1,9,-1
 786 500 l 1,10,-1
 402 52 l 1,11,-1
 324 116 l 1,6,-1
EndSplineSet
EndChar

StartChar: onequarter
Encoding: 188 188 126
Width: 1866
GlyphClass: 3
Flags: W
LayerCount: 2
Fore
SplineSet
1118 246 m 1,0,-1
 1416 246 l 1,1,-1
 1478 616 l 2,2,3
 1480 634 1480 634 1487 669 c 128,-1,4
 1494 704 1494 704 1496 718 c 1,5,-1
 1426 626 l 1,6,-1
 1118 246 l 1,0,-1
288 1350 m 1,7,-1
 304 1444 l 1,8,-1
 360 1444 l 2,9,10
 452 1444 452 1444 487 1466 c 128,-1,11
 522 1488 522 1488 530 1540 c 2,12,-1
 540 1594 l 1,13,-1
 638 1594 l 1,14,-1
 474 604 l 1,15,-1
 360 604 l 1,16,-1
 484 1350 l 1,17,-1
 288 1350 l 1,7,-1
188 -102 m 1,18,-1
 1410 1566 l 1,19,-1
 1528 1566 l 1,20,-1
 310 -102 l 1,21,-1
 188 -102 l 1,18,-1
994 232 m 1,22,-1
 1538 906 l 1,23,-1
 1636 906 l 1,24,-1
 1526 246 l 1,25,-1
 1666 246 l 1,26,-1
 1650 148 l 1,27,-1
 1510 148 l 1,28,-1
 1472 -84 l 1,29,-1
 1362 -84 l 1,30,-1
 1400 148 l 1,31,-1
 980 148 l 1,32,-1
 994 232 l 1,22,-1
EndSplineSet
Ligature2: "'frac' Diagonal Fractions lookup 7 subtable" one fraction four
Ligature2: "'frac' Diagonal Fractions lookup 7 subtable" one slash four
EndChar

StartChar: onehalf
Encoding: 189 189 127
Width: 1864
GlyphClass: 3
Flags: W
LayerCount: 2
Fore
SplineSet
1116 650 m 1,0,1
 1132 682 1132 682 1142 704 c 128,-1,2
 1152 726 1152 726 1184 768 c 128,-1,3
 1216 810 1216 810 1249 836 c 128,-1,4
 1282 862 1282 862 1337 883 c 128,-1,5
 1392 904 1392 904 1454 904 c 0,6,7
 1576 904 1576 904 1642 832 c 128,-1,8
 1708 760 1708 760 1686 634 c 0,9,10
 1662 484 1662 484 1492 344 c 0,11,12
 1322 202 1322 202 1253 139 c 128,-1,13
 1184 76 1184 76 1150 16 c 1,14,-1
 1584 16 l 1,15,-1
 1568 -82 l 1,16,-1
 1002 -82 l 1,17,18
 1020 22 1020 22 1101 118 c 128,-1,19
 1182 214 1182 214 1416 406 c 0,20,21
 1556 522 1556 522 1574 634 c 0,22,23
 1588 716 1588 716 1550 761 c 128,-1,24
 1512 806 1512 806 1434 806 c 0,25,26
 1288 806 1288 806 1212 622 c 1,27,-1
 1116 650 l 1,0,1
288 1350 m 1,28,-1
 304 1444 l 1,29,-1
 360 1444 l 2,30,31
 452 1444 452 1444 487 1466 c 128,-1,32
 522 1488 522 1488 530 1540 c 2,33,-1
 540 1594 l 1,34,-1
 638 1594 l 1,35,-1
 474 604 l 1,36,-1
 360 604 l 1,37,-1
 484 1350 l 1,38,-1
 288 1350 l 1,28,-1
168 -102 m 1,39,-1
 1402 1566 l 1,40,-1
 1522 1566 l 1,41,-1
 292 -102 l 1,42,-1
 168 -102 l 1,39,-1
EndSplineSet
Ligature2: "'frac' Diagonal Fractions lookup 7 subtable" one fraction two
Ligature2: "'frac' Diagonal Fractions lookup 7 subtable" one slash two
EndChar

StartChar: threequarters
Encoding: 190 190 128
Width: 1872
GlyphClass: 3
Flags: W
LayerCount: 2
Fore
SplineSet
158 806 m 1,0,-1
 258 846 l 1,1,2
 314 706 314 706 442 706 c 0,3,4
 526 706 526 706 592 755 c 128,-1,5
 658 804 658 804 674 902 c 0,6,7
 688 992 688 992 634 1040 c 128,-1,8
 580 1088 580 1088 490 1088 c 0,9,10
 426 1088 426 1088 404 1086 c 1,11,-1
 420 1188 l 1,12,13
 452 1184 452 1184 500 1184 c 0,14,15
 578 1184 578 1184 638 1230 c 128,-1,16
 698 1276 698 1276 712 1356 c 0,17,18
 724 1426 724 1426 685 1472 c 128,-1,19
 646 1518 646 1518 574 1518 c 0,20,21
 458 1518 458 1518 370 1370 c 1,22,-1
 282 1404 l 1,23,24
 392 1616 392 1616 594 1616 c 0,25,26
 720 1616 720 1616 781 1543 c 128,-1,27
 842 1470 842 1470 824 1362 c 0,28,29
 800 1216 800 1216 662 1144 c 1,30,31
 726 1116 726 1116 763 1055 c 128,-1,32
 800 994 800 994 786 902 c 0,33,34
 762 762 762 762 663 685 c 128,-1,35
 564 608 564 608 424 608 c 0,36,37
 330 608 330 608 258 656 c 128,-1,38
 186 704 186 704 158 806 c 1,0,-1
1018 232 m 1,39,-1
 1560 906 l 1,40,-1
 1658 906 l 1,41,-1
 1548 246 l 1,42,-1
 1688 246 l 1,43,-1
 1672 148 l 1,44,-1
 1532 148 l 1,45,-1
 1494 -84 l 1,46,-1
 1384 -84 l 1,47,-1
 1422 148 l 1,48,-1
 1004 148 l 1,49,-1
 1018 232 l 1,39,-1
1142 246 m 1,50,-1
 1438 246 l 1,51,-1
 1500 618 l 2,52,53
 1502 636 1502 636 1509 669 c 128,-1,54
 1516 702 1516 702 1518 716 c 1,55,-1
 1452 628 l 1,56,-1
 1142 246 l 1,50,-1
326 -102 m 1,57,-1
 1560 1566 l 1,58,-1
 1680 1566 l 1,59,-1
 450 -102 l 1,60,-1
 326 -102 l 1,57,-1
EndSplineSet
Ligature2: "'frac' Diagonal Fractions lookup 7 subtable" three fraction four
Ligature2: "'frac' Diagonal Fractions lookup 7 subtable" three slash four
EndChar

StartChar: questiondown
Encoding: 191 191 129
Width: 1054
GlyphClass: 2
Flags: W
LayerCount: 2
Fore
SplineSet
30 -70 m 0,0,1
 46 22 46 22 94 95 c 128,-1,2
 142 168 142 168 203 218 c 128,-1,3
 264 268 264 268 324 319 c 128,-1,4
 384 370 384 370 432 442 c 128,-1,5
 480 514 480 514 496 604 c 2,6,-1
 502 644 l 1,7,-1
 626 644 l 1,8,-1
 618 596 l 2,9,10
 602 496 602 496 552 417 c 128,-1,11
 502 338 502 338 442 286 c 128,-1,12
 382 234 382 234 322 185 c 128,-1,13
 262 136 262 136 216 72 c 128,-1,14
 170 8 170 8 156 -72 c 0,15,16
 134 -202 134 -202 191 -278 c 128,-1,17
 248 -354 248 -354 372 -354 c 0,18,19
 572 -354 572 -354 714 -116 c 1,20,-1
 814 -156 l 1,21,22
 738 -298 738 -298 617 -380 c 128,-1,23
 496 -462 496 -462 356 -462 c 0,24,25
 178 -462 178 -462 89 -355 c 128,-1,26
 0 -248 0 -248 30 -70 c 0,0,1
488 854 m 1,27,-1
 522 1058 l 1,28,-1
 740 1058 l 1,29,-1
 708 854 l 1,30,-1
 488 854 l 1,27,-1
EndSplineSet
EndChar

StartChar: AE
Encoding: 198 198 136
Width: 1814
GlyphClass: 2
Flags: W
LayerCount: 2
Fore
SplineSet
448 546 m 1,0,-1
 938 546 l 1,1,-1
 1070 1352 l 1,2,-1
 1054 1352 l 1,3,-1
 448 546 l 1,0,-1
-98 0 m 1,4,-1
 1010 1470 l 1,5,-1
 1878 1470 l 1,6,-1
 1860 1362 l 1,7,-1
 1196 1362 l 1,8,-1
 1106 816 l 1,9,-1
 1700 816 l 1,10,-1
 1682 708 l 1,11,-1
 1082 708 l 1,12,-1
 982 108 l 1,13,-1
 1666 108 l 1,14,-1
 1648 0 l 1,15,-1
 848 0 l 1,16,-1
 920 444 l 1,17,-1
 372 444 l 1,18,-1
 42 0 l 1,19,-1
 -98 0 l 1,4,-1
EndSplineSet
EndChar

StartChar: multiply
Encoding: 215 215 153
Width: 1084
GlyphClass: 2
Flags: W
LayerCount: 2
Fore
SplineSet
52 362 m 1,0,-1
 496 724 l 1,1,-1
 176 1090 l 1,2,-1
 262 1166 l 1,3,-1
 580 796 l 1,4,-1
 1022 1166 l 1,5,-1
 1084 1090 l 1,6,-1
 642 724 l 1,7,-1
 966 360 l 1,8,-1
 878 286 l 1,9,-1
 556 654 l 1,10,-1
 116 286 l 1,11,-1
 52 362 l 1,0,-1
EndSplineSet
EndChar

StartChar: Oslash
Encoding: 216 216 154
Width: 1374
GlyphClass: 2
Flags: W
LayerCount: 2
Fore
SplineSet
128 734 m 0,0,1
 186 1082 186 1082 381 1295 c 128,-1,2
 576 1508 576 1508 844 1508 c 0,3,4
 1010 1508 1010 1508 1128 1420 c 1,5,-1
 1242 1590 l 1,6,-1
 1360 1590 l 1,7,-1
 1198 1350 l 1,8,9
 1370 1140 1370 1140 1302 734 c 0,10,11
 1244 384 1244 384 1050 174 c 128,-1,12
 856 -36 856 -36 588 -36 c 0,13,14
 442 -36 442 -36 336 30 c 1,15,-1
 222 -146 l 1,16,-1
 104 -146 l 1,17,-1
 262 90 l 1,18,19
 56 296 56 296 128 734 c 0,0,1
1122 1234 m 1,20,-1
 406 132 l 1,21,22
 486 74 486 74 606 74 c 0,23,24
 818 74 818 74 972 253 c 128,-1,25
 1126 432 1126 432 1176 734 c 0,26,27
 1230 1058 1230 1058 1122 1234 c 1,20,-1
1058 1316 m 1,28,29
 968 1398 968 1398 826 1398 c 0,30,31
 614 1398 614 1398 460 1218 c 128,-1,32
 306 1038 306 1038 256 734 c 0,33,34
 198 380 198 380 336 202 c 1,35,-1
 1058 1316 l 1,28,29
EndSplineSet
EndChar

StartChar: Thorn
Encoding: 222 222 160
Width: 1170
GlyphClass: 2
Flags: W
LayerCount: 2
Fore
SplineSet
106 0 m 1,0,-1
 350 1470 l 1,1,-1
 474 1470 l 1,2,-1
 430 1216 l 1,3,-1
 698 1216 l 2,4,5
 950 1216 950 1216 1053 1093 c 128,-1,6
 1156 970 1156 970 1122 760 c 0,7,8
 1084 526 1084 526 922 413 c 128,-1,9
 760 300 760 300 520 300 c 2,10,-1
 280 300 l 1,11,-1
 230 0 l 1,12,-1
 106 0 l 1,0,-1
298 408 m 1,13,-1
 526 408 l 2,14,15
 936 408 936 408 994 760 c 0,16,17
 1052 1108 1052 1108 666 1108 c 2,18,-1
 414 1108 l 1,19,-1
 298 408 l 1,13,-1
EndSplineSet
EndChar

StartChar: germandbls
Encoding: 223 223 161
Width: 1236
GlyphClass: 2
Flags: W
LayerCount: 2
Fore
SplineSet
106 0 m 1,0,-1
 292 1118 l 2,1,2
 322 1304 322 1304 455 1406 c 128,-1,3
 588 1508 588 1508 766 1508 c 0,4,5
 948 1508 948 1508 1045 1400 c 128,-1,6
 1142 1292 1142 1292 1112 1114 c 0,7,8
 1072 874 1072 874 888 776 c 1,9,-1
 888 772 l 1,10,11
 998 742 998 742 1067 642 c 128,-1,12
 1136 542 1136 542 1108 370 c 0,13,14
 1078 192 1078 192 951 78 c 128,-1,15
 824 -36 824 -36 642 -36 c 0,16,17
 498 -36 498 -36 372 8 c 1,18,-1
 402 120 l 1,19,20
 512 74 512 74 654 74 c 0,21,22
 774 74 774 74 869 156 c 128,-1,23
 964 238 964 238 986 370 c 0,24,25
 1014 534 1014 534 933 619 c 128,-1,26
 852 704 852 704 714 704 c 2,27,-1
 596 704 l 1,28,-1
 614 812 l 1,29,-1
 718 812 l 2,30,31
 818 812 818 812 893 895 c 128,-1,32
 968 978 968 978 990 1106 c 0,33,34
 1010 1232 1010 1232 947 1315 c 128,-1,35
 884 1398 884 1398 750 1398 c 256,36,37
 616 1398 616 1398 523 1321 c 128,-1,38
 430 1244 430 1244 408 1108 c 2,39,-1
 224 0 l 1,40,-1
 106 0 l 1,0,-1
EndSplineSet
EndChar

StartChar: ae
Encoding: 230 230 168
Width: 1730
GlyphClass: 2
Flags: W
LayerCount: 2
Fore
SplineSet
30 254 m 0,0,1
 54 396 54 396 168 485 c 128,-1,2
 282 574 282 574 510 610 c 0,3,4
 734 646 734 646 804 674 c 1,5,-1
 814 734 l 2,6,7
 832 840 832 840 773 913 c 128,-1,8
 714 986 714 986 586 986 c 0,9,10
 390 986 390 986 232 818 c 1,11,-1
 166 884 l 1,12,13
 250 974 250 974 364 1030 c 128,-1,14
 478 1086 478 1086 602 1086 c 0,15,16
 750 1086 750 1086 824 1017 c 128,-1,17
 898 948 898 948 910 838 c 1,18,19
 976 952 976 952 1082 1019 c 128,-1,20
 1188 1086 1188 1086 1310 1086 c 0,21,22
 1502 1086 1502 1086 1593 933 c 128,-1,23
 1684 780 1684 780 1648 556 c 2,24,-1
 1636 486 l 1,25,-1
 888 486 l 1,26,-1
 882 442 l 1,27,28
 870 288 870 288 936 177 c 128,-1,29
 1002 66 1002 66 1144 66 c 0,30,31
 1246 66 1246 66 1333 121 c 128,-1,32
 1420 176 1420 176 1474 254 c 1,33,-1
 1568 218 l 1,34,35
 1406 -36 1406 -36 1126 -36 c 0,36,37
 990 -36 990 -36 904 43 c 128,-1,38
 818 122 818 122 788 256 c 1,39,40
 720 134 720 134 602 49 c 128,-1,41
 484 -36 484 -36 326 -36 c 0,42,43
 166 -36 166 -36 87 44 c 128,-1,44
 8 124 8 124 30 254 c 0,0,1
148 260 m 0,45,46
 134 180 134 180 188 123 c 128,-1,47
 242 66 242 66 354 66 c 0,48,49
 496 66 496 66 615 162 c 128,-1,50
 734 258 734 258 760 410 c 2,51,-1
 786 576 l 1,52,53
 712 552 712 552 500 518 c 0,54,55
 182 468 182 468 148 260 c 0,45,46
904 580 m 1,56,-1
 1536 580 l 1,57,58
 1564 748 1564 748 1497 866 c 128,-1,59
 1430 984 1430 984 1294 984 c 0,60,61
 1160 984 1160 984 1058 877 c 128,-1,62
 956 770 956 770 914 618 c 2,63,-1
 904 580 l 1,56,-1
EndSplineSet
EndChar

StartChar: eth
Encoding: 240 240 178
Width: 1056
GlyphClass: 2
Flags: W
LayerCount: 2
Fore
SplineSet
72 478 m 0,0,1
 112 716 112 716 255 854 c 128,-1,2
 398 992 398 992 596 992 c 0,3,4
 712 992 712 992 782 935 c 128,-1,5
 852 878 852 878 874 798 c 1,6,7
 874 1084 874 1084 766 1240 c 0,8,9
 752 1256 752 1256 736 1274 c 1,10,-1
 454 1082 l 1,11,-1
 400 1160 l 1,12,-1
 666 1340 l 1,13,14
 570 1408 570 1408 436 1430 c 1,15,-1
 490 1528 l 1,16,17
 660 1500 660 1500 772 1412 c 1,18,-1
 992 1560 l 1,19,-1
 1044 1480 l 1,20,-1
 842 1344 l 1,21,22
 1058 1092 1058 1092 962 518 c 0,23,24
 922 276 922 276 781 120 c 128,-1,25
 640 -36 640 -36 426 -36 c 0,26,27
 220 -36 220 -36 128 112 c 128,-1,28
 36 260 36 260 72 478 c 0,0,1
190 482 m 0,29,30
 160 298 160 298 229 182 c 128,-1,31
 298 66 298 66 448 66 c 0,32,33
 592 66 592 66 695 180 c 128,-1,34
 798 294 798 294 830 486 c 0,35,36
 860 668 860 668 792 778 c 128,-1,37
 724 888 724 888 584 888 c 0,38,39
 442 888 442 888 332 782 c 128,-1,40
 222 676 222 676 190 482 c 0,29,30
EndSplineSet
EndChar

StartChar: divide
Encoding: 247 247 185
Width: 1088
GlyphClass: 2
Flags: W
LayerCount: 2
Fore
SplineSet
518 998 m 1,0,-1
 550 1190 l 1,1,-1
 746 1190 l 1,2,-1
 714 998 l 1,3,-1
 518 998 l 1,0,-1
72 672 m 1,4,-1
 90 780 l 1,5,-1
 1070 780 l 1,6,-1
 1052 672 l 1,7,-1
 72 672 l 1,4,-1
396 264 m 1,8,-1
 428 456 l 1,9,-1
 624 456 l 1,10,-1
 592 264 l 1,11,-1
 396 264 l 1,8,-1
EndSplineSet
EndChar

StartChar: oslash
Encoding: 248 248 186
Width: 1056
GlyphClass: 2
Flags: W
LayerCount: 2
Fore
SplineSet
80 524 m 0,0,1
 120 766 120 766 264 926 c 128,-1,2
 408 1086 408 1086 616 1086 c 0,3,4
 740 1086 740 1086 818 1030 c 1,5,-1
 910 1172 l 1,6,-1
 1010 1172 l 1,7,-1
 880 972 l 1,8,9
 1010 818 1010 818 964 524 c 0,10,11
 926 298 926 298 786 131 c 128,-1,12
 646 -36 646 -36 430 -36 c 0,13,14
 320 -36 320 -36 244 10 c 1,15,-1
 156 -124 l 1,16,-1
 58 -124 l 1,17,-1
 178 62 l 1,18,19
 106 138 106 138 81 261 c 128,-1,20
 56 384 56 384 80 524 c 0,0,1
808 860 m 1,21,-1
 308 108 l 1,22,23
 372 66 372 66 448 66 c 0,24,25
 588 66 588 66 701 192 c 128,-1,26
 814 318 814 318 848 524 c 0,27,28
 884 732 884 732 808 860 c 1,21,-1
752 928 m 1,29,30
 684 984 684 984 600 984 c 0,31,32
 462 984 462 984 347 859 c 128,-1,33
 232 734 232 734 196 524 c 0,34,35
 158 300 158 300 250 170 c 1,36,-1
 752 928 l 1,29,30
EndSplineSet
EndChar

StartChar: thorn
Encoding: 254 254 192
Width: 1102
GlyphClass: 2
Flags: W
LayerCount: 2
Fore
SplineSet
274 528 m 0,0,1
 240 320 240 320 307 193 c 128,-1,2
 374 66 374 66 502 66 c 0,3,4
 646 66 646 66 753 189 c 128,-1,5
 860 312 860 312 894 526 c 0,6,7
 928 734 928 734 864 859 c 128,-1,8
 800 984 800 984 654 984 c 0,9,10
 530 984 530 984 419 858 c 128,-1,11
 308 732 308 732 274 528 c 0,0,1
-2 -470 m 1,12,-1
 328 1528 l 1,13,-1
 442 1528 l 1,14,-1
 328 834 l 1,15,16
 378 946 378 946 482 1016 c 128,-1,17
 586 1086 586 1086 682 1086 c 0,18,19
 876 1086 876 1086 964 936 c 128,-1,20
 1052 786 1052 786 1010 526 c 0,21,22
 964 250 964 250 818 107 c 128,-1,23
 672 -36 672 -36 496 -36 c 0,24,25
 384 -36 384 -36 313 37 c 128,-1,26
 242 110 242 110 224 210 c 1,27,-1
 112 -470 l 1,28,-1
 -2 -470 l 1,12,-1
EndSplineSet
EndChar

StartChar: dcroat
Encoding: 273 273 211
Width: 1102
GlyphClass: 2
Flags: W
LayerCount: 2
Fore
SplineSet
80 526 m 0,0,1
 124 788 124 788 265 937 c 128,-1,2
 406 1086 406 1086 588 1086 c 0,3,4
 704 1086 704 1086 775 1012 c 128,-1,5
 846 938 846 938 864 838 c 1,6,-1
 934 1258 l 1,7,-1
 514 1258 l 1,8,-1
 530 1350 l 1,9,-1
 950 1350 l 1,10,-1
 978 1528 l 1,11,-1
 1094 1528 l 1,12,-1
 1064 1350 l 1,13,-1
 1204 1350 l 1,14,-1
 1190 1258 l 1,15,-1
 1048 1258 l 1,16,-1
 840 0 l 1,17,-1
 730 0 l 1,18,-1
 764 210 l 1,19,20
 704 100 704 100 610 32 c 128,-1,21
 516 -36 516 -36 400 -36 c 0,22,23
 234 -36 234 -36 134 106 c 128,-1,24
 34 248 34 248 80 526 c 0,0,1
196 526 m 256,25,26
 162 318 162 318 228 192 c 128,-1,27
 294 66 294 66 434 66 c 0,28,29
 564 66 564 66 673 191 c 128,-1,30
 782 316 782 316 816 526 c 0,31,32
 850 730 850 730 782 857 c 128,-1,33
 714 984 714 984 584 984 c 0,34,35
 446 984 446 984 338 859 c 128,-1,36
 230 734 230 734 196 526 c 256,25,26
EndSplineSet
EndChar

StartChar: uni0123
Encoding: 291 291 229
Width: 1076
GlyphClass: 2
Flags: W
LayerCount: 2
Fore
SplineSet
546 1262 m 1,0,-1
 758 1612 l 1,1,-1
 844 1612 l 1,2,-1
 690 1262 l 1,3,-1
 546 1262 l 1,0,-1
200 544 m 0,4,5
 166 344 166 344 231 224 c 128,-1,6
 296 104 296 104 426 104 c 0,7,8
 566 104 566 104 666 222 c 128,-1,9
 766 340 766 340 802 548 c 0,10,11
 836 750 836 750 773 867 c 128,-1,12
 710 984 710 984 574 984 c 256,13,14
 438 984 438 984 335 861 c 128,-1,15
 232 738 232 738 200 544 c 0,4,5
84 544 m 256,16,17
 124 784 124 784 261 935 c 128,-1,18
 398 1086 398 1086 580 1086 c 0,19,20
 706 1086 706 1086 770 1017 c 128,-1,21
 834 948 834 948 852 854 c 1,22,-1
 884 1050 l 1,23,-1
 996 1050 l 1,24,-1
 840 108 l 2,25,26
 790 -190 790 -190 669 -334 c 128,-1,27
 548 -478 548 -478 328 -478 c 0,28,29
 222 -478 222 -478 134 -431 c 128,-1,30
 46 -384 46 -384 2 -294 c 1,31,-1
 94 -236 l 1,32,33
 184 -378 184 -378 350 -378 c 0,34,35
 640 -378 640 -378 718 54 c 0,36,37
 732 124 732 124 748 228 c 1,38,39
 692 128 692 128 605 65 c 128,-1,40
 518 2 518 2 402 2 c 0,41,42
 220 2 220 2 132 153 c 128,-1,43
 44 304 44 304 84 544 c 256,16,17
EndSplineSet
EndChar

StartChar: Hbar
Encoding: 294 294 232
Width: 1428
GlyphClass: 2
Flags: W
LayerCount: 2
Fore
SplineSet
134 1144 m 1,0,-1
 150 1244 l 1,1,-1
 324 1244 l 1,2,-1
 362 1470 l 1,3,-1
 486 1470 l 1,4,-1
 448 1244 l 1,5,-1
 1204 1244 l 1,6,-1
 1242 1470 l 1,7,-1
 1366 1470 l 1,8,-1
 1328 1244 l 1,9,-1
 1502 1244 l 1,10,-1
 1486 1144 l 1,11,-1
 1312 1144 l 1,12,-1
 1122 0 l 1,13,-1
 998 0 l 1,14,-1
 1116 704 l 1,15,-1
 358 704 l 1,16,-1
 242 0 l 1,17,-1
 118 0 l 1,18,-1
 308 1144 l 1,19,-1
 134 1144 l 1,0,-1
1188 1144 m 1,20,-1
 432 1144 l 1,21,-1
 376 812 l 1,22,-1
 1134 812 l 1,23,-1
 1188 1144 l 1,20,-1
EndSplineSet
EndChar

StartChar: hbar
Encoding: 295 295 233
Width: 1078
GlyphClass: 2
Flags: W
LayerCount: 2
Fore
SplineSet
144 1268 m 1,0,-1
 158 1362 l 1,1,-1
 302 1362 l 1,2,-1
 328 1528 l 1,3,-1
 444 1528 l 1,4,-1
 416 1362 l 1,5,-1
 820 1362 l 1,6,-1
 806 1268 l 1,7,-1
 400 1268 l 1,8,-1
 330 846 l 1,9,-1
 332 846 l 1,10,11
 380 930 380 930 480 998 c 128,-1,12
 580 1066 580 1066 694 1066 c 0,13,14
 750 1066 750 1066 797 1050 c 128,-1,15
 844 1034 844 1034 889 993 c 128,-1,16
 934 952 934 952 951 867 c 128,-1,17
 968 782 968 782 948 660 c 2,18,-1
 840 0 l 1,19,-1
 726 0 l 1,20,-1
 832 640 l 2,21,22
 886 964 886 964 656 964 c 0,23,24
 534 964 534 964 424 856 c 128,-1,25
 314 748 314 748 292 610 c 2,26,-1
 190 0 l 1,27,-1
 76 0 l 1,28,-1
 286 1268 l 1,29,-1
 144 1268 l 1,0,-1
EndSplineSet
EndChar

StartChar: dotlessi
Encoding: 305 305 243
Width: 444
GlyphClass: 2
Flags: W
LayerCount: 2
Fore
SplineSet
72 0 m 1,0,-1
 246 1050 l 1,1,-1
 362 1050 l 1,2,-1
 188 0 l 1,3,-1
 72 0 l 1,0,-1
EndSplineSet
EndChar

StartChar: kgreenlandic
Encoding: 312 312 250
Width: 946
GlyphClass: 2
Flags: W
LayerCount: 2
Fore
SplineSet
70 0 m 1,0,-1
 244 1050 l 1,1,-1
 358 1050 l 1,2,-1
 278 562 l 1,3,-1
 282 562 l 1,4,-1
 864 1050 l 1,5,-1
 1014 1050 l 1,6,-1
 418 546 l 1,7,-1
 860 0 l 1,8,-1
 716 0 l 1,9,-1
 328 460 l 1,10,-1
 250 394 l 1,11,-1
 184 0 l 1,12,-1
 70 0 l 1,0,-1
EndSplineSet
EndChar

StartChar: Lslash
Encoding: 321 321 259
Width: 1056
GlyphClass: 2
Flags: W
LayerCount: 2
Fore
SplineSet
364 700 m 1,0,-1
 266 108 l 1,1,-1
 964 108 l 1,2,-1
 946 0 l 1,3,-1
 126 0 l 1,4,-1
 228 620 l 1,5,-1
 -8 472 l 1,6,-1
 -52 562 l 1,7,-1
 250 750 l 1,8,-1
 368 1470 l 1,9,-1
 492 1470 l 1,10,-1
 386 828 l 1,11,-1
 614 970 l 1,12,-1
 656 880 l 1,13,-1
 364 700 l 1,0,-1
EndSplineSet
EndChar

StartChar: lslash
Encoding: 322 322 260
Width: 482
GlyphClass: 2
Flags: W
LayerCount: 2
Fore
SplineSet
328 734 m 1,0,-1
 206 0 l 1,1,-1
 92 0 l 1,2,-1
 200 654 l 1,3,-1
 -16 518 l 1,4,-1
 -58 610 l 1,5,-1
 222 784 l 1,6,-1
 344 1528 l 1,7,-1
 458 1528 l 1,8,-1
 348 864 l 1,9,-1
 562 996 l 1,10,-1
 602 906 l 1,11,-1
 328 734 l 1,0,-1
EndSplineSet
EndChar

StartChar: Eng
Encoding: 330 330 268
Width: 1414
GlyphClass: 2
Flags: W
LayerCount: 2
Fore
SplineSet
106 0 m 1,0,-1
 350 1470 l 1,1,-1
 494 1470 l 1,2,-1
 1034 184 l 1,3,-1
 1046 184 l 1,4,5
 1060 372 1060 372 1092 564 c 2,6,-1
 1242 1470 l 1,7,-1
 1366 1470 l 1,8,-1
 1124 8 l 2,9,10
 1044 -478 1044 -478 676 -478 c 0,11,12
 584 -478 584 -478 480 -464 c 1,13,-1
 498 -358 l 1,14,15
 578 -370 578 -370 672 -370 c 0,16,17
 810 -370 810 -370 878 -284 c 128,-1,18
 946 -198 946 -198 980 0 c 1,19,-1
 522 1084 l 1,20,-1
 438 1292 l 1,21,-1
 430 1292 l 1,22,23
 416 1124 416 1124 384 928 c 2,24,-1
 230 0 l 1,25,-1
 106 0 l 1,0,-1
EndSplineSet
EndChar

StartChar: eng
Encoding: 331 331 269
Width: 1060
GlyphClass: 2
Flags: W
LayerCount: 2
Fore
SplineSet
60 0 m 1,0,-1
 234 1050 l 1,1,-1
 348 1050 l 1,2,-1
 314 852 l 1,3,-1
 316 852 l 1,4,5
 350 932 350 932 454 1009 c 128,-1,6
 558 1086 558 1086 688 1086 c 0,7,8
 822 1086 822 1086 899 995 c 128,-1,9
 976 904 976 904 938 680 c 2,10,-1
 828 8 l 2,11,12
 748 -478 748 -478 416 -478 c 0,13,14
 372 -478 372 -478 246 -460 c 1,15,-1
 262 -356 l 1,16,17
 366 -372 366 -372 420 -372 c 0,18,19
 542 -372 542 -372 610 -282 c 128,-1,20
 678 -192 678 -192 708 -4 c 2,21,-1
 818 658 l 2,22,23
 872 984 872 984 646 984 c 0,24,25
 524 984 524 984 414 880 c 128,-1,26
 304 776 304 776 280 634 c 2,27,-1
 176 0 l 1,28,-1
 60 0 l 1,0,-1
EndSplineSet
EndChar

StartChar: OE
Encoding: 338 338 276
Width: 1832
GlyphClass: 2
Flags: W
LayerCount: 2
Fore
SplineSet
128 736 m 0,0,1
 186 1090 186 1090 393 1299 c 128,-1,2
 600 1508 600 1508 872 1508 c 0,3,4
 982 1508 982 1508 1068 1470 c 1,5,-1
 1896 1470 l 1,6,-1
 1878 1362 l 1,7,-1
 1168 1362 l 1,8,-1
 1078 816 l 1,9,-1
 1716 816 l 1,10,-1
 1698 708 l 1,11,-1
 1060 708 l 1,12,-1
 960 108 l 1,13,-1
 1684 108 l 1,14,-1
 1666 0 l 1,15,-1
 830 0 l 1,16,17
 732 -36 732 -36 616 -36 c 0,18,19
 342 -36 342 -36 206 172 c 128,-1,20
 70 380 70 380 128 736 c 0,0,1
256 736 m 0,21,22
 206 432 206 432 313 252 c 128,-1,23
 420 72 420 72 634 72 c 0,24,25
 746 72 746 72 840 122 c 1,26,-1
 1042 1344 l 1,27,28
 972 1398 972 1398 852 1398 c 0,29,30
 630 1398 630 1398 468 1217 c 128,-1,31
 306 1036 306 1036 256 736 c 0,21,22
EndSplineSet
EndChar

StartChar: uni0163
Encoding: 355 355 293
Width: 664
GlyphClass: 2
Flags: W
LayerCount: 2
Fore
SplineSet
104 948 m 1,0,-1
 122 1050 l 1,1,-1
 304 1050 l 1,2,-1
 362 1396 l 1,3,-1
 476 1396 l 1,4,-1
 418 1050 l 1,5,-1
 676 1050 l 1,6,-1
 660 948 l 1,7,-1
 402 948 l 1,8,-1
 294 298 l 2,9,10
 276 194 276 194 308 149 c 128,-1,11
 340 104 340 104 426 104 c 2,12,-1
 522 104 l 1,13,-1
 504 0 l 1,14,-1
 392 0 l 2,15,16
 384 0 384 0 378 0 c 2,17,-1
 342 -90 l 1,18,19
 426 -102 426 -102 466 -147 c 128,-1,20
 506 -192 506 -192 496 -262 c 0,21,22
 484 -338 484 -338 418 -389 c 128,-1,23
 352 -440 352 -440 236 -440 c 0,24,25
 156 -440 156 -440 82 -418 c 1,26,-1
 96 -336 l 1,27,28
 176 -358 176 -358 250 -358 c 0,29,30
 308 -358 308 -358 349 -331 c 128,-1,31
 390 -304 390 -304 398 -256 c 0,32,33
 414 -154 414 -154 214 -142 c 1,34,-1
 278 18 l 1,35,36
 142 74 142 74 178 286 c 2,37,-1
 288 948 l 1,38,-1
 104 948 l 1,0,-1
EndSplineSet
Substitution2: "'locl' Localized Forms in Latin lookup 3 subtable" uni021B
Substitution2: "'locl' Localized Forms in Latin lookup 2 subtable" uni021B
Substitution2: "'aalt' Access All Alternates lookup 0 subtable" uni021B
EndChar

StartChar: tbar
Encoding: 359 359 297
Width: 672
GlyphClass: 2
Flags: W
LayerCount: 2
Fore
SplineSet
106 948 m 1,0,-1
 122 1050 l 1,1,-1
 304 1050 l 1,2,-1
 362 1396 l 1,3,-1
 476 1396 l 1,4,-1
 420 1050 l 1,5,-1
 686 1050 l 1,6,-1
 668 948 l 1,7,-1
 402 948 l 1,8,-1
 362 698 l 1,9,-1
 638 698 l 1,10,-1
 622 596 l 1,11,-1
 344 596 l 1,12,-1
 294 298 l 2,13,14
 276 194 276 194 308 149 c 128,-1,15
 340 104 340 104 426 104 c 2,16,-1
 530 104 l 1,17,-1
 514 0 l 1,18,-1
 394 0 l 2,19,20
 130 0 130 0 178 286 c 2,21,-1
 230 596 l 1,22,-1
 30 596 l 1,23,-1
 48 698 l 1,24,-1
 246 698 l 1,25,-1
 288 948 l 1,26,-1
 106 948 l 1,0,-1
EndSplineSet
EndChar

StartChar: longs
Encoding: 383 383 321
Width: 564
GlyphClass: 2
Flags: W
LayerCount: 2
Fore
SplineSet
78 0 m 1,0,-1
 278 1210 l 2,1,2
 304 1362 304 1362 389 1437 c 128,-1,3
 474 1512 474 1512 598 1512 c 2,4,-1
 704 1512 l 1,5,-1
 688 1408 l 1,6,-1
 598 1408 l 2,7,8
 426 1408 426 1408 390 1194 c 2,9,-1
 192 0 l 1,10,-1
 78 0 l 1,0,-1
EndSplineSet
EndChar

StartChar: uni0180
Encoding: 384 384 322
Width: 1102
GlyphClass: 2
Flags: W
LayerCount: 2
Fore
SplineSet
276 526 m 0,0,1
 240 314 240 314 309 190 c 128,-1,2
 378 66 378 66 506 66 c 0,3,4
 646 66 646 66 754 190 c 128,-1,5
 862 314 862 314 896 526 c 0,6,7
 930 734 930 734 866 859 c 128,-1,8
 802 984 802 984 660 984 c 0,9,10
 532 984 532 984 421 860 c 128,-1,11
 310 736 310 736 276 526 c 0,0,1
150 1266 m 1,12,-1
 166 1362 l 1,13,-1
 302 1362 l 1,14,-1
 330 1528 l 1,15,-1
 446 1528 l 1,16,-1
 418 1362 l 1,17,-1
 822 1362 l 1,18,-1
 806 1266 l 1,19,-1
 402 1266 l 1,20,-1
 330 834 l 1,21,22
 370 926 370 926 470 1006 c 128,-1,23
 570 1086 570 1086 690 1086 c 0,24,25
 878 1086 878 1086 966 936 c 128,-1,26
 1054 786 1054 786 1012 526 c 0,27,28
 988 382 988 382 932 269 c 128,-1,29
 876 156 876 156 804 92 c 128,-1,30
 732 28 732 28 655 -4 c 128,-1,31
 578 -36 578 -36 502 -36 c 0,32,33
 386 -36 386 -36 315 35 c 128,-1,34
 244 106 244 106 224 208 c 1,35,-1
 190 0 l 1,36,-1
 78 0 l 1,37,-1
 286 1266 l 1,38,-1
 150 1266 l 1,12,-1
EndSplineSet
EndChar

StartChar: uni0182
Encoding: 386 386 324
Width: 1270
GlyphClass: 2
Flags: W
LayerCount: 2
Fore
SplineSet
248 108 m 1,0,-1
 656 108 l 2,1,2
 804 108 804 108 905 184 c 128,-1,3
 1006 260 1006 260 1030 406 c 0,4,5
 1052 544 1052 544 974 628 c 128,-1,6
 896 712 896 712 744 712 c 2,7,-1
 348 712 l 1,8,-1
 248 108 l 1,0,-1
106 0 m 1,9,-1
 350 1470 l 1,10,-1
 1166 1470 l 1,11,-1
 1148 1362 l 1,12,-1
 456 1362 l 1,13,-1
 366 820 l 1,14,-1
 778 820 l 2,15,16
 986 820 986 820 1087 705 c 128,-1,17
 1188 590 1188 590 1158 406 c 0,18,19
 1128 228 1128 228 991 114 c 128,-1,20
 854 0 854 0 658 0 c 2,21,-1
 106 0 l 1,9,-1
EndSplineSet
EndChar

StartChar: uni0183
Encoding: 387 387 325
Width: 1098
GlyphClass: 2
Flags: W
LayerCount: 2
Fore
SplineSet
270 526 m 0,0,1
 234 314 234 314 302 190 c 128,-1,2
 370 66 370 66 500 66 c 0,3,4
 638 66 638 66 747 190 c 128,-1,5
 856 314 856 314 890 526 c 0,6,7
 924 736 924 736 859 860 c 128,-1,8
 794 984 794 984 656 984 c 0,9,10
 528 984 528 984 416 860 c 128,-1,11
 304 736 304 736 270 526 c 0,0,1
72 0 m 1,12,-1
 324 1528 l 1,13,-1
 980 1528 l 1,14,-1
 964 1426 l 1,15,-1
 422 1426 l 1,16,-1
 324 836 l 1,17,18
 360 922 360 922 461 1004 c 128,-1,19
 562 1086 562 1086 684 1086 c 0,20,21
 870 1086 870 1086 959 935 c 128,-1,22
 1048 784 1048 784 1006 526 c 0,23,24
 960 248 960 248 812 106 c 128,-1,25
 664 -36 664 -36 498 -36 c 0,26,27
 384 -36 384 -36 311 35 c 128,-1,28
 238 106 238 106 218 208 c 1,29,-1
 184 0 l 1,30,-1
 72 0 l 1,12,-1
EndSplineSet
EndChar

StartChar: uni0184
Encoding: 388 388 326
Width: 1290
GlyphClass: 2
Flags: W
LayerCount: 2
Fore
SplineSet
194 1358 m 1,0,-1
 404 1470 l 1,1,-1
 486 1470 l 1,2,-1
 376 812 l 1,3,-1
 796 812 l 2,4,5
 1002 812 1002 812 1104 697 c 128,-1,6
 1206 582 1206 582 1178 406 c 0,7,8
 1150 240 1150 240 1018 120 c 128,-1,9
 886 0 886 0 690 0 c 2,10,-1
 116 0 l 1,11,-1
 322 1244 l 1,12,-1
 194 1358 l 1,0,-1
260 108 m 1,13,-1
 680 108 l 2,14,15
 820 108 820 108 924 187 c 128,-1,16
 1028 266 1028 266 1050 404 c 0,17,18
 1072 532 1072 532 996 619 c 128,-1,19
 920 706 920 706 770 706 c 2,20,-1
 360 706 l 1,21,-1
 260 108 l 1,13,-1
EndSplineSet
EndChar

StartChar: uni0185
Encoding: 389 389 327
Width: 1102
GlyphClass: 2
Flags: W
LayerCount: 2
Fore
SplineSet
172 1408 m 1,0,-1
 380 1528 l 1,1,-1
 446 1528 l 1,2,-1
 330 836 l 1,3,4
 390 954 390 954 495 1020 c 128,-1,5
 600 1086 600 1086 690 1086 c 0,6,7
 876 1086 876 1086 965 936 c 128,-1,8
 1054 786 1054 786 1012 526 c 0,9,10
 988 382 988 382 932 271 c 128,-1,11
 876 160 876 160 805 95 c 128,-1,12
 734 30 734 30 657 -3 c 128,-1,13
 580 -36 580 -36 502 -36 c 0,14,15
 388 -36 388 -36 317 35 c 128,-1,16
 246 106 246 106 224 208 c 1,17,-1
 190 0 l 1,18,-1
 78 0 l 1,19,-1
 292 1294 l 1,20,-1
 172 1408 l 1,0,-1
276 526 m 0,21,22
 240 314 240 314 308 190 c 128,-1,23
 376 66 376 66 506 66 c 0,24,25
 646 66 646 66 754 190 c 128,-1,26
 862 314 862 314 896 526 c 0,27,28
 930 734 930 734 865 859 c 128,-1,29
 800 984 800 984 660 984 c 0,30,31
 532 984 532 984 421 860 c 128,-1,32
 310 736 310 736 276 526 c 0,21,22
EndSplineSet
EndChar

StartChar: uni0186
Encoding: 390 390 328
Width: 1250
GlyphClass: 2
Flags: W
LayerCount: 2
Fore
SplineSet
10 296 m 1,0,-1
 128 334 l 1,1,2
 160 222 160 222 245 148 c 128,-1,3
 330 74 330 74 464 74 c 0,4,5
 676 74 676 74 838 252 c 128,-1,6
 1000 430 1000 430 1050 736 c 0,7,8
 1100 1036 1100 1036 1001 1217 c 128,-1,9
 902 1398 902 1398 684 1398 c 0,10,11
 462 1398 462 1398 298 1156 c 1,12,-1
 198 1196 l 1,13,14
 274 1320 274 1320 405 1414 c 128,-1,15
 536 1508 536 1508 702 1508 c 0,16,17
 970 1508 970 1508 1104 1302 c 128,-1,18
 1238 1096 1238 1096 1178 736 c 256,19,20
 1118 376 1118 376 917 170 c 128,-1,21
 716 -36 716 -36 446 -36 c 0,22,23
 264 -36 264 -36 158 59 c 128,-1,24
 52 154 52 154 10 296 c 1,0,-1
EndSplineSet
EndChar

StartChar: uni018B
Encoding: 395 395 333
Width: 1270
GlyphClass: 2
Flags: W
LayerCount: 2
Fore
SplineSet
188 406 m 0,0,1
 164 264 164 264 241 186 c 128,-1,2
 318 108 318 108 464 108 c 2,3,-1
 870 108 l 1,4,-1
 970 712 l 1,5,-1
 582 712 l 2,6,7
 428 712 428 712 320 629 c 128,-1,8
 212 546 212 546 188 406 c 0,0,1
60 406 m 0,9,10
 90 590 90 590 232 705 c 128,-1,11
 374 820 374 820 584 820 c 2,12,-1
 988 820 l 1,13,-1
 1078 1362 l 1,14,-1
 386 1362 l 1,15,-1
 404 1470 l 1,16,-1
 1220 1470 l 1,17,-1
 978 0 l 1,18,-1
 424 0 l 2,19,20
 230 0 230 0 130 113 c 128,-1,21
 30 226 30 226 60 406 c 0,9,10
EndSplineSet
EndChar

StartChar: uni018C
Encoding: 396 396 334
Width: 1098
GlyphClass: 2
Flags: W
LayerCount: 2
Fore
SplineSet
196 526 m 256,0,1
 160 314 160 314 228 190 c 128,-1,2
 296 66 296 66 434 66 c 0,3,4
 564 66 564 66 673 190 c 128,-1,5
 782 314 782 314 816 526 c 0,6,7
 850 736 850 736 780 860 c 128,-1,8
 710 984 710 984 582 984 c 0,9,10
 446 984 446 984 339 861 c 128,-1,11
 232 738 232 738 196 526 c 256,0,1
80 526 m 0,12,13
 122 784 122 784 264 935 c 128,-1,14
 406 1086 406 1086 588 1086 c 0,15,16
 710 1086 710 1086 781 1007 c 128,-1,17
 852 928 852 928 864 838 c 1,18,-1
 962 1426 l 1,19,-1
 410 1426 l 1,20,-1
 428 1528 l 1,21,-1
 1094 1528 l 1,22,-1
 840 0 l 1,23,-1
 730 0 l 1,24,-1
 764 210 l 1,25,26
 712 108 712 108 615 36 c 128,-1,27
 518 -36 518 -36 400 -36 c 0,28,29
 324 -36 324 -36 259 -4 c 128,-1,30
 194 28 194 28 144 93 c 128,-1,31
 94 158 94 158 75 270 c 128,-1,32
 56 382 56 382 80 526 c 0,12,13
EndSplineSet
EndChar

StartChar: uni018D
Encoding: 397 397 335
Width: 1156
GlyphClass: 2
Flags: W
LayerCount: 2
Fore
SplineSet
214 634 m 0,0,1
 198 534 198 534 246 441 c 128,-1,2
 294 348 294 348 366 291 c 128,-1,3
 438 234 438 234 526 190 c 1,4,5
 696 262 696 262 819 384 c 128,-1,6
 942 506 942 506 964 636 c 0,7,8
 988 780 988 780 910 882 c 128,-1,9
 832 984 832 984 656 984 c 0,10,11
 490 984 490 984 365 889 c 128,-1,12
 240 794 240 794 214 634 c 0,0,1
98 628 m 0,13,14
 134 842 134 842 289 964 c 128,-1,15
 444 1086 444 1086 672 1086 c 0,16,17
 896 1086 896 1086 1006 960 c 128,-1,18
 1116 834 1116 834 1084 640 c 0,19,20
 1062 502 1062 502 935 362 c 128,-1,21
 808 222 808 222 616 134 c 1,22,23
 836 -8 836 -8 812 -164 c 0,24,25
 790 -294 790 -294 676 -378 c 128,-1,26
 562 -462 562 -462 388 -462 c 0,27,28
 120 -462 120 -462 18 -242 c 1,29,-1
 116 -184 l 1,30,31
 150 -254 150 -254 223 -306 c 128,-1,32
 296 -358 296 -358 404 -358 c 256,33,34
 512 -358 512 -358 597 -306 c 128,-1,35
 682 -254 682 -254 696 -166 c 0,36,37
 702 -126 702 -126 683 -87 c 128,-1,38
 664 -48 664 -48 616 -9 c 128,-1,39
 568 30 568 30 525 57 c 128,-1,40
 482 84 482 84 406 126 c 0,41,42
 48 332 48 332 98 628 c 0,13,14
EndSplineSet
EndChar

StartChar: uni018E
Encoding: 398 398 336
Width: 1180
GlyphClass: 2
Flags: W
LayerCount: 2
Fore
SplineSet
-20 0 m 1,0,-1
 -2 108 l 1,1,-1
 780 108 l 1,2,-1
 880 708 l 1,3,-1
 190 708 l 1,4,-1
 208 814 l 1,5,-1
 898 814 l 1,6,-1
 988 1362 l 1,7,-1
 228 1362 l 1,8,-1
 246 1470 l 1,9,-1
 1132 1470 l 1,10,-1
 888 0 l 1,11,-1
 -20 0 l 1,0,-1
EndSplineSet
EndChar

StartChar: uni018F
Encoding: 399 399 337
Width: 1350
GlyphClass: 2
Flags: W
LayerCount: 2
Fore
SplineSet
112 668 m 0,0,1
 126 752 126 752 132 782 c 1,2,-1
 1160 782 l 1,3,4
 1196 1064 1196 1064 1106 1231 c 128,-1,5
 1016 1398 1016 1398 786 1398 c 0,6,7
 530 1398 530 1398 346 1162 c 1,8,-1
 248 1206 l 1,9,10
 342 1346 342 1346 488 1427 c 128,-1,11
 634 1508 634 1508 806 1508 c 0,12,13
 1010 1508 1010 1508 1130 1404 c 128,-1,14
 1250 1300 1250 1300 1284 1130 c 128,-1,15
 1318 960 1318 960 1280 732 c 0,16,17
 1220 364 1220 364 1019 164 c 128,-1,18
 818 -36 818 -36 558 -36 c 0,19,20
 412 -36 412 -36 310 24 c 128,-1,21
 208 84 208 84 160 185 c 128,-1,22
 112 286 112 286 101 408 c 128,-1,23
 90 530 90 530 112 668 c 0,0,1
242 674 m 1,24,25
 240 664 240 664 238 647 c 128,-1,26
 236 630 236 630 236 624 c 0,27,28
 224 544 224 544 226 471 c 128,-1,29
 228 398 228 398 247 324 c 128,-1,30
 266 250 266 250 303 195 c 128,-1,31
 340 140 340 140 411 106 c 128,-1,32
 482 72 482 72 578 72 c 0,33,34
 658 72 658 72 741 104 c 128,-1,35
 824 136 824 136 906 203 c 128,-1,36
 988 270 988 270 1051 392 c 128,-1,37
 1114 514 1114 514 1144 674 c 1,38,-1
 242 674 l 1,24,25
EndSplineSet
EndChar

StartChar: uni0190
Encoding: 400 400 338
Width: 1166
GlyphClass: 2
Flags: W
LayerCount: 2
Fore
SplineSet
72 402 m 0,0,1
 98 560 98 560 211 656 c 128,-1,2
 324 752 324 752 454 782 c 1,3,4
 356 818 356 818 294 911 c 128,-1,5
 232 1004 232 1004 254 1138 c 0,6,7
 280 1296 280 1296 417 1402 c 128,-1,8
 554 1508 554 1508 760 1508 c 0,9,10
 1072 1508 1072 1508 1162 1214 c 1,11,-1
 1050 1176 l 1,12,13
 972 1402 972 1402 746 1402 c 0,14,15
 604 1402 604 1402 500 1325 c 128,-1,16
 396 1248 396 1248 376 1126 c 0,17,18
 354 988 354 988 446 907 c 128,-1,19
 538 826 538 826 682 826 c 0,20,21
 776 826 776 826 796 828 c 1,22,-1
 778 722 l 1,23,24
 756 724 756 724 660 724 c 0,25,26
 500 724 500 724 363 641 c 128,-1,27
 226 558 226 558 200 404 c 0,28,29
 172 240 172 240 273 154 c 128,-1,30
 374 68 374 68 532 68 c 0,31,32
 642 68 642 68 758 128 c 128,-1,33
 874 188 874 188 944 278 c 1,34,-1
 1038 234 l 1,35,36
 954 112 954 112 811 38 c 128,-1,37
 668 -36 668 -36 512 -36 c 0,38,39
 294 -36 294 -36 166 80 c 128,-1,40
 38 196 38 196 72 402 c 0,0,1
EndSplineSet
EndChar

StartChar: uni0191
Encoding: 401 401 339
Width: 1120
GlyphClass: 2
Flags: W
LayerCount: 2
Fore
SplineSet
-212 -362 m 1,0,1
 -162 -370 -162 -370 -118 -370 c 0,2,3
 -18 -370 -18 -370 35 -302 c 128,-1,4
 88 -234 88 -234 110 -94 c 2,5,-1
 370 1470 l 1,6,-1
 1226 1470 l 1,7,-1
 1208 1362 l 1,8,-1
 476 1362 l 1,9,-1
 382 794 l 1,10,-1
 1042 794 l 1,11,-1
 1024 688 l 1,12,-1
 364 688 l 1,13,-1
 234 -94 l 2,14,15
 170 -478 170 -478 -116 -478 c 0,16,17
 -178 -478 -178 -478 -230 -468 c 1,18,-1
 -212 -362 l 1,0,1
EndSplineSet
EndChar

StartChar: florin
Encoding: 402 402 340
Width: 630
GlyphClass: 2
Flags: W
LayerCount: 2
Fore
SplineSet
-208 -364 m 1,0,1
 -170 -372 -170 -372 -116 -372 c 0,2,3
 72 -372 72 -372 122 -78 c 2,4,-1
 292 948 l 1,5,-1
 110 948 l 1,6,-1
 128 1050 l 1,7,-1
 308 1050 l 1,8,-1
 338 1228 l 2,9,10
 364 1380 364 1380 449 1454 c 128,-1,11
 534 1528 534 1528 658 1528 c 2,12,-1
 774 1528 l 1,13,-1
 756 1426 l 1,14,-1
 654 1426 l 2,15,16
 484 1426 484 1426 450 1214 c 2,17,-1
 422 1050 l 1,18,-1
 668 1050 l 1,19,-1
 652 948 l 1,20,-1
 406 948 l 1,21,-1
 236 -82 l 2,22,23
 202 -284 202 -284 111 -381 c 128,-1,24
 20 -478 20 -478 -114 -478 c 0,25,26
 -150 -478 -150 -478 -224 -468 c 1,27,-1
 -208 -364 l 1,0,1
EndSplineSet
EndChar

StartChar: uni0194
Encoding: 404 404 342
Width: 1172
GlyphClass: 2
Flags: W
LayerCount: 2
Fore
SplineSet
146 1470 m 1,0,-1
 284 1470 l 1,1,-1
 542 272 l 1,2,-1
 544 272 l 1,3,-1
 576 342 l 1,4,-1
 1188 1470 l 1,5,-1
 1328 1470 l 1,6,-1
 624 206 l 1,7,8
 692 90 692 90 724 0 c 128,-1,9
 756 -90 756 -90 740 -190 c 0,10,11
 720 -310 720 -310 629 -394 c 128,-1,12
 538 -478 538 -478 418 -478 c 256,13,14
 296 -478 296 -478 231 -399 c 128,-1,15
 166 -320 166 -320 188 -190 c 0,16,17
 198 -124 198 -124 242 -47 c 128,-1,18
 286 30 286 30 326 80 c 128,-1,19
 366 130 366 130 434 206 c 1,20,-1
 146 1470 l 1,0,-1
314 -186 m 0,21,22
 300 -268 300 -268 333 -322 c 128,-1,23
 366 -376 366 -376 434 -376 c 0,24,25
 500 -376 500 -376 552 -319 c 128,-1,26
 604 -262 604 -262 616 -186 c 0,27,28
 638 -52 638 -52 516 134 c 1,29,30
 338 -44 338 -44 314 -186 c 0,21,22
EndSplineSet
EndChar

StartChar: uni0195
Encoding: 405 405 343
Width: 1702
GlyphClass: 2
Flags: W
LayerCount: 2
Fore
SplineSet
72 0 m 1,0,-1
 324 1528 l 1,1,-1
 440 1528 l 1,2,-1
 330 866 l 1,3,-1
 332 866 l 1,4,5
 388 960 388 960 486 1023 c 128,-1,6
 584 1086 584 1086 694 1086 c 0,7,8
 1014 1086 1014 1086 948 680 c 2,9,-1
 890 336 l 2,10,11
 870 212 870 212 921 139 c 128,-1,12
 972 66 972 66 1098 66 c 0,13,14
 1358 66 1358 66 1406 346 c 2,15,-1
 1522 1050 l 1,16,-1
 1638 1050 l 1,17,-1
 1520 334 l 2,18,19
 1490 154 1490 154 1376 59 c 128,-1,20
 1262 -36 1262 -36 1082 -36 c 0,21,22
 926 -36 926 -36 834 46 c 128,-1,23
 742 128 742 128 772 314 c 2,24,-1
 830 658 l 2,25,26
 884 984 884 984 656 984 c 0,27,28
 534 984 534 984 424 879 c 128,-1,29
 314 774 314 774 292 636 c 0,30,31
 292 632 292 632 290 630 c 2,32,-1
 186 0 l 1,33,-1
 72 0 l 1,0,-1
EndSplineSet
EndChar

StartChar: uni0196
Encoding: 406 406 344
Width: 652
GlyphClass: 2
Flags: W
LayerCount: 2
Fore
SplineSet
154 316 m 2,0,-1
 346 1470 l 1,1,-1
 470 1470 l 1,2,-1
 280 320 l 2,3,4
 258 190 258 190 288 131 c 128,-1,5
 318 72 318 72 404 72 c 0,6,7
 486 72 486 72 544 82 c 1,8,-1
 526 -24 l 1,9,10
 442 -36 442 -36 370 -36 c 0,11,12
 96 -36 96 -36 154 316 c 2,0,-1
EndSplineSet
EndChar

StartChar: uni0197
Encoding: 407 407 345
Width: 546
GlyphClass: 2
Flags: W
LayerCount: 2
Fore
SplineSet
78 702 m 1,0,-1
 94 800 l 1,1,-1
 250 800 l 1,2,-1
 360 1470 l 1,3,-1
 484 1470 l 1,4,-1
 374 800 l 1,5,-1
 530 800 l 1,6,-1
 514 702 l 1,7,-1
 356 702 l 1,8,-1
 240 0 l 1,9,-1
 118 0 l 1,10,-1
 234 702 l 1,11,-1
 78 702 l 1,0,-1
EndSplineSet
EndChar

StartChar: uni0198
Encoding: 408 408 346
Width: 1234
GlyphClass: 2
Flags: W
LayerCount: 2
Fore
SplineSet
106 0 m 1,0,-1
 350 1470 l 1,1,-1
 474 1470 l 1,2,-1
 338 650 l 1,3,-1
 342 650 l 1,4,-1
 1100 1400 l 2,5,6
 1210 1508 1210 1508 1354 1508 c 0,7,8
 1406 1508 1406 1508 1474 1492 c 1,9,-1
 1456 1384 l 1,10,11
 1396 1398 1396 1398 1342 1398 c 0,12,13
 1266 1398 1266 1398 1204 1340 c 2,14,-1
 688 836 l 1,15,-1
 1132 0 l 1,16,-1
 972 0 l 1,17,-1
 592 744 l 1,18,-1
 308 468 l 1,19,-1
 230 0 l 1,20,-1
 106 0 l 1,0,-1
EndSplineSet
EndChar

StartChar: uni0199
Encoding: 409 409 347
Width: 946
GlyphClass: 2
Flags: W
LayerCount: 2
Fore
SplineSet
74 0 m 1,0,-1
 278 1230 l 2,1,2
 302 1376 302 1376 396 1457 c 128,-1,3
 490 1538 490 1538 634 1538 c 0,4,5
 700 1538 700 1538 756 1532 c 1,6,-1
 738 1426 l 1,7,8
 674 1434 674 1434 634 1434 c 0,9,10
 540 1434 540 1434 474 1376 c 128,-1,11
 408 1318 408 1318 390 1210 c 2,12,-1
 270 484 l 1,13,-1
 836 1050 l 1,14,-1
 988 1050 l 1,15,-1
 564 634 l 1,16,-1
 860 0 l 1,17,-1
 718 0 l 1,18,-1
 474 546 l 1,19,-1
 242 318 l 1,20,-1
 190 0 l 1,21,-1
 74 0 l 1,0,-1
EndSplineSet
EndChar

StartChar: uni019A
Encoding: 410 410 348
Width: 474
GlyphClass: 2
Flags: W
LayerCount: 2
Fore
SplineSet
50 742 m 1,0,-1
 68 842 l 1,1,-1
 226 842 l 1,2,-1
 340 1528 l 1,3,-1
 456 1528 l 1,4,-1
 342 842 l 1,5,-1
 502 842 l 1,6,-1
 484 742 l 1,7,-1
 324 742 l 1,8,-1
 202 0 l 1,9,-1
 88 0 l 1,10,-1
 210 742 l 1,11,-1
 50 742 l 1,0,-1
EndSplineSet
EndChar

StartChar: uni019B
Encoding: 411 411 349
Width: 916
GlyphClass: 2
Flags: W
LayerCount: 2
Fore
SplineSet
-78 0 m 1,0,-1
 492 1078 l 1,1,-1
 474 1190 l 1,2,-1
 208 1012 l 1,3,-1
 164 1088 l 1,4,-1
 454 1278 l 1,5,6
 412 1420 412 1420 294 1420 c 2,7,-1
 256 1420 l 1,8,-1
 274 1522 l 1,9,-1
 330 1522 l 2,10,11
 482 1522 482 1522 552 1342 c 1,12,-1
 762 1486 l 1,13,-1
 806 1408 l 1,14,-1
 576 1254 l 1,15,-1
 578 1238 l 1,16,-1
 806 0 l 1,17,-1
 672 0 l 1,18,-1
 568 660 l 2,19,20
 544 792 544 792 526 926 c 1,21,-1
 520 926 l 1,22,23
 498 878 498 878 392 662 c 2,24,-1
 58 0 l 1,25,-1
 -78 0 l 1,0,-1
EndSplineSet
EndChar

StartChar: uni019C
Encoding: 412 412 350
Width: 1850
GlyphClass: 2
Flags: W
CounterMasks: 1 1c
LayerCount: 2
Fore
SplineSet
176 416 m 2,0,-1
 350 1470 l 1,1,-1
 474 1470 l 1,2,-1
 298 414 l 2,3,4
 242 70 242 70 468 70 c 0,5,6
 596 70 596 70 708 182 c 128,-1,7
 820 294 820 294 848 462 c 2,8,-1
 1014 1470 l 1,9,-1
 1138 1470 l 1,10,-1
 962 412 l 2,11,12
 936 254 936 254 979 163 c 128,-1,13
 1022 72 1022 72 1140 72 c 0,14,15
 1274 72 1274 72 1378 178 c 128,-1,16
 1482 284 1482 284 1510 450 c 2,17,-1
 1678 1470 l 1,18,-1
 1802 1470 l 1,19,-1
 1558 0 l 1,20,-1
 1438 0 l 1,21,-1
 1470 182 l 1,22,-1
 1466 182 l 1,23,24
 1420 92 1420 92 1318 28 c 128,-1,25
 1216 -36 1216 -36 1096 -36 c 0,26,27
 964 -36 964 -36 904 38 c 128,-1,28
 844 112 844 112 838 222 c 1,29,30
 804 136 804 136 691 50 c 128,-1,31
 578 -36 578 -36 424 -36 c 0,32,33
 102 -36 102 -36 176 416 c 2,0,-1
EndSplineSet
EndChar

StartChar: uni019D
Encoding: 413 413 351
Width: 1432
GlyphClass: 2
Flags: W
LayerCount: 2
Fore
SplineSet
368 1470 m 1,0,-1
 514 1470 l 1,1,-1
 966 390 l 1,2,-1
 1052 178 l 1,3,-1
 1062 178 l 1,4,5
 1072 350 1072 350 1110 572 c 2,6,-1
 1258 1470 l 1,7,-1
 1384 1470 l 1,8,-1
 1140 0 l 1,9,-1
 996 0 l 1,10,-1
 540 1084 l 1,11,-1
 456 1290 l 1,12,-1
 448 1290 l 1,13,14
 432 1102 432 1102 396 884 c 2,15,-1
 242 -46 l 2,16,17
 170 -478 170 -478 -130 -478 c 0,18,19
 -176 -478 -176 -478 -214 -470 c 1,20,-1
 -196 -364 l 1,21,22
 -172 -370 -172 -370 -132 -370 c 0,23,24
 -14 -370 -14 -370 38 -289 c 128,-1,25
 90 -208 90 -208 118 -42 c 2,26,-1
 368 1470 l 1,0,-1
EndSplineSet
EndChar

StartChar: uni019E
Encoding: 414 414 352
Width: 1082
GlyphClass: 2
Flags: W
LayerCount: 2
Fore
SplineSet
60 0 m 1,0,-1
 234 1050 l 1,1,-1
 348 1050 l 1,2,-1
 316 858 l 1,3,-1
 318 858 l 1,4,5
 368 952 368 952 467 1019 c 128,-1,6
 566 1086 566 1086 688 1086 c 0,7,8
 822 1086 822 1086 899 995 c 128,-1,9
 976 904 976 904 938 680 c 2,10,-1
 748 -470 l 1,11,-1
 632 -470 l 1,12,-1
 818 658 l 2,13,14
 872 984 872 984 646 984 c 0,15,16
 524 984 524 984 414 881 c 128,-1,17
 304 778 304 778 282 640 c 0,18,19
 282 636 282 636 280 634 c 2,20,-1
 176 0 l 1,21,-1
 60 0 l 1,0,-1
EndSplineSet
EndChar

StartChar: uni019F
Encoding: 415 415 353
Width: 1374
GlyphClass: 2
Flags: W
LayerCount: 2
Fore
SplineSet
128 736 m 0,0,1
 186 1084 186 1084 381 1296 c 128,-1,2
 576 1508 576 1508 844 1508 c 0,3,4
 1114 1508 1114 1508 1237 1295 c 128,-1,5
 1360 1082 1360 1082 1302 734 c 0,6,7
 1244 382 1244 382 1050 173 c 128,-1,8
 856 -36 856 -36 588 -36 c 256,9,10
 320 -36 320 -36 195 175 c 128,-1,11
 70 386 70 386 128 736 c 0,0,1
1166 682 m 1,12,-1
 248 682 l 1,13,14
 212 404 212 404 307 239 c 128,-1,15
 402 74 402 74 606 74 c 0,16,17
 808 74 808 74 959 237 c 128,-1,18
 1110 400 1110 400 1166 682 c 1,12,-1
264 782 m 1,19,-1
 1182 782 l 1,20,21
 1218 1064 1218 1064 1125 1231 c 128,-1,22
 1032 1398 1032 1398 826 1398 c 0,23,24
 622 1398 622 1398 471 1232 c 128,-1,25
 320 1066 320 1066 264 782 c 1,19,-1
EndSplineSet
EndChar

StartChar: uni01A2
Encoding: 418 418 356
Width: 1910
GlyphClass: 2
Flags: W
LayerCount: 2
Fore
SplineSet
126 724 m 0,0,1
 186 1088 186 1088 387 1298 c 128,-1,2
 588 1508 588 1508 838 1508 c 0,3,4
 944 1508 944 1508 1119 1467 c 128,-1,5
 1294 1426 1294 1426 1454 1426 c 0,6,7
 1596 1426 1596 1426 1860 1470 c 1,8,-1
 1618 0 l 1,9,-1
 1496 0 l 1,10,-1
 1718 1346 l 1,11,12
 1568 1320 1568 1320 1434 1320 c 256,13,14
 1298 1320 1298 1320 1174 1342 c 1,15,-1
 970 104 l 1,16,17
 798 -36 798 -36 582 -36 c 0,18,19
 332 -36 332 -36 201 174 c 128,-1,20
 70 384 70 384 126 724 c 0,0,1
254 724 m 0,21,22
 204 422 204 422 308 247 c 128,-1,23
 412 72 412 72 600 72 c 0,24,25
 660 72 660 72 716 87 c 128,-1,26
 772 102 772 102 792 113 c 128,-1,27
 812 124 812 124 854 150 c 1,28,-1
 1054 1360 l 1,29,30
 1038 1364 1038 1364 1009 1373 c 128,-1,31
 980 1382 980 1382 963 1387 c 128,-1,32
 946 1392 946 1392 907 1396 c 128,-1,33
 868 1400 868 1400 820 1400 c 0,34,35
 636 1400 636 1400 472 1225 c 128,-1,36
 308 1050 308 1050 254 724 c 0,21,22
EndSplineSet
EndChar

StartChar: uni01A3
Encoding: 419 419 357
Width: 1532
GlyphClass: 2
Flags: W
LayerCount: 2
Fore
SplineSet
80 524 m 256,0,1
 124 794 124 794 272 940 c 128,-1,2
 420 1086 420 1086 622 1086 c 0,3,4
 712 1086 712 1086 862 1056 c 128,-1,5
 1012 1026 1012 1026 1144 1026 c 0,6,7
 1300 1026 1300 1026 1460 1056 c 1,8,-1
 1286 0 l 1,9,-1
 1172 0 l 1,10,-1
 1328 940 l 1,11,12
 1212 924 1212 924 1128 924 c 0,13,14
 1004 924 1004 924 940 934 c 1,15,-1
 810 150 l 1,16,17
 658 -36 658 -36 436 -36 c 0,18,19
 240 -36 240 -36 138 109 c 128,-1,20
 36 254 36 254 80 524 c 256,0,1
196 524 m 0,21,22
 162 316 162 316 233 191 c 128,-1,23
 304 66 304 66 454 66 c 0,24,25
 594 66 594 66 704 204 c 1,26,-1
 828 952 l 1,27,28
 694 984 694 984 606 984 c 0,29,30
 442 984 442 984 336 855 c 128,-1,31
 230 726 230 726 196 524 c 0,21,22
EndSplineSet
EndChar

StartChar: uni01A5
Encoding: 421 421 359
Width: 1098
GlyphClass: 2
Flags: W
LayerCount: 2
Fore
SplineSet
272 528 m 0,0,1
 236 316 236 316 301 191 c 128,-1,2
 366 66 366 66 502 66 c 256,3,4
 638 66 638 66 747 190 c 128,-1,5
 856 314 856 314 890 526 c 0,6,7
 924 730 924 730 860 857 c 128,-1,8
 796 984 796 984 654 984 c 0,9,10
 524 984 524 984 415 859 c 128,-1,11
 306 734 306 734 272 528 c 0,0,1
-6 -470 m 1,12,-1
 274 1226 l 2,13,14
 300 1388 300 1388 400 1463 c 128,-1,15
 500 1538 500 1538 622 1538 c 0,16,17
 668 1538 668 1538 750 1530 c 1,18,-1
 732 1424 l 1,19,20
 678 1430 678 1430 620 1430 c 0,21,22
 520 1430 520 1430 460 1365 c 128,-1,23
 400 1300 400 1300 384 1208 c 2,24,-1
 322 832 l 1,25,26
 366 930 366 930 466 1008 c 128,-1,27
 566 1086 566 1086 686 1086 c 0,28,29
 868 1086 868 1086 958 934 c 128,-1,30
 1048 782 1048 782 1006 526 c 0,31,32
 960 250 960 250 813 107 c 128,-1,33
 666 -36 666 -36 498 -36 c 0,34,35
 378 -36 378 -36 309 35 c 128,-1,36
 240 106 240 106 220 208 c 1,37,-1
 108 -470 l 1,38,-1
 -6 -470 l 1,12,-1
EndSplineSet
EndChar

StartChar: uni01A6
Encoding: 422 422 360
Width: 1180
GlyphClass: 2
Flags: W
LayerCount: 2
Fore
SplineSet
296 580 m 1,0,-1
 614 580 l 2,1,2
 700 580 700 580 771 602 c 128,-1,3
 842 624 842 624 902 691 c 128,-1,4
 962 758 962 758 978 864 c 0,5,6
 998 988 998 988 935 1059 c 128,-1,7
 872 1130 872 1130 712 1130 c 2,8,-1
 388 1130 l 1,9,-1
 296 580 l 1,0,-1
76 0 m 1,10,-1
 318 1470 l 1,11,-1
 444 1470 l 1,12,-1
 406 1236 l 1,13,-1
 760 1236 l 2,14,15
 966 1236 966 1236 1049 1133 c 128,-1,16
 1132 1030 1132 1030 1106 872 c 0,17,18
 1092 790 1092 790 1054 725 c 128,-1,19
 1016 660 1016 660 979 626 c 128,-1,20
 942 592 942 592 883 564 c 128,-1,21
 824 536 824 536 802 529 c 128,-1,22
 780 522 780 522 738 512 c 1,23,24
 810 474 810 474 838 416 c 128,-1,25
 866 358 866 358 884 252 c 0,26,27
 888 228 888 228 897 169 c 128,-1,28
 906 110 906 110 913 82 c 128,-1,29
 920 54 920 54 930 8 c 128,-1,30
 940 -38 940 -38 952 -78 c 128,-1,31
 964 -118 964 -118 980 -160 c 1,32,-1
 842 -160 l 1,33,34
 820 -100 820 -100 806 -35 c 128,-1,35
 792 30 792 30 776 121 c 128,-1,36
 760 212 760 212 748 264 c 0,37,38
 726 370 726 370 678 422 c 128,-1,39
 630 474 630 474 528 474 c 2,40,-1
 280 474 l 1,41,-1
 200 0 l 1,42,-1
 76 0 l 1,10,-1
EndSplineSet
EndChar

StartChar: uni01A7
Encoding: 423 423 361
Width: 1176
GlyphClass: 2
Flags: W
LayerCount: 2
Fore
SplineSet
52 380 m 0,0,1
 64 454 64 454 101 515 c 128,-1,2
 138 576 138 576 182 616 c 128,-1,3
 226 656 226 656 296 692 c 128,-1,4
 366 728 366 728 420 749 c 128,-1,5
 474 770 474 770 556 796 c 0,6,7
 646 824 646 824 688 839 c 128,-1,8
 730 854 730 854 802 886 c 128,-1,9
 874 918 874 918 911 948 c 128,-1,10
 948 978 948 978 981 1025 c 128,-1,11
 1014 1072 1014 1072 1024 1130 c 0,12,13
 1044 1254 1044 1254 966 1326 c 128,-1,14
 888 1398 888 1398 726 1398 c 0,15,16
 500 1398 500 1398 334 1208 c 1,17,-1
 234 1246 l 1,18,19
 312 1356 312 1356 447 1432 c 128,-1,20
 582 1508 582 1508 742 1508 c 0,21,22
 960 1508 960 1508 1071 1405 c 128,-1,23
 1182 1302 1182 1302 1152 1130 c 0,24,25
 1140 1052 1140 1052 1099 988 c 128,-1,26
 1058 924 1058 924 1014 886 c 128,-1,27
 970 848 970 848 889 809 c 128,-1,28
 808 770 808 770 760 753 c 128,-1,29
 712 736 712 736 612 704 c 0,30,31
 514 672 514 672 459 650 c 128,-1,32
 404 628 404 628 335 589 c 128,-1,33
 266 550 266 550 228 497 c 128,-1,34
 190 444 190 444 180 374 c 0,35,36
 156 234 156 234 244 153 c 128,-1,37
 332 72 332 72 494 72 c 0,38,39
 620 72 620 72 741 137 c 128,-1,40
 862 202 862 202 940 300 c 1,41,-1
 1042 256 l 1,42,43
 948 126 948 126 801 45 c 128,-1,44
 654 -36 654 -36 480 -36 c 0,45,46
 252 -36 252 -36 136 75 c 128,-1,47
 20 186 20 186 52 380 c 0,0,1
EndSplineSet
EndChar

StartChar: uni01A8
Encoding: 424 424 362
Width: 922
GlyphClass: 2
Flags: W
LayerCount: 2
Fore
SplineSet
20 254 m 0,0,1
 28 308 28 308 58 353 c 128,-1,2
 88 398 88 398 125 428 c 128,-1,3
 162 458 162 458 221 486 c 128,-1,4
 280 514 280 514 321 529 c 128,-1,5
 362 544 362 544 426 564 c 0,6,7
 492 584 492 584 535 600 c 128,-1,8
 578 616 578 616 628 643 c 128,-1,9
 678 670 678 670 707 708 c 128,-1,10
 736 746 736 746 744 796 c 0,11,12
 758 882 758 882 699 933 c 128,-1,13
 640 984 640 984 522 984 c 0,14,15
 428 984 428 984 347 934 c 128,-1,16
 266 884 266 884 214 812 c 1,17,-1
 142 866 l 1,18,19
 204 958 204 958 313 1022 c 128,-1,20
 422 1086 422 1086 542 1086 c 0,21,22
 704 1086 704 1086 794 1010 c 128,-1,23
 884 934 884 934 860 798 c 0,24,25
 848 730 848 730 814 678 c 128,-1,26
 780 626 780 626 722 590 c 128,-1,27
 664 554 664 554 616 534 c 128,-1,28
 568 514 568 514 494 490 c 0,29,30
 482 486 482 486 447 475 c 128,-1,31
 412 464 412 464 398 460 c 128,-1,32
 384 456 384 456 351 445 c 128,-1,33
 318 434 318 434 304 427 c 128,-1,34
 290 420 290 420 264 407 c 128,-1,35
 238 394 238 394 225 384 c 128,-1,36
 212 374 212 374 194 359 c 128,-1,37
 176 344 176 344 166 329 c 128,-1,38
 156 314 156 314 148 295 c 128,-1,39
 140 276 140 276 136 254 c 0,40,41
 122 168 122 168 184 117 c 128,-1,42
 246 66 246 66 370 66 c 0,43,44
 464 66 464 66 555 115 c 128,-1,45
 646 164 646 164 710 250 c 1,46,-1
 788 196 l 1,47,48
 620 -36 620 -36 354 -36 c 0,49,50
 172 -36 172 -36 86 49 c 128,-1,51
 0 134 0 134 20 254 c 0,0,1
EndSplineSet
EndChar

StartChar: uni01A9
Encoding: 425 425 363
Width: 1182
GlyphClass: 2
Flags: W
LayerCount: 2
Fore
SplineSet
70 0 m 1,0,-1
 84 88 l 1,1,-1
 734 736 l 1,2,-1
 298 1382 l 1,3,-1
 314 1470 l 1,4,-1
 1190 1470 l 1,5,-1
 1172 1360 l 1,6,-1
 464 1360 l 1,7,-1
 878 736 l 1,8,-1
 256 108 l 1,9,-1
 976 108 l 1,10,-1
 958 0 l 1,11,-1
 70 0 l 1,0,-1
EndSplineSet
EndChar

StartChar: uni01AA
Encoding: 426 426 364
Width: 820
GlyphClass: 2
Flags: W
LayerCount: 2
Fore
SplineSet
146 1230 m 256,0,1
 134 1154 134 1154 178 1109 c 128,-1,2
 222 1064 222 1064 294 1064 c 0,3,4
 424 1064 424 1064 508 1136 c 1,5,6
 516 1182 516 1182 515 1225 c 128,-1,7
 514 1268 514 1268 500 1310 c 128,-1,8
 486 1352 486 1352 449 1378 c 128,-1,9
 412 1404 412 1404 354 1404 c 0,10,11
 280 1404 280 1404 219 1355 c 128,-1,12
 158 1306 158 1306 146 1230 c 256,0,1
28 1226 m 0,13,14
 50 1356 50 1356 147 1432 c 128,-1,15
 244 1508 244 1508 368 1508 c 0,16,17
 524 1508 524 1508 586 1404 c 128,-1,18
 648 1300 648 1300 620 1124 c 2,19,-1
 406 -160 l 2,20,21
 388 -264 388 -264 419 -317 c 128,-1,22
 450 -370 450 -370 544 -370 c 0,23,24
 584 -370 584 -370 642 -362 c 1,25,-1
 624 -468 l 1,26,27
 542 -478 542 -478 506 -478 c 0,28,29
 238 -478 238 -478 290 -164 c 2,30,-1
 486 1024 l 1,31,32
 404 960 404 960 262 960 c 0,33,34
 144 960 144 960 76 1034 c 128,-1,35
 8 1108 8 1108 28 1226 c 0,13,14
EndSplineSet
EndChar

StartChar: uni01AB
Encoding: 427 427 365
Width: 688
GlyphClass: 2
Flags: W
LayerCount: 2
Fore
SplineSet
104 948 m 1,0,-1
 122 1050 l 1,1,-1
 304 1050 l 1,2,-1
 362 1396 l 1,3,-1
 476 1396 l 1,4,-1
 418 1050 l 1,5,-1
 676 1050 l 1,6,-1
 660 948 l 1,7,-1
 402 948 l 1,8,-1
 294 298 l 2,9,10
 276 194 276 194 308 149 c 128,-1,11
 340 104 340 104 424 104 c 0,12,13
 526 104 526 104 580 114 c 1,14,-1
 550 -70 l 2,15,16
 482 -478 482 -478 198 -478 c 0,17,18
 170 -478 170 -478 106 -468 c 1,19,-1
 122 -362 l 1,20,21
 166 -370 166 -370 206 -370 c 0,22,23
 298 -370 298 -370 354 -306 c 128,-1,24
 410 -242 410 -242 436 -84 c 2,25,-1
 450 0 l 1,26,27
 442 0 442 0 432 0 c 0,28,29
 398 0 398 0 338 4 c 0,30,31
 136 28 136 28 178 286 c 2,32,-1
 288 948 l 1,33,-1
 104 948 l 1,0,-1
EndSplineSet
EndChar

StartChar: uni01AC
Encoding: 428 428 366
Width: 1118
GlyphClass: 2
Flags: W
LayerCount: 2
Fore
SplineSet
76 1218 m 0,0,1
 118 1470 118 1470 464 1470 c 2,2,-1
 1246 1470 l 1,3,-1
 1228 1360 l 1,4,-1
 780 1360 l 1,5,-1
 556 0 l 1,6,-1
 432 0 l 1,7,-1
 656 1360 l 1,8,-1
 450 1360 l 2,9,10
 330 1360 330 1360 266 1325 c 128,-1,11
 202 1290 202 1290 190 1210 c 0,12,13
 184 1176 184 1176 184 1148 c 1,14,-1
 74 1148 l 1,15,16
 72 1188 72 1188 76 1218 c 0,0,1
EndSplineSet
EndChar

StartChar: uni01AD
Encoding: 429 429 367
Width: 666
GlyphClass: 2
Flags: W
LayerCount: 2
Fore
SplineSet
104 948 m 1,0,-1
 122 1050 l 1,1,-1
 304 1050 l 1,2,-1
 332 1222 l 2,3,4
 356 1368 356 1368 451 1449 c 128,-1,5
 546 1530 546 1530 688 1530 c 0,6,7
 752 1530 752 1530 808 1524 c 1,8,-1
 792 1418 l 1,9,10
 744 1424 744 1424 688 1424 c 0,11,12
 592 1424 592 1424 527 1368 c 128,-1,13
 462 1312 462 1312 444 1208 c 2,14,-1
 418 1050 l 1,15,-1
 678 1050 l 1,16,-1
 660 948 l 1,17,-1
 402 948 l 1,18,-1
 294 298 l 2,19,20
 276 194 276 194 308 149 c 128,-1,21
 340 104 340 104 426 104 c 2,22,-1
 522 104 l 1,23,-1
 506 0 l 1,24,-1
 394 0 l 2,25,26
 130 0 130 0 178 286 c 2,27,-1
 288 948 l 1,28,-1
 104 948 l 1,0,-1
EndSplineSet
EndChar

StartChar: uni01AE
Encoding: 430 430 368
Width: 1068
GlyphClass: 2
Flags: W
LayerCount: 2
Fore
SplineSet
160 1360 m 1,0,-1
 178 1470 l 1,1,-1
 1194 1470 l 1,2,-1
 1176 1360 l 1,3,-1
 726 1360 l 1,4,-1
 478 -146 l 2,5,6
 458 -266 458 -266 488 -318 c 128,-1,7
 518 -370 518 -370 618 -370 c 0,8,9
 656 -370 656 -370 712 -362 c 1,10,-1
 694 -468 l 1,11,12
 620 -478 620 -478 582 -478 c 0,13,14
 446 -478 446 -478 385 -402 c 128,-1,15
 324 -326 324 -326 354 -144 c 2,16,-1
 604 1360 l 1,17,-1
 160 1360 l 1,0,-1
EndSplineSet
EndChar

StartChar: uni01B1
Encoding: 433 433 371
Width: 1460
GlyphClass: 2
Flags: W
LayerCount: 2
Fore
SplineSet
106 604 m 0,0,1
 176 1032 176 1032 628 1194 c 1,2,-1
 654 1360 l 1,3,-1
 244 1360 l 1,4,-1
 264 1470 l 1,5,-1
 772 1470 l 1,6,-1
 716 1124 l 1,7,8
 514 1068 514 1068 390 928 c 128,-1,9
 266 788 266 788 236 604 c 0,10,11
 198 372 198 372 312 223 c 128,-1,12
 426 74 426 74 650 74 c 256,13,14
 874 74 874 74 1037 224 c 128,-1,15
 1200 374 1200 374 1238 604 c 0,16,17
 1268 786 1268 786 1192 926 c 128,-1,18
 1116 1066 1116 1066 932 1124 c 1,19,-1
 988 1470 l 1,20,-1
 1498 1470 l 1,21,-1
 1480 1360 l 1,22,-1
 1068 1360 l 1,23,-1
 1040 1194 l 1,24,25
 1218 1124 1218 1124 1311 979 c 128,-1,26
 1404 834 1404 834 1366 604 c 0,27,28
 1320 332 1320 332 1124 148 c 128,-1,29
 928 -36 928 -36 632 -36 c 256,30,31
 336 -36 336 -36 198 147 c 128,-1,32
 60 330 60 330 106 604 c 0,0,1
EndSplineSet
EndChar

StartChar: uni01B2
Encoding: 434 434 372
Width: 1394
GlyphClass: 2
Flags: W
LayerCount: 2
Fore
SplineSet
186 482 m 2,0,-1
 350 1470 l 1,1,-1
 474 1470 l 1,2,-1
 310 486 l 2,3,4
 274 266 274 266 349 169 c 128,-1,5
 424 72 424 72 600 72 c 0,6,7
 812 72 812 72 982 282 c 128,-1,8
 1152 492 1152 492 1208 828 c 0,9,10
 1252 1098 1252 1098 1200 1248 c 128,-1,11
 1148 1398 1148 1398 1010 1398 c 0,12,13
 950 1398 950 1398 886 1384 c 1,14,-1
 904 1496 l 1,15,16
 1018 1508 1018 1508 1046 1508 c 0,17,18
 1226 1508 1226 1508 1309 1340 c 128,-1,19
 1392 1172 1392 1172 1336 832 c 0,20,21
 1274 454 1274 454 1069 209 c 128,-1,22
 864 -36 864 -36 582 -36 c 0,23,24
 338 -36 338 -36 240 89 c 128,-1,25
 142 214 142 214 186 482 c 2,0,-1
EndSplineSet
EndChar

StartChar: uni01B3
Encoding: 435 435 373
Width: 1144
GlyphClass: 2
Flags: W
LayerCount: 2
Fore
SplineSet
144 1470 m 1,0,-1
 288 1470 l 1,1,-1
 500 946 l 2,2,3
 550 826 550 826 592 718 c 1,4,-1
 598 718 l 1,5,6
 644 788 644 788 762 946 c 2,7,-1
 1060 1354 l 2,8,9
 1172 1508 1172 1508 1320 1508 c 0,10,11
 1348 1508 1348 1508 1400 1502 c 1,12,-1
 1382 1394 l 1,13,14
 1350 1400 1350 1400 1312 1400 c 0,15,16
 1236 1400 1236 1400 1156 1292 c 2,17,-1
 638 604 l 1,18,-1
 538 0 l 1,19,-1
 414 0 l 1,20,-1
 514 604 l 1,21,-1
 144 1470 l 1,0,-1
EndSplineSet
EndChar

StartChar: uni01B4
Encoding: 436 436 374
Width: 922
GlyphClass: 2
Flags: W
LayerCount: 2
Fore
SplineSet
98 1050 m 1,0,-1
 232 1050 l 1,1,-1
 348 388 l 2,2,3
 354 348 354 348 361 304 c 128,-1,4
 368 260 368 260 375 207 c 128,-1,5
 382 154 382 154 388 124 c 1,6,-1
 396 124 l 1,7,8
 416 166 416 166 459 255 c 128,-1,9
 502 344 502 344 524 390 c 2,10,-1
 792 936 l 2,11,12
 864 1080 864 1080 1024 1080 c 0,13,14
 1060 1080 1060 1080 1108 1072 c 1,15,-1
 1092 966 l 1,16,17
 1052 974 1052 974 1028 974 c 0,18,19
 942 974 942 974 898 886 c 2,20,-1
 354 -172 l 2,21,22
 272 -332 272 -332 190 -401 c 128,-1,23
 108 -470 108 -470 14 -470 c 2,24,-1
 -48 -470 l 1,25,-1
 -30 -368 l 1,26,-1
 8 -368 l 2,27,28
 152 -368 152 -368 264 -120 c 1,29,-1
 310 -28 l 1,30,-1
 98 1050 l 1,0,-1
EndSplineSet
EndChar

StartChar: uni01B5
Encoding: 437 437 375
Width: 1188
GlyphClass: 2
Flags: W
LayerCount: 2
Fore
SplineSet
228 678 m 1,0,-1
 246 778 l 1,1,-1
 578 778 l 1,2,-1
 1062 1362 l 1,3,-1
 288 1362 l 1,4,-1
 306 1470 l 1,5,-1
 1228 1470 l 1,6,-1
 1212 1374 l 1,7,-1
 722 778 l 1,8,-1
 1004 778 l 1,9,-1
 988 678 l 1,10,-1
 636 678 l 1,11,-1
 168 108 l 1,12,-1
 1024 108 l 1,13,-1
 1006 0 l 1,14,-1
 0 0 l 1,15,-1
 16 94 l 1,16,-1
 496 678 l 1,17,-1
 228 678 l 1,0,-1
EndSplineSet
EndChar

StartChar: uni01B6
Encoding: 438 438 376
Width: 898
GlyphClass: 2
Flags: W
LayerCount: 2
Fore
SplineSet
-28 0 m 1,0,-1
 -14 84 l 1,1,-1
 334 488 l 1,2,-1
 124 488 l 1,3,-1
 140 586 l 1,4,-1
 418 586 l 1,5,-1
 730 948 l 1,6,-1
 178 948 l 1,7,-1
 194 1050 l 1,8,-1
 896 1050 l 1,9,-1
 882 970 l 1,10,-1
 552 586 l 1,11,-1
 760 586 l 1,12,-1
 744 488 l 1,13,-1
 464 488 l 1,14,-1
 134 102 l 1,15,-1
 758 102 l 1,16,-1
 742 0 l 1,17,-1
 -28 0 l 1,0,-1
EndSplineSet
EndChar

StartChar: uni01B7
Encoding: 439 439 377
Width: 1330
GlyphClass: 2
Flags: W
LayerCount: 2
Fore
SplineSet
-18 -140 m 1,0,-1
 94 -94 l 1,1,2
 126 -208 126 -208 223 -282 c 128,-1,3
 320 -356 320 -356 460 -356 c 0,4,5
 690 -356 690 -356 841 -218 c 128,-1,6
 992 -80 992 -80 1030 150 c 0,7,8
 1066 368 1066 368 946 496 c 128,-1,9
 826 624 826 624 544 624 c 2,10,-1
 416 624 l 1,11,-1
 434 732 l 1,12,-1
 1078 1360 l 1,13,-1
 276 1360 l 1,14,-1
 294 1470 l 1,15,-1
 1282 1470 l 1,16,-1
 1270 1398 l 1,17,-1
 580 728 l 1,18,-1
 624 728 l 1,19,20
 920 714 920 714 1061 562 c 128,-1,21
 1202 410 1202 410 1158 152 c 0,22,23
 1112 -130 1112 -130 915 -297 c 128,-1,24
 718 -464 718 -464 444 -464 c 0,25,26
 258 -464 258 -464 139 -371 c 128,-1,27
 20 -278 20 -278 -18 -140 c 1,0,-1
EndSplineSet
EndChar

StartChar: uni01B8
Encoding: 440 440 378
Width: 1330
GlyphClass: 2
Flags: W
LayerCount: 2
Fore
SplineSet
36 152 m 0,0,1
 78 410 78 410 278 569 c 128,-1,2
 478 728 478 728 762 728 c 2,3,-1
 804 728 l 1,4,-1
 340 1398 l 1,5,-1
 350 1470 l 1,6,-1
 1336 1470 l 1,7,-1
 1318 1360 l 1,8,-1
 516 1360 l 1,9,-1
 952 732 l 1,10,-1
 934 624 l 1,11,-1
 808 624 l 2,12,13
 526 624 526 624 363 496 c 128,-1,14
 200 368 200 368 164 150 c 0,15,16
 126 -80 126 -80 231 -218 c 128,-1,17
 336 -356 336 -356 566 -356 c 0,18,19
 708 -356 708 -356 829 -282 c 128,-1,20
 950 -208 950 -208 1020 -94 c 1,21,-1
 1118 -140 l 1,22,23
 1034 -278 1034 -278 883 -371 c 128,-1,24
 732 -464 732 -464 546 -464 c 0,25,26
 274 -464 274 -464 132 -297 c 128,-1,27
 -10 -130 -10 -130 36 152 c 0,0,1
EndSplineSet
EndChar

StartChar: uni01B9
Encoding: 441 441 379
Width: 1020
GlyphClass: 2
Flags: W
LayerCount: 2
Fore
SplineSet
2 -8 m 0,0,1
 36 198 36 198 186 323 c 128,-1,2
 336 448 336 448 542 448 c 2,3,-1
 602 448 l 1,4,-1
 214 970 l 1,5,-1
 228 1050 l 1,6,-1
 970 1050 l 1,7,-1
 952 948 l 1,8,-1
 374 948 l 1,9,-1
 744 440 l 1,10,-1
 730 354 l 1,11,-1
 578 354 l 2,12,13
 386 354 386 354 267 257 c 128,-1,14
 148 160 148 160 120 -8 c 0,15,16
 94 -166 94 -166 163 -270 c 128,-1,17
 232 -374 232 -374 380 -374 c 0,18,19
 584 -374 584 -374 720 -168 c 1,20,-1
 812 -204 l 1,21,22
 738 -330 738 -330 622 -404 c 128,-1,23
 506 -478 506 -478 360 -478 c 0,24,25
 164 -478 164 -478 66 -347 c 128,-1,26
 -32 -216 -32 -216 2 -8 c 0,0,1
EndSplineSet
EndChar

StartChar: uni01BA
Encoding: 442 442 380
Width: 860
GlyphClass: 2
Flags: W
LayerCount: 2
Fore
SplineSet
-28 -174 m 0,0,1
 -16 -100 -16 -100 47 -39 c 128,-1,2
 110 22 110 22 193 63 c 128,-1,3
 276 104 276 104 358 143 c 128,-1,4
 440 182 440 182 502 234 c 128,-1,5
 564 286 564 286 574 350 c 0,6,7
 584 416 584 416 521 458 c 128,-1,8
 458 500 458 500 310 500 c 2,9,-1
 242 500 l 1,10,-1
 254 576 l 1,11,-1
 672 948 l 1,12,-1
 164 948 l 1,13,-1
 180 1050 l 1,14,-1
 836 1050 l 1,15,-1
 824 968 l 1,16,-1
 384 576 l 1,17,-1
 422 574 l 2,18,19
 572 572 572 572 640 514 c 128,-1,20
 708 456 708 456 692 354 c 0,21,22
 678 274 678 274 614 208 c 128,-1,23
 550 142 550 142 467 100 c 128,-1,24
 384 58 384 58 303 19 c 128,-1,25
 222 -20 222 -20 161 -67 c 128,-1,26
 100 -114 100 -114 92 -168 c 0,27,28
 68 -308 68 -308 248 -308 c 0,29,30
 316 -308 316 -308 430 -288 c 1,31,-1
 414 -392 l 1,32,33
 308 -410 308 -410 218 -410 c 0,34,35
 90 -410 90 -410 22 -349 c 128,-1,36
 -46 -288 -46 -288 -28 -174 c 0,0,1
EndSplineSet
EndChar

StartChar: uni01BB
Encoding: 443 443 381
Width: 1076
GlyphClass: 2
Flags: W
LayerCount: 2
Fore
SplineSet
238 668 m 1,0,-1
 254 768 l 1,1,-1
 690 768 l 1,2,3
 876 936 876 936 904 1108 c 0,4,5
 928 1252 928 1252 861 1327 c 128,-1,6
 794 1402 794 1402 664 1402 c 0,7,8
 546 1402 546 1402 452 1327 c 128,-1,9
 358 1252 358 1252 298 1118 c 1,10,-1
 198 1150 l 1,11,12
 264 1310 264 1310 390 1409 c 128,-1,13
 516 1508 516 1508 686 1508 c 0,14,15
 868 1508 868 1508 965 1401 c 128,-1,16
 1062 1294 1062 1294 1030 1104 c 0,17,18
 1002 934 1002 934 836 768 c 1,19,-1
 1036 768 l 1,20,-1
 1020 668 l 1,21,-1
 736 668 l 1,22,23
 706 644 706 644 637 585 c 128,-1,24
 568 526 568 526 541 504 c 128,-1,25
 514 482 514 482 460 434 c 128,-1,26
 406 386 406 386 383 363 c 128,-1,27
 360 340 360 340 321 300 c 128,-1,28
 282 260 282 260 262 233 c 128,-1,29
 242 206 242 206 219 172 c 128,-1,30
 196 138 196 138 180 104 c 1,31,-1
 862 104 l 1,32,-1
 844 0 l 1,33,-1
 16 0 l 1,34,35
 40 140 40 140 177 293 c 128,-1,36
 314 446 314 446 576 668 c 1,37,-1
 238 668 l 1,0,-1
EndSplineSet
EndChar

StartChar: uni01BC
Encoding: 444 444 382
Width: 1060
GlyphClass: 2
Flags: W
LayerCount: 2
Fore
SplineSet
34 222 m 1,0,-1
 142 264 l 1,1,2
 202 68 202 68 422 68 c 0,3,4
 570 68 570 68 673 164 c 128,-1,5
 776 260 776 260 802 420 c 0,6,7
 826 568 826 568 739 674 c 128,-1,8
 652 780 652 780 436 780 c 0,9,10
 342 780 342 780 236 762 c 1,11,-1
 404 1362 l 1,12,-1
 300 1362 l 1,13,-1
 318 1470 l 1,14,-1
 1028 1470 l 1,15,-1
 1010 1360 l 1,16,-1
 518 1360 l 1,17,-1
 388 880 l 1,18,19
 422 884 422 884 502 884 c 0,20,21
 736 884 736 884 849 752 c 128,-1,22
 962 620 962 620 928 420 c 0,23,24
 894 216 894 216 755 90 c 128,-1,25
 616 -36 616 -36 408 -36 c 0,26,27
 250 -36 250 -36 157 36 c 128,-1,28
 64 108 64 108 34 222 c 1,0,-1
EndSplineSet
EndChar

StartChar: uni01BD
Encoding: 445 445 383
Width: 856
GlyphClass: 2
Flags: W
LayerCount: 2
Fore
SplineSet
24 160 m 1,0,-1
 124 208 l 1,1,2
 148 144 148 144 201 105 c 128,-1,3
 254 66 254 66 320 66 c 0,4,5
 434 66 434 66 504 130 c 128,-1,6
 574 194 574 194 590 294 c 0,7,8
 608 404 608 404 536 478 c 128,-1,9
 464 552 464 552 332 552 c 0,10,11
 284 552 284 552 186 540 c 1,12,-1
 310 948 l 1,13,-1
 222 948 l 1,14,-1
 240 1050 l 1,15,-1
 780 1050 l 1,16,-1
 764 948 l 1,17,-1
 412 948 l 1,18,-1
 320 654 l 1,19,-1
 372 654 l 2,20,21
 552 654 552 654 643 552 c 128,-1,22
 734 450 734 450 708 298 c 0,23,24
 684 152 684 152 579 58 c 128,-1,25
 474 -36 474 -36 302 -36 c 0,26,27
 98 -36 98 -36 24 160 c 1,0,-1
EndSplineSet
EndChar

StartChar: uni01BE
Encoding: 446 446 384
Width: 814
GlyphClass: 2
Flags: W
LayerCount: 2
Fore
SplineSet
140 948 m 1,0,-1
 156 1050 l 1,1,-1
 302 1050 l 1,2,-1
 358 1382 l 1,3,-1
 470 1382 l 1,4,-1
 416 1050 l 1,5,-1
 674 1050 l 1,6,-1
 656 948 l 1,7,-1
 398 948 l 1,8,-1
 372 788 l 2,9,10
 360 714 360 714 388 656 c 128,-1,11
 416 598 416 598 464 557 c 128,-1,12
 512 516 512 516 561 476 c 128,-1,13
 610 436 610 436 638 376 c 128,-1,14
 666 316 666 316 652 242 c 0,15,16
 632 118 632 118 543 41 c 128,-1,17
 454 -36 454 -36 294 -36 c 0,18,19
 86 -36 86 -36 14 152 c 1,20,-1
 106 204 l 1,21,22
 178 66 178 66 308 66 c 0,23,24
 508 66 508 66 538 240 c 0,25,26
 546 294 546 294 516 340 c 128,-1,27
 486 386 486 386 437 424 c 128,-1,28
 388 462 388 462 342 506 c 128,-1,29
 296 550 296 550 269 619 c 128,-1,30
 242 688 242 688 256 774 c 2,31,-1
 286 948 l 1,32,-1
 140 948 l 1,0,-1
EndSplineSet
EndChar

StartChar: uni01BF
Encoding: 447 447 385
Width: 1088
GlyphClass: 2
Flags: W
LayerCount: 2
Fore
SplineSet
-6 -470 m 1,0,-1
 246 1050 l 1,1,-1
 360 1050 l 1,2,-1
 346 960 l 1,3,4
 514 1086 514 1086 682 1086 c 0,5,6
 870 1086 870 1086 959 970 c 128,-1,7
 1048 854 1048 854 1016 656 c 0,8,9
 924 102 924 102 186 2 c 1,10,-1
 108 -470 l 1,11,-1
 -6 -470 l 1,0,-1
204 102 m 1,12,13
 502 146 502 146 683 281 c 128,-1,14
 864 416 864 416 900 644 c 0,15,16
 928 812 928 812 857 898 c 128,-1,17
 786 984 786 984 652 984 c 0,18,19
 488 984 488 984 326 838 c 1,20,-1
 204 102 l 1,12,13
EndSplineSet
EndChar

StartChar: uni01C0
Encoding: 448 448 386
Width: 414
GlyphClass: 2
Flags: W
LayerCount: 2
Fore
SplineSet
-12 -436 m 1,0,-1
 332 1640 l 1,1,-1
 442 1640 l 1,2,-1
 98 -436 l 1,3,-1
 -12 -436 l 1,0,-1
EndSplineSet
EndChar

StartChar: uni01C1
Encoding: 449 449 387
Width: 724
GlyphClass: 2
Flags: W
LayerCount: 2
Fore
SplineSet
-14 -436 m 1,0,-1
 330 1640 l 1,1,-1
 442 1640 l 1,2,-1
 98 -436 l 1,3,-1
 -14 -436 l 1,0,-1
296 -436 m 1,4,-1
 640 1640 l 1,5,-1
 754 1640 l 1,6,-1
 410 -436 l 1,7,-1
 296 -436 l 1,4,-1
EndSplineSet
EndChar

StartChar: uni01C2
Encoding: 450 450 388
Width: 594
GlyphClass: 2
Flags: W
LayerCount: 2
Fore
SplineSet
86 852 m 1,0,-1
 100 940 l 1,1,-1
 306 940 l 1,2,-1
 422 1640 l 1,3,-1
 534 1640 l 1,4,-1
 418 940 l 1,5,-1
 620 940 l 1,6,-1
 604 852 l 1,7,-1
 402 852 l 1,8,-1
 344 502 l 1,9,-1
 546 502 l 1,10,-1
 532 412 l 1,11,-1
 330 412 l 1,12,-1
 190 -436 l 1,13,-1
 78 -436 l 1,14,-1
 218 412 l 1,15,-1
 12 412 l 1,16,-1
 28 502 l 1,17,-1
 234 502 l 1,18,-1
 292 852 l 1,19,-1
 86 852 l 1,0,-1
EndSplineSet
EndChar

StartChar: uni01DD
Encoding: 477 477 415
Width: 1044
GlyphClass: 2
Flags: W
LayerCount: 2
Fore
SplineSet
182 470 m 1,0,1
 154 302 154 302 221 184 c 128,-1,2
 288 66 288 66 432 66 c 256,3,4
 576 66 576 66 684 185 c 128,-1,5
 792 304 792 304 826 470 c 1,6,-1
 182 470 l 1,0,1
72 492 m 2,7,-1
 84 564 l 1,8,-1
 842 564 l 1,9,10
 870 736 870 736 802 860 c 128,-1,11
 734 984 734 984 578 984 c 0,12,13
 474 984 474 984 385 930 c 128,-1,14
 296 876 296 876 244 796 c 1,15,-1
 152 830 l 1,16,17
 310 1086 310 1086 594 1086 c 0,18,19
 804 1086 804 1086 898 928 c 128,-1,20
 992 770 992 770 950 518 c 0,21,22
 910 272 910 272 761 118 c 128,-1,23
 612 -36 612 -36 416 -36 c 256,24,25
 218 -36 218 -36 126 114 c 128,-1,26
 34 264 34 264 72 492 c 2,7,-1
EndSplineSet
EndChar

StartChar: uni01E4
Encoding: 484 484 422
Width: 1404
GlyphClass: 2
Flags: W
LayerCount: 2
Fore
SplineSet
128 736 m 0,0,1
 184 1076 184 1076 383 1292 c 128,-1,2
 582 1508 582 1508 878 1508 c 0,3,4
 1052 1508 1052 1508 1155 1416 c 128,-1,5
 1258 1324 1258 1324 1294 1206 c 1,6,-1
 1180 1168 l 1,7,8
 1160 1214 1160 1214 1139 1247 c 128,-1,9
 1118 1280 1118 1280 1081 1318 c 128,-1,10
 1044 1356 1044 1356 988 1377 c 128,-1,11
 932 1398 932 1398 858 1398 c 0,12,13
 624 1398 624 1398 465 1217 c 128,-1,14
 306 1036 306 1036 256 736 c 0,15,16
 206 432 206 432 307 253 c 128,-1,17
 408 74 408 74 632 74 c 0,18,19
 780 74 780 74 893 156 c 128,-1,20
 1006 238 1006 238 1068 372 c 1,21,-1
 670 372 l 1,22,-1
 684 460 l 1,23,-1
 1100 460 l 1,24,25
 1116 506 1116 506 1124 556 c 2,26,-1
 1142 674 l 1,27,-1
 714 674 l 1,28,-1
 732 782 l 1,29,-1
 1282 782 l 1,30,-1
 1228 460 l 1,31,-1
 1382 460 l 1,32,-1
 1368 372 l 1,33,-1
 1214 372 l 1,34,-1
 1152 0 l 1,35,-1
 1058 0 l 1,36,-1
 1090 244 l 1,37,38
 1022 122 1022 122 902 43 c 128,-1,39
 782 -36 782 -36 614 -36 c 0,40,41
 334 -36 334 -36 202 173 c 128,-1,42
 70 382 70 382 128 736 c 0,0,1
EndSplineSet
EndChar

StartChar: uni01E5
Encoding: 485 485 423
Width: 1088
GlyphClass: 2
Flags: W
LayerCount: 2
Fore
SplineSet
84 550 m 0,0,1
 124 786 124 786 260 936 c 128,-1,2
 396 1086 396 1086 580 1086 c 0,3,4
 702 1086 702 1086 768 1016 c 128,-1,5
 834 946 834 946 852 854 c 1,6,-1
 884 1050 l 1,7,-1
 996 1050 l 1,8,-1
 842 122 l 2,9,10
 820 -12 820 -12 794 -98 c 1,11,-1
 944 -98 l 1,12,-1
 930 -178 l 1,13,-1
 764 -178 l 1,14,15
 700 -326 700 -326 596 -402 c 128,-1,16
 492 -478 492 -478 332 -478 c 0,17,18
 100 -478 100 -478 2 -294 c 1,19,-1
 94 -236 l 1,20,21
 182 -378 182 -378 352 -378 c 0,22,23
 546 -378 546 -378 642 -178 c 1,24,-1
 266 -178 l 1,25,-1
 280 -98 l 1,26,-1
 678 -98 l 1,27,28
 704 -28 704 -28 726 102 c 2,29,-1
 754 262 l 1,30,31
 700 162 700 162 610 98 c 128,-1,32
 520 34 520 34 406 34 c 0,33,34
 224 34 224 34 135 176 c 128,-1,35
 46 318 46 318 84 550 c 0,0,1
200 550 m 0,36,37
 168 360 168 360 236 249 c 128,-1,38
 304 138 304 138 430 138 c 0,39,40
 564 138 564 138 666 252 c 128,-1,41
 768 366 768 366 802 564 c 0,42,43
 834 752 834 752 769 868 c 128,-1,44
 704 984 704 984 576 984 c 0,45,46
 438 984 438 984 335 861 c 128,-1,47
 232 738 232 738 200 550 c 0,36,37
EndSplineSet
EndChar

StartChar: uni01EF
Encoding: 495 495 433
Width: 1020
GlyphClass: 2
Flags: W
LayerCount: 2
Fore
SplineSet
302 1576 m 1,0,-1
 424 1576 l 1,1,-1
 614 1336 l 1,2,-1
 884 1576 l 1,3,-1
 1006 1576 l 1,4,-1
 654 1262 l 1,5,-1
 546 1262 l 1,6,-1
 302 1576 l 1,0,-1
-48 -204 m 1,7,-1
 58 -168 l 1,8,9
 126 -374 126 -374 330 -374 c 0,10,11
 478 -374 478 -374 582 -269 c 128,-1,12
 686 -164 686 -164 714 0 c 0,13,14
 740 162 740 162 652 258 c 128,-1,15
 564 354 564 354 374 354 c 2,16,-1
 222 354 l 1,17,-1
 236 440 l 1,18,-1
 774 948 l 1,19,-1
 196 948 l 1,20,-1
 214 1050 l 1,21,-1
 956 1050 l 1,22,-1
 942 970 l 1,23,-1
 382 448 l 1,24,-1
 468 446 l 1,25,26
 658 430 658 430 761 310 c 128,-1,27
 864 190 864 190 832 0 c 0,28,29
 796 -214 796 -214 654 -346 c 128,-1,30
 512 -478 512 -478 314 -478 c 0,31,32
 168 -478 168 -478 76 -404 c 128,-1,33
 -16 -330 -16 -330 -48 -204 c 1,7,-1
EndSplineSet
EndChar

StartChar: uni01F6
Encoding: 502 502 440
Width: 1992
GlyphClass: 2
Flags: W
LayerCount: 2
Fore
SplineSet
106 0 m 1,0,-1
 350 1470 l 1,1,-1
 474 1470 l 1,2,-1
 364 812 l 1,3,-1
 1080 812 l 1,4,-1
 1188 1470 l 1,5,-1
 1314 1470 l 1,6,-1
 1132 374 l 2,7,8
 1106 216 1106 216 1175 141 c 128,-1,9
 1244 66 1244 66 1368 66 c 0,10,11
 1484 66 1484 66 1576 146 c 128,-1,12
 1668 226 1668 226 1692 364 c 2,13,-1
 1804 1050 l 1,14,-1
 1926 1050 l 1,15,-1
 1810 350 l 2,16,17
 1780 166 1780 166 1650 65 c 128,-1,18
 1520 -36 1520 -36 1350 -36 c 0,19,20
 1174 -36 1174 -36 1072 57 c 128,-1,21
 970 150 970 150 1004 350 c 2,22,-1
 1062 704 l 1,23,-1
 346 704 l 1,24,-1
 230 0 l 1,25,-1
 106 0 l 1,0,-1
EndSplineSet
EndChar

StartChar: uni01F7
Encoding: 503 503 441
Width: 1250
GlyphClass: 2
Flags: W
LayerCount: 2
Fore
SplineSet
30 -456 m 1,0,-1
 350 1470 l 1,1,-1
 474 1470 l 1,2,-1
 448 1302 l 1,3,4
 684 1508 684 1508 896 1508 c 0,5,6
 1098 1508 1098 1508 1182 1369 c 128,-1,7
 1266 1230 1266 1230 1226 990 c 0,8,9
 1200 836 1200 836 1119 695 c 128,-1,10
 1038 554 1038 554 936 453 c 128,-1,11
 834 352 834 352 699 259 c 128,-1,12
 564 166 564 166 457 111 c 128,-1,13
 350 56 350 56 232 4 c 1,14,-1
 156 -456 l 1,15,-1
 30 -456 l 1,0,-1
252 122 m 1,16,17
 1016 480 1016 480 1100 984 c 0,18,19
 1130 1170 1130 1170 1069 1285 c 128,-1,20
 1008 1400 1008 1400 852 1400 c 0,21,22
 748 1400 748 1400 625 1328 c 128,-1,23
 502 1256 502 1256 424 1166 c 1,24,-1
 252 122 l 1,16,17
EndSplineSet
EndChar

StartChar: Aringacute
Encoding: 506 506 444
Width: 1238
GlyphClass: 2
Flags: W
LayerCount: 2
Fore
SplineSet
-98 0 m 1,0,-1
 692 1470 l 1,1,-1
 848 1470 l 1,2,-1
 1148 0 l 1,3,-1
 1012 0 l 1,4,-1
 928 444 l 1,5,-1
 272 444 l 1,6,-1
 40 0 l 1,7,-1
 -98 0 l 1,0,-1
326 546 m 1,8,-1
 906 546 l 1,9,-1
 802 1094 l 2,10,11
 796 1136 796 1136 779 1227 c 128,-1,12
 762 1318 762 1318 756 1354 c 1,13,-1
 746 1354 l 1,14,15
 732 1328 732 1328 684 1233 c 128,-1,16
 636 1138 636 1138 614 1094 c 2,17,-1
 326 546 l 1,8,-1
558 1770 m 0,18,19
 574 1870 574 1870 660 1944 c 0,20,21
 722 1996 722 1996 800 2012 c 1,22,-1
 984 2244 l 1,23,-1
 1150 2244 l 1,24,-1
 916 2010 l 1,25,26
 986 1996 986 1996 1028 1944 c 0,27,28
 1088 1872 1088 1872 1072 1770 c 0,29,30
 1056 1670 1056 1670 970 1597 c 128,-1,31
 884 1524 884 1524 774 1524 c 0,32,33
 666 1524 666 1524 604 1596 c 128,-1,34
 542 1668 542 1668 558 1770 c 0,18,19
648 1770 m 0,35,36
 636 1700 636 1700 675 1653 c 128,-1,37
 714 1606 714 1606 788 1606 c 0,38,39
 860 1606 860 1606 914 1652 c 128,-1,40
 968 1698 968 1698 980 1770 c 0,41,42
 992 1838 992 1838 954 1887 c 128,-1,43
 916 1936 916 1936 842 1936 c 256,44,45
 768 1936 768 1936 714 1887 c 128,-1,46
 660 1838 660 1838 648 1770 c 0,35,36
EndSplineSet
EndChar

StartChar: aringacute
Encoding: 507 507 445
Width: 1042
GlyphClass: 2
Flags: W
LayerCount: 2
Fore
SplineSet
30 252 m 0,0,1
 54 396 54 396 170 485 c 128,-1,2
 286 574 286 574 510 610 c 0,3,4
 736 648 736 648 804 674 c 1,5,-1
 814 734 l 2,6,7
 832 844 832 844 771 915 c 128,-1,8
 710 986 710 986 576 986 c 0,9,10
 486 986 486 986 394 941 c 128,-1,11
 302 896 302 896 232 820 c 1,12,-1
 168 884 l 1,13,14
 250 974 250 974 362 1030 c 128,-1,15
 474 1086 474 1086 590 1086 c 0,16,17
 796 1086 796 1086 872 978 c 128,-1,18
 948 870 948 870 918 688 c 2,19,-1
 804 0 l 1,20,-1
 694 0 l 1,21,-1
 724 190 l 1,22,23
 676 100 676 100 566 32 c 128,-1,24
 456 -36 456 -36 326 -36 c 0,25,26
 166 -36 166 -36 88 45 c 128,-1,27
 10 126 10 126 30 252 c 0,0,1
402 1452 m 0,28,29
 418 1552 418 1552 500 1626 c 0,30,31
 560 1678 560 1678 636 1694 c 1,32,-1
 816 1926 l 1,33,-1
 976 1926 l 1,34,-1
 748 1692 l 1,35,36
 816 1678 816 1678 856 1626 c 0,37,38
 914 1554 914 1554 898 1452 c 0,39,40
 882 1352 882 1352 799 1279 c 128,-1,41
 716 1206 716 1206 610 1206 c 0,42,43
 506 1206 506 1206 446 1278 c 128,-1,44
 386 1350 386 1350 402 1452 c 0,28,29
148 260 m 0,45,46
 134 180 134 180 189 123 c 128,-1,47
 244 66 244 66 358 66 c 0,48,49
 500 66 500 66 617 163 c 128,-1,50
 734 260 734 260 760 410 c 2,51,-1
 786 576 l 1,52,53
 696 548 696 548 492 516 c 0,54,55
 328 488 328 488 247 426 c 128,-1,56
 166 364 166 364 148 260 c 0,45,46
488 1452 m 0,57,58
 476 1382 476 1382 513 1335 c 128,-1,59
 550 1288 550 1288 622 1288 c 0,60,61
 692 1288 692 1288 745 1334 c 128,-1,62
 798 1380 798 1380 810 1452 c 0,63,64
 822 1520 822 1520 786 1569 c 128,-1,65
 750 1618 750 1618 678 1618 c 256,66,67
 606 1618 606 1618 553 1569 c 128,-1,68
 500 1520 500 1520 488 1452 c 0,57,58
EndSplineSet
EndChar

StartChar: uni021C
Encoding: 540 540 478
Width: 1114
GlyphClass: 2
Flags: W
LayerCount: 2
Fore
SplineSet
-52 -328 m 1,0,1
 80 -352 80 -352 206 -352 c 0,2,3
 444 -352 444 -352 612 -224 c 128,-1,4
 780 -96 780 -96 816 124 c 0,5,6
 836 246 836 246 814 334 c 128,-1,7
 792 422 792 422 738 468 c 128,-1,8
 684 514 684 514 622 535 c 128,-1,9
 560 556 560 556 486 556 c 256,10,11
 412 556 412 556 300 516 c 1,12,-1
 318 626 l 1,13,-1
 500 672 l 2,14,15
 684 720 684 720 804 829 c 128,-1,16
 924 938 924 938 948 1082 c 0,17,18
 972 1230 972 1230 897 1313 c 128,-1,19
 822 1396 822 1396 660 1396 c 0,20,21
 446 1396 446 1396 306 1188 c 1,22,-1
 210 1234 l 1,23,24
 286 1354 286 1354 407 1431 c 128,-1,25
 528 1508 528 1508 678 1508 c 0,26,27
 912 1508 912 1508 1011 1394 c 128,-1,28
 1110 1280 1110 1280 1080 1094 c 0,29,30
 1052 922 1052 922 925 800 c 128,-1,31
 798 678 798 678 658 630 c 1,32,-1
 658 628 l 1,33,34
 798 598 798 598 890 475 c 128,-1,35
 982 352 982 352 944 124 c 0,36,37
 900 -138 900 -138 694 -300 c 128,-1,38
 488 -462 488 -462 190 -462 c 0,39,40
 58 -462 58 -462 -72 -444 c 1,41,-1
 -52 -328 l 1,0,1
EndSplineSet
EndChar

StartChar: uni021D
Encoding: 541 541 479
Width: 850
GlyphClass: 2
Flags: W
LayerCount: 2
Fore
SplineSet
-58 -356 m 1,0,1
 28 -374 28 -374 122 -374 c 0,2,3
 286 -374 286 -374 398 -278 c 128,-1,4
 510 -182 510 -182 540 -6 c 0,5,6
 566 150 566 150 499 235 c 128,-1,7
 432 320 432 320 324 320 c 0,8,9
 292 320 292 320 196 296 c 1,10,-1
 212 398 l 1,11,-1
 334 426 l 2,12,13
 464 460 464 460 546 547 c 128,-1,14
 628 634 628 634 646 742 c 0,15,16
 662 844 662 844 619 914 c 128,-1,17
 576 984 576 984 464 984 c 0,18,19
 330 984 330 984 234 842 c 1,20,-1
 150 886 l 1,21,22
 204 976 204 976 293 1031 c 128,-1,23
 382 1086 382 1086 486 1086 c 0,24,25
 650 1086 650 1086 717 988 c 128,-1,26
 784 890 784 890 762 756 c 0,27,28
 740 618 740 618 656 524 c 128,-1,29
 572 430 572 430 462 384 c 1,30,31
 558 360 558 360 620 261 c 128,-1,32
 682 162 682 162 654 -2 c 0,33,34
 618 -224 618 -224 471 -351 c 128,-1,35
 324 -478 324 -478 106 -478 c 0,36,37
 10 -478 10 -478 -76 -464 c 1,38,-1
 -58 -356 l 1,0,1
EndSplineSet
EndChar

StartChar: uni0220
Encoding: 544 544 482
Width: 1392
GlyphClass: 2
Flags: W
LayerCount: 2
Fore
SplineSet
106 0 m 1,0,-1
 350 1470 l 1,1,-1
 470 1470 l 1,2,-1
 436 1272 l 1,3,-1
 438 1272 l 1,4,5
 504 1356 504 1356 632 1432 c 128,-1,6
 760 1508 760 1508 918 1508 c 0,7,8
 1352 1508 1352 1508 1268 1004 c 2,9,-1
 1024 -470 l 1,10,-1
 898 -470 l 1,11,-1
 1140 986 l 2,12,13
 1176 1198 1176 1198 1114 1298 c 128,-1,14
 1052 1398 1052 1398 874 1398 c 0,15,16
 726 1398 726 1398 574 1277 c 128,-1,17
 422 1156 422 1156 396 1008 c 2,18,-1
 230 0 l 1,19,-1
 106 0 l 1,0,-1
EndSplineSet
EndChar

StartChar: uni0221
Encoding: 545 545 483
Width: 1442
GlyphClass: 2
Flags: W
LayerCount: 2
Fore
SplineSet
834 -234 m 1,0,1
 844 -294 844 -294 893 -335 c 128,-1,2
 942 -376 942 -376 1010 -376 c 0,3,4
 1074 -376 1074 -376 1120 -342 c 128,-1,5
 1166 -308 1166 -308 1174 -252 c 0,6,7
 1184 -192 1184 -192 1151 -154 c 128,-1,8
 1118 -116 1118 -116 1052 -116 c 0,9,10
 936 -116 936 -116 834 -234 c 1,0,1
80 526 m 0,11,12
 124 786 124 786 265 936 c 128,-1,13
 406 1086 406 1086 588 1086 c 0,14,15
 704 1086 704 1086 775 1012 c 128,-1,16
 846 938 846 938 864 838 c 1,17,-1
 978 1528 l 1,18,-1
 1094 1528 l 1,19,-1
 846 34 l 2,20,21
 828 -80 828 -80 832 -120 c 1,22,23
 872 -78 872 -78 938 -46 c 128,-1,24
 1004 -14 1004 -14 1072 -14 c 0,25,26
 1196 -14 1196 -14 1251 -82 c 128,-1,27
 1306 -150 1306 -150 1290 -248 c 0,28,29
 1274 -350 1274 -350 1192 -414 c 128,-1,30
 1110 -478 1110 -478 994 -478 c 0,31,32
 830 -478 830 -478 764 -330 c 1,33,34
 724 -384 724 -384 678 -466 c 1,35,-1
 586 -434 l 1,36,37
 658 -294 658 -294 716 -228 c 1,38,39
 702 -166 702 -166 730 8 c 2,40,-1
 764 210 l 1,41,42
 710 106 710 106 614 35 c 128,-1,43
 518 -36 518 -36 400 -36 c 0,44,45
 234 -36 234 -36 134 105 c 128,-1,46
 34 246 34 246 80 526 c 0,11,12
196 526 m 256,47,48
 162 318 162 318 228 192 c 128,-1,49
 294 66 294 66 434 66 c 0,50,51
 564 66 564 66 672 189 c 128,-1,52
 780 312 780 312 816 526 c 0,53,54
 850 736 850 736 780 860 c 128,-1,55
 710 984 710 984 582 984 c 0,56,57
 444 984 444 984 337 859 c 128,-1,58
 230 734 230 734 196 526 c 256,47,48
EndSplineSet
EndChar

StartChar: uni0222
Encoding: 546 546 484
Width: 1312
GlyphClass: 2
Flags: W
LayerCount: 2
Fore
SplineSet
74 468 m 0,0,1
 102 632 102 632 218 756 c 128,-1,2
 334 880 334 880 492 936 c 1,3,4
 376 980 376 980 314 1080 c 128,-1,5
 252 1180 252 1180 276 1330 c 0,6,7
 290 1420 290 1420 314 1470 c 1,8,-1
 434 1470 l 1,9,10
 432 1460 432 1460 421 1412 c 128,-1,11
 410 1364 410 1364 404 1338 c 0,12,13
 380 1192 380 1192 467 1088 c 128,-1,14
 554 984 554 984 726 984 c 0,15,16
 888 984 888 984 1015 1084 c 128,-1,17
 1142 1184 1142 1184 1168 1338 c 0,18,19
 1178 1396 1178 1396 1180 1470 c 1,20,-1
 1298 1470 l 1,21,22
 1306 1422 1306 1422 1292 1330 c 0,23,24
 1266 1174 1266 1174 1166 1075 c 128,-1,25
 1066 976 1066 976 938 936 c 1,26,27
 1082 890 1082 890 1158 761 c 128,-1,28
 1234 632 1234 632 1208 468 c 0,29,30
 1174 264 1174 264 1004 114 c 128,-1,31
 834 -36 834 -36 558 -36 c 0,32,33
 286 -36 286 -36 163 113 c 128,-1,34
 40 262 40 262 74 468 c 0,0,1
204 468 m 0,35,36
 176 296 176 296 280 184 c 128,-1,37
 384 72 384 72 576 72 c 0,38,39
 762 72 762 72 906 182 c 128,-1,40
 1050 292 1050 292 1080 468 c 0,41,42
 1108 636 1108 636 1002 756 c 128,-1,43
 896 876 896 876 708 876 c 0,44,45
 526 876 526 876 380 760 c 128,-1,46
 234 644 234 644 204 468 c 0,35,36
EndSplineSet
EndChar

StartChar: uni0223
Encoding: 547 547 485
Width: 1050
GlyphClass: 2
Flags: W
LayerCount: 2
Fore
SplineSet
74 482 m 0,0,1
 106 672 106 672 210 804 c 128,-1,2
 314 936 314 936 442 970 c 1,3,4
 340 1004 340 1004 289 1102 c 128,-1,5
 238 1200 238 1200 264 1360 c 0,6,7
 280 1452 280 1452 302 1508 c 1,8,-1
 414 1508 l 1,9,10
 384 1388 384 1388 382 1366 c 0,11,12
 358 1216 358 1216 413 1117 c 128,-1,13
 468 1018 468 1018 600 1018 c 0,14,15
 726 1018 726 1018 818 1114 c 128,-1,16
 910 1210 910 1210 936 1366 c 0,17,18
 940 1394 940 1394 948 1508 c 1,19,-1
 1062 1508 l 1,20,21
 1066 1458 1066 1458 1050 1360 c 0,22,23
 1024 1204 1024 1204 940 1103 c 128,-1,24
 856 1002 856 1002 742 970 c 1,25,26
 860 938 860 938 921 805 c 128,-1,27
 982 672 982 672 952 482 c 0,28,29
 916 266 916 266 777 115 c 128,-1,30
 638 -36 638 -36 426 -36 c 0,31,32
 216 -36 216 -36 127 113 c 128,-1,33
 38 262 38 262 74 482 c 0,0,1
190 482 m 0,34,35
 160 302 160 302 229 185 c 128,-1,36
 298 68 298 68 444 68 c 0,37,38
 584 68 584 68 694 181 c 128,-1,39
 804 294 804 294 834 482 c 0,40,41
 864 668 864 668 794 791 c 128,-1,42
 724 914 724 914 584 914 c 0,43,44
 452 914 452 914 337 795 c 128,-1,45
 222 676 222 676 190 482 c 0,34,35
EndSplineSet
EndChar

StartChar: uni0224
Encoding: 548 548 486
Width: 1196
GlyphClass: 2
Flags: W
LayerCount: 2
Fore
SplineSet
0 0 m 1,0,-1
 16 94 l 1,1,-1
 1062 1362 l 1,2,-1
 288 1362 l 1,3,-1
 306 1470 l 1,4,-1
 1228 1470 l 1,5,-1
 1212 1374 l 1,6,-1
 168 108 l 1,7,-1
 806 108 l 2,8,9
 966 108 966 108 1029 29 c 128,-1,10
 1092 -50 1092 -50 1064 -224 c 0,11,12
 1044 -340 1044 -340 974 -470 c 1,13,-1
 860 -470 l 1,14,15
 930 -340 930 -340 948 -236 c 0,16,17
 968 -120 968 -120 926 -60 c 128,-1,18
 884 0 884 0 752 0 c 2,19,-1
 0 0 l 1,0,-1
EndSplineSet
EndChar

StartChar: uni0225
Encoding: 549 549 487
Width: 946
GlyphClass: 2
Flags: W
LayerCount: 2
Fore
SplineSet
-28 0 m 1,0,-1
 -14 84 l 1,1,-1
 732 954 l 1,2,-1
 178 954 l 1,3,-1
 196 1056 l 1,4,-1
 896 1056 l 1,5,-1
 884 976 l 1,6,-1
 134 102 l 1,7,-1
 646 102 l 2,8,9
 784 102 784 102 837 23 c 128,-1,10
 890 -56 890 -56 864 -218 c 0,11,12
 840 -368 840 -368 786 -470 c 1,13,-1
 680 -470 l 1,14,15
 734 -360 734 -360 756 -232 c 0,16,17
 776 -110 776 -110 740 -55 c 128,-1,18
 704 0 704 0 600 0 c 2,19,-1
 -28 0 l 1,0,-1
EndSplineSet
EndChar

StartChar: uni0234
Encoding: 564 564 502
Width: 778
GlyphClass: 2
Flags: W
LayerCount: 2
Fore
SplineSet
184 -236 m 1,0,1
 194 -294 194 -294 243 -335 c 128,-1,2
 292 -376 292 -376 358 -376 c 256,3,4
 424 -376 424 -376 470 -342 c 128,-1,5
 516 -308 516 -308 526 -252 c 0,6,7
 536 -192 536 -192 502 -154 c 128,-1,8
 468 -116 468 -116 404 -116 c 0,9,10
 288 -116 288 -116 184 -236 c 1,0,1
-64 -434 m 1,11,12
 10 -294 10 -294 68 -230 c 1,13,14
 50 -154 50 -154 80 18 c 2,15,-1
 330 1528 l 1,16,-1
 444 1528 l 1,17,-1
 196 36 l 2,18,19
 178 -76 178 -76 182 -120 c 1,20,21
 224 -76 224 -76 290 -45 c 128,-1,22
 356 -14 356 -14 422 -14 c 0,23,24
 546 -14 546 -14 601 -83 c 128,-1,25
 656 -152 656 -152 640 -248 c 0,26,27
 624 -350 624 -350 542 -414 c 128,-1,28
 460 -478 460 -478 346 -478 c 0,29,30
 258 -478 258 -478 199 -435 c 128,-1,31
 140 -392 140 -392 114 -330 c 1,32,33
 72 -382 72 -382 30 -466 c 1,34,-1
 -64 -434 l 1,11,12
EndSplineSet
EndChar

StartChar: uni0235
Encoding: 565 565 503
Width: 1416
GlyphClass: 2
Flags: W
LayerCount: 2
Fore
SplineSet
820 -236 m 1,0,1
 830 -294 830 -294 878 -335 c 128,-1,2
 926 -376 926 -376 994 -376 c 256,3,4
 1062 -376 1062 -376 1106 -341 c 128,-1,5
 1150 -306 1150 -306 1158 -252 c 0,6,7
 1168 -194 1168 -194 1136 -155 c 128,-1,8
 1104 -116 1104 -116 1038 -116 c 0,9,10
 924 -116 924 -116 820 -236 c 1,0,1
60 0 m 1,11,-1
 234 1050 l 1,12,-1
 348 1050 l 1,13,-1
 314 852 l 1,14,-1
 316 852 l 1,15,16
 348 928 348 928 451 1007 c 128,-1,17
 554 1086 554 1086 688 1086 c 256,18,19
 822 1086 822 1086 899 995 c 128,-1,20
 976 904 976 904 938 680 c 2,21,-1
 832 38 l 2,22,23
 812 -78 812 -78 818 -120 c 1,24,25
 918 -14 918 -14 1056 -14 c 0,26,27
 1176 -14 1176 -14 1234 -81 c 128,-1,28
 1292 -148 1292 -148 1276 -248 c 0,29,30
 1260 -350 1260 -350 1178 -414 c 128,-1,31
 1096 -478 1096 -478 980 -478 c 0,32,33
 892 -478 892 -478 833 -435 c 128,-1,34
 774 -392 774 -392 748 -330 c 1,35,36
 708 -384 708 -384 662 -466 c 1,37,-1
 570 -434 l 1,38,39
 640 -302 640 -302 702 -230 c 1,40,41
 684 -156 684 -156 714 24 c 2,42,-1
 818 658 l 2,43,44
 872 984 872 984 646 984 c 0,45,46
 524 984 524 984 414 880 c 128,-1,47
 304 776 304 776 280 634 c 2,48,-1
 176 0 l 1,49,-1
 60 0 l 1,11,-1
EndSplineSet
EndChar

StartChar: uni0236
Encoding: 566 566 504
Width: 832
GlyphClass: 2
Flags: W
LayerCount: 2
Fore
SplineSet
238 -236 m 1,0,1
 248 -294 248 -294 297 -335 c 128,-1,2
 346 -376 346 -376 414 -376 c 256,3,4
 482 -376 482 -376 526 -340 c 128,-1,5
 570 -304 570 -304 580 -252 c 0,6,7
 590 -196 590 -196 558 -156 c 128,-1,8
 526 -116 526 -116 458 -116 c 0,9,10
 342 -116 342 -116 238 -236 c 1,0,1
104 948 m 1,11,-1
 122 1050 l 1,12,-1
 304 1050 l 1,13,-1
 362 1396 l 1,14,-1
 476 1396 l 1,15,-1
 418 1050 l 1,16,-1
 684 1050 l 1,17,-1
 668 948 l 1,18,-1
 402 948 l 1,19,-1
 250 34 l 2,20,21
 232 -78 232 -78 236 -120 c 1,22,23
 336 -14 336 -14 476 -14 c 0,24,25
 600 -14 600 -14 655 -82 c 128,-1,26
 710 -150 710 -150 694 -248 c 0,27,28
 678 -350 678 -350 596 -414 c 128,-1,29
 514 -478 514 -478 400 -478 c 0,30,31
 312 -478 312 -478 253 -435 c 128,-1,32
 194 -392 194 -392 168 -330 c 1,33,34
 120 -394 120 -394 84 -466 c 1,35,-1
 -10 -434 l 1,36,37
 70 -286 70 -286 120 -230 c 1,38,39
 104 -162 104 -162 134 26 c 2,40,-1
 288 948 l 1,41,-1
 104 948 l 1,11,-1
EndSplineSet
EndChar

StartChar: uni0237
Encoding: 567 567 505
Width: 510
GlyphClass: 2
Flags: W
LayerCount: 2
Fore
SplineSet
-170 -366 m 1,0,-1
 -126 -366 l 2,1,2
 52 -366 52 -366 96 -112 c 2,3,-1
 288 1050 l 1,4,-1
 402 1050 l 1,5,-1
 208 -120 l 2,6,7
 180 -290 180 -290 93 -380 c 128,-1,8
 6 -470 6 -470 -122 -470 c 2,9,-1
 -188 -470 l 1,10,-1
 -170 -366 l 1,0,-1
EndSplineSet
EndChar

StartChar: uni0238
Encoding: 568 568 506
Width: 1752
GlyphClass: 2
Flags: W
LayerCount: 2
Fore
SplineSet
80 526 m 0,0,1
 124 788 124 788 266 937 c 128,-1,2
 408 1086 408 1086 588 1086 c 0,3,4
 704 1086 704 1086 775 1012 c 128,-1,5
 846 938 846 938 864 838 c 1,6,-1
 978 1528 l 1,7,-1
 1094 1528 l 1,8,-1
 978 836 l 1,9,10
 1018 928 1018 928 1119 1007 c 128,-1,11
 1220 1086 1220 1086 1338 1086 c 0,12,13
 1524 1086 1524 1086 1613 937 c 128,-1,14
 1702 788 1702 788 1660 526 c 0,15,16
 1636 380 1636 380 1580 268 c 128,-1,17
 1524 156 1524 156 1452 92 c 128,-1,18
 1380 28 1380 28 1304 -4 c 128,-1,19
 1228 -36 1228 -36 1152 -36 c 0,20,21
 1038 -36 1038 -36 966 35 c 128,-1,22
 894 106 894 106 874 208 c 1,23,-1
 840 0 l 1,24,-1
 730 0 l 1,25,-1
 764 210 l 1,26,27
 708 104 708 104 612 34 c 128,-1,28
 516 -36 516 -36 400 -36 c 0,29,30
 326 -36 326 -36 261 -5 c 128,-1,31
 196 26 196 26 145 89 c 128,-1,32
 94 152 94 152 75 265 c 128,-1,33
 56 378 56 378 80 526 c 0,0,1
196 526 m 0,34,35
 162 316 162 316 228 191 c 128,-1,36
 294 66 294 66 434 66 c 0,37,38
 564 66 564 66 670 187 c 128,-1,39
 776 308 776 308 812 504 c 2,40,-1
 820 546 l 2,41,42
 848 740 848 740 779 862 c 128,-1,43
 710 984 710 984 582 984 c 0,44,45
 448 984 448 984 340 861 c 128,-1,46
 232 738 232 738 196 526 c 0,34,35
922 502 m 2,47,48
 894 310 894 310 959 188 c 128,-1,49
 1024 66 1024 66 1154 66 c 0,50,51
 1294 66 1294 66 1402 189 c 128,-1,52
 1510 312 1510 312 1544 526 c 0,53,54
 1578 736 1578 736 1513 860 c 128,-1,55
 1448 984 1448 984 1310 984 c 0,56,57
 1182 984 1182 984 1073 861 c 128,-1,58
 964 738 964 738 928 546 c 2,59,-1
 922 502 l 2,47,48
EndSplineSet
EndChar

StartChar: uni0239
Encoding: 569 569 507
Width: 1756
GlyphClass: 2
Flags: W
LayerCount: 2
Fore
SplineSet
80 526 m 0,0,1
 122 782 122 782 263 934 c 128,-1,2
 404 1086 404 1086 588 1086 c 0,3,4
 696 1086 696 1086 770 1020 c 128,-1,5
 844 954 844 954 868 838 c 1,6,-1
 904 1050 l 1,7,-1
 1014 1050 l 1,8,-1
 978 836 l 1,9,10
 1038 946 1038 946 1137 1016 c 128,-1,11
 1236 1086 1236 1086 1346 1086 c 0,12,13
 1528 1086 1528 1086 1617 934 c 128,-1,14
 1706 782 1706 782 1664 526 c 0,15,16
 1618 254 1618 254 1475 109 c 128,-1,17
 1332 -36 1332 -36 1158 -36 c 0,18,19
 1042 -36 1042 -36 968 35 c 128,-1,20
 894 106 894 106 874 210 c 1,21,-1
 762 -470 l 1,22,-1
 648 -470 l 1,23,-1
 760 208 l 1,24,25
 702 102 702 102 608 33 c 128,-1,26
 514 -36 514 -36 402 -36 c 0,27,28
 230 -36 230 -36 133 110 c 128,-1,29
 36 256 36 256 80 526 c 0,0,1
196 526 m 0,30,31
 160 314 160 314 227 190 c 128,-1,32
 294 66 294 66 430 66 c 0,33,34
 564 66 564 66 671 189 c 128,-1,35
 778 312 778 312 812 512 c 2,36,-1
 818 552 l 2,37,38
 846 742 846 742 780 863 c 128,-1,39
 714 984 714 984 584 984 c 0,40,41
 436 984 436 984 333 855 c 128,-1,42
 230 726 230 726 196 526 c 0,30,31
926 512 m 2,43,44
 896 308 896 308 963 187 c 128,-1,45
 1030 66 1030 66 1162 66 c 0,46,47
 1296 66 1296 66 1404 190 c 128,-1,48
 1512 314 1512 314 1546 526 c 0,49,50
 1580 726 1580 726 1521 855 c 128,-1,51
 1462 984 1462 984 1314 984 c 0,52,53
 1186 984 1186 984 1078 864 c 128,-1,54
 970 744 970 744 934 552 c 2,55,-1
 926 512 l 2,43,44
EndSplineSet
EndChar

StartChar: uni023A
Encoding: 570 570 508
Width: 1238
GlyphClass: 2
Flags: W
LayerCount: 2
Fore
SplineSet
-98 0 m 1,0,-1
 692 1470 l 1,1,-1
 848 1470 l 1,2,-1
 916 1134 l 1,3,-1
 1226 1536 l 1,4,-1
 1332 1536 l 1,5,-1
 938 1028 l 1,6,-1
 1148 0 l 1,7,-1
 1012 0 l 1,8,-1
 928 444 l 1,9,-1
 486 444 l 1,10,-1
 4 -176 l 1,11,-1
 -100 -176 l 1,12,-1
 38 0 l 1,13,-1
 -98 0 l 1,0,-1
326 546 m 1,14,-1
 460 546 l 1,15,-1
 818 1010 l 1,16,-1
 802 1094 l 2,17,18
 780 1192 780 1192 756 1354 c 1,19,-1
 748 1354 l 1,20,21
 740 1336 740 1336 614 1094 c 2,22,-1
 326 546 l 1,14,-1
566 546 m 1,23,-1
 908 546 l 1,24,-1
 840 900 l 1,25,-1
 566 546 l 1,23,-1
274 444 m 1,26,-1
 50 18 l 1,27,-1
 382 444 l 1,28,-1
 274 444 l 1,26,-1
EndSplineSet
EndChar

StartChar: uni023B
Encoding: 571 571 509
Width: 1246
GlyphClass: 2
Flags: W
LayerCount: 2
Fore
SplineSet
128 736 m 0,0,1
 188 1096 188 1096 390 1302 c 128,-1,2
 592 1508 592 1508 862 1508 c 0,3,4
 980 1508 980 1508 1068 1456 c 1,5,-1
 1142 1590 l 1,6,-1
 1238 1590 l 1,7,-1
 1138 1404 l 1,8,9
 1224 1322 1224 1322 1260 1196 c 1,10,-1
 1148 1156 l 1,11,12
 1118 1240 1118 1240 1076 1290 c 1,13,-1
 446 114 l 1,14,15
 520 74 520 74 622 74 c 0,16,17
 756 74 756 74 867 149 c 128,-1,18
 978 224 978 224 1046 334 c 1,19,-1
 1150 296 l 1,20,21
 1062 154 1062 154 925 59 c 128,-1,22
 788 -36 788 -36 606 -36 c 0,23,24
 482 -36 482 -36 390 8 c 1,25,-1
 306 -146 l 1,26,-1
 210 -146 l 1,27,-1
 316 50 l 1,28,29
 190 140 190 140 139 317 c 128,-1,30
 88 494 88 494 128 736 c 0,0,1
378 162 m 1,31,-1
 1012 1350 l 1,32,33
 942 1398 942 1398 842 1398 c 0,34,35
 624 1398 624 1398 465 1217 c 128,-1,36
 306 1036 306 1036 256 736 c 0,37,38
 188 332 188 332 378 162 c 1,31,-1
EndSplineSet
EndChar

StartChar: uni023C
Encoding: 572 572 510
Width: 946
GlyphClass: 2
Flags: W
LayerCount: 2
Fore
SplineSet
80 526 m 0,0,1
 120 770 120 770 262 928 c 128,-1,2
 404 1086 404 1086 614 1086 c 0,3,4
 700 1086 700 1086 760 1052 c 1,5,-1
 830 1196 l 1,6,-1
 918 1196 l 1,7,-1
 824 1006 l 1,8,9
 900 942 900 942 916 828 c 1,10,-1
 812 796 l 1,11,12
 794 860 794 860 770 896 c 1,13,-1
 364 78 l 1,14,15
 398 66 398 66 444 66 c 0,16,17
 538 66 538 66 619 127 c 128,-1,18
 700 188 700 188 750 268 c 1,19,-1
 844 234 l 1,20,21
 782 126 782 126 672 45 c 128,-1,22
 562 -36 562 -36 426 -36 c 0,23,24
 362 -36 362 -36 314 -22 c 1,25,-1
 258 -138 l 1,26,-1
 170 -138 l 1,27,-1
 242 10 l 1,28,29
 136 72 136 72 93 210 c 128,-1,30
 50 348 50 348 80 526 c 0,0,1
296 118 m 1,31,-1
 710 950 l 1,32,33
 662 984 662 984 596 984 c 0,34,35
 450 984 450 984 340 855 c 128,-1,36
 230 726 230 726 196 526 c 0,37,38
 172 384 172 384 199 276 c 128,-1,39
 226 168 226 168 296 118 c 1,31,-1
EndSplineSet
EndChar

StartChar: uni023D
Encoding: 573 573 511
Width: 1050
GlyphClass: 2
Flags: W
LayerCount: 2
Fore
SplineSet
72 788 m 1,0,-1
 88 888 l 1,1,-1
 266 888 l 1,2,-1
 362 1470 l 1,3,-1
 486 1470 l 1,4,-1
 390 888 l 1,5,-1
 802 888 l 1,6,-1
 784 788 l 1,7,-1
 372 788 l 1,8,-1
 260 108 l 1,9,-1
 958 108 l 1,10,-1
 940 0 l 1,11,-1
 118 0 l 1,12,-1
 250 788 l 1,13,-1
 72 788 l 1,0,-1
EndSplineSet
EndChar

StartChar: uni023E
Encoding: 574 574 512
Width: 1068
GlyphClass: 2
Flags: W
LayerCount: 2
Fore
SplineSet
728 1362 m 1,0,-1
 650 900 l 1,1,-1
 976 1362 l 1,2,-1
 728 1362 l 1,0,-1
158 1362 m 1,3,-1
 176 1470 l 1,4,-1
 1052 1470 l 1,5,-1
 1138 1590 l 1,6,-1
 1234 1590 l 1,7,-1
 1148 1470 l 1,8,-1
 1192 1470 l 1,9,-1
 1174 1362 l 1,10,-1
 1072 1362 l 1,11,-1
 620 720 l 1,12,-1
 502 0 l 1,13,-1
 378 0 l 1,14,-1
 460 490 l 1,15,-1
 64 -70 l 1,16,-1
 -34 -70 l 1,17,-1
 490 672 l 1,18,-1
 604 1362 l 1,19,-1
 158 1362 l 1,3,-1
EndSplineSet
EndChar

StartChar: uni023F
Encoding: 575 575 513
Width: 922
GlyphClass: 2
Flags: W
LayerCount: 2
Fore
SplineSet
12 196 m 1,0,-1
 108 250 l 1,1,2
 188 66 188 66 386 66 c 0,3,4
 510 66 510 66 589 117 c 128,-1,5
 668 168 668 168 682 254 c 0,6,7
 688 292 688 292 676 324 c 128,-1,8
 664 356 664 356 646 376 c 128,-1,9
 628 396 628 396 585 418 c 128,-1,10
 542 440 542 440 517 449 c 128,-1,11
 492 458 492 458 438 478 c 0,12,13
 414 486 414 486 404 490 c 0,14,15
 266 538 266 538 192 606 c 128,-1,16
 118 674 118 674 140 798 c 0,17,18
 162 932 162 932 277 1009 c 128,-1,19
 392 1086 392 1086 552 1086 c 0,20,21
 672 1086 672 1086 759 1023 c 128,-1,22
 846 960 846 960 878 866 c 1,23,-1
 790 812 l 1,24,25
 758 890 758 890 692 937 c 128,-1,26
 626 984 626 984 538 984 c 0,27,28
 416 984 416 984 342 932 c 128,-1,29
 268 880 268 880 254 796 c 0,30,31
 238 704 238 704 306 652 c 128,-1,32
 374 600 374 600 494 564 c 0,33,34
 564 542 564 542 615 519 c 128,-1,35
 666 496 666 496 717 460 c 128,-1,36
 768 424 768 424 789 372 c 128,-1,37
 810 320 810 320 800 254 c 0,38,39
 780 132 780 132 665 48 c 128,-1,40
 550 -36 550 -36 368 -36 c 0,41,42
 240 -36 240 -36 158 20 c 1,43,44
 176 -196 176 -196 202 -264 c 0,45,46
 248 -388 248 -388 376 -388 c 0,47,48
 424 -388 424 -388 460 -382 c 1,49,-1
 446 -470 l 1,50,51
 396 -478 396 -478 356 -478 c 0,52,53
 308 -478 308 -478 270 -469 c 128,-1,54
 232 -460 232 -460 205 -436 c 128,-1,55
 178 -412 178 -412 158 -392 c 128,-1,56
 138 -372 138 -372 122 -328 c 128,-1,57
 106 -284 106 -284 98 -258 c 128,-1,58
 90 -232 90 -232 83 -173 c 128,-1,59
 76 -114 76 -114 73 -89 c 128,-1,60
 70 -64 70 -64 64 2 c 0,61,62
 56 120 56 120 12 196 c 1,0,-1
EndSplineSet
EndChar

StartChar: uni0240
Encoding: 576 576 514
Width: 898
GlyphClass: 2
Flags: W
LayerCount: 2
Fore
SplineSet
-28 0 m 1,0,-1
 -14 84 l 1,1,-1
 730 948 l 1,2,-1
 178 948 l 1,3,-1
 194 1050 l 1,4,-1
 896 1050 l 1,5,-1
 882 970 l 1,6,-1
 118 84 l 1,7,8
 194 78 194 78 252 28 c 128,-1,9
 310 -22 310 -22 346 -88 c 128,-1,10
 382 -154 382 -154 415 -219 c 128,-1,11
 448 -284 448 -284 493 -329 c 128,-1,12
 538 -374 538 -374 598 -374 c 0,13,14
 652 -374 652 -374 684 -368 c 1,15,-1
 668 -468 l 1,16,17
 622 -478 622 -478 572 -478 c 0,18,19
 496 -478 496 -478 439 -430 c 128,-1,20
 382 -382 382 -382 345 -313 c 128,-1,21
 308 -244 308 -244 271 -174 c 128,-1,22
 234 -104 234 -104 178 -54 c 128,-1,23
 122 -4 122 -4 52 0 c 2,24,-1
 -28 0 l 1,0,-1
EndSplineSet
EndChar

StartChar: uni0241
Encoding: 577 577 515
Width: 1068
GlyphClass: 2
Flags: W
LayerCount: 2
Fore
SplineSet
224 1198 m 1,0,1
 302 1344 302 1344 427 1426 c 128,-1,2
 552 1508 552 1508 694 1508 c 0,3,4
 874 1508 874 1508 963 1399 c 128,-1,5
 1052 1290 1052 1290 1022 1114 c 0,6,7
 1008 1024 1008 1024 959 951 c 128,-1,8
 910 878 910 878 850 826 c 128,-1,9
 790 774 790 774 729 723 c 128,-1,10
 668 672 668 672 620 601 c 128,-1,11
 572 530 572 530 558 442 c 2,12,-1
 484 0 l 1,13,-1
 360 0 l 1,14,-1
 434 452 l 2,15,16
 450 548 450 548 499 626 c 128,-1,17
 548 704 548 704 609 756 c 128,-1,18
 670 808 670 808 729 857 c 128,-1,19
 788 906 788 906 835 972 c 128,-1,20
 882 1038 882 1038 894 1116 c 0,21,22
 916 1244 916 1244 858 1322 c 128,-1,23
 800 1400 800 1400 678 1400 c 0,24,25
 570 1400 570 1400 480 1334 c 128,-1,26
 390 1268 390 1268 328 1162 c 1,27,-1
 224 1198 l 1,0,1
EndSplineSet
EndChar

StartChar: uni0250
Encoding: 592 592 516
Width: 1042
GlyphClass: 2
Flags: W
LayerCount: 2
Fore
SplineSet
242 474 m 1,0,1
 320 500 320 500 538 534 c 0,2,3
 700 560 700 560 783 623 c 128,-1,4
 866 686 866 686 882 790 c 0,5,6
 896 870 896 870 841 927 c 128,-1,7
 786 984 786 984 672 984 c 0,8,9
 530 984 530 984 413 887 c 128,-1,10
 296 790 296 790 270 640 c 2,11,-1
 242 474 l 1,0,1
110 364 m 2,12,-1
 224 1050 l 1,13,-1
 336 1050 l 1,14,-1
 304 860 l 1,15,16
 352 952 352 952 462 1019 c 128,-1,17
 572 1086 572 1086 702 1086 c 0,18,19
 862 1086 862 1086 942 1007 c 128,-1,20
 1022 928 1022 928 1000 798 c 0,21,22
 976 654 976 654 861 565 c 128,-1,23
 746 476 746 476 520 440 c 0,24,25
 324 410 324 410 224 376 c 0,26,27
 222 368 222 368 220 346 c 128,-1,28
 218 324 218 324 216 316 c 0,29,30
 198 206 198 206 261 135 c 128,-1,31
 324 64 324 64 454 64 c 0,32,33
 642 64 642 64 798 232 c 1,34,-1
 864 166 l 1,35,36
 782 76 782 76 668 20 c 128,-1,37
 554 -36 554 -36 438 -36 c 0,38,39
 240 -36 240 -36 159 69 c 128,-1,40
 78 174 78 174 110 364 c 2,12,-1
EndSplineSet
EndChar

StartChar: uni0251
Encoding: 593 593 517
Width: 1086
GlyphClass: 2
Flags: W
LayerCount: 2
Fore
SplineSet
196 526 m 0,0,1
 160 314 160 314 229 190 c 128,-1,2
 298 66 298 66 434 66 c 0,3,4
 558 66 558 66 669 186 c 128,-1,5
 780 306 780 306 816 524 c 0,6,7
 850 734 850 734 780 859 c 128,-1,8
 710 984 710 984 582 984 c 0,9,10
 444 984 444 984 337 860 c 128,-1,11
 230 736 230 736 196 526 c 0,0,1
80 526 m 0,12,13
 122 784 122 784 264 935 c 128,-1,14
 406 1086 406 1086 588 1086 c 0,15,16
 706 1086 706 1086 781 1007 c 128,-1,17
 856 928 856 928 864 840 c 1,18,-1
 900 1050 l 1,19,-1
 1014 1050 l 1,20,-1
 840 0 l 1,21,-1
 728 0 l 1,22,-1
 762 208 l 1,23,24
 708 106 708 106 611 35 c 128,-1,25
 514 -36 514 -36 402 -36 c 0,26,27
 236 -36 236 -36 135 105 c 128,-1,28
 34 246 34 246 80 526 c 0,12,13
EndSplineSet
EndChar

StartChar: uni0252
Encoding: 594 594 518
Width: 1088
GlyphClass: 2
Flags: W
LayerCount: 2
Fore
SplineSet
60 0 m 1,0,-1
 234 1050 l 1,1,-1
 350 1050 l 1,2,-1
 314 838 l 1,3,4
 352 928 352 928 452 1007 c 128,-1,5
 552 1086 552 1086 674 1086 c 0,6,7
 860 1086 860 1086 949 935 c 128,-1,8
 1038 784 1038 784 994 526 c 0,9,10
 948 246 948 246 801 105 c 128,-1,11
 654 -36 654 -36 488 -36 c 0,12,13
 374 -36 374 -36 301 35 c 128,-1,14
 228 106 228 106 208 206 c 1,15,-1
 174 0 l 1,16,-1
 60 0 l 1,0,-1
258 524 m 256,17,18
 224 314 224 314 293 190 c 128,-1,19
 362 66 362 66 490 66 c 0,20,21
 628 66 628 66 736 190 c 128,-1,22
 844 314 844 314 880 526 c 0,23,24
 914 736 914 736 848 860 c 128,-1,25
 782 984 782 984 644 984 c 0,26,27
 516 984 516 984 404 859 c 128,-1,28
 292 734 292 734 258 524 c 256,17,18
EndSplineSet
EndChar

StartChar: uni0253
Encoding: 595 595 519
Width: 1094
GlyphClass: 2
Flags: W
LayerCount: 2
Fore
SplineSet
266 524 m 0,0,1
 232 316 232 316 298 191 c 128,-1,2
 364 66 364 66 496 66 c 0,3,4
 636 66 636 66 743 191 c 128,-1,5
 850 316 850 316 886 526 c 0,6,7
 920 732 920 732 856 858 c 128,-1,8
 792 984 792 984 650 984 c 0,9,10
 518 984 518 984 409 857 c 128,-1,11
 300 730 300 730 266 524 c 0,0,1
68 0 m 1,12,-1
 244 1064 l 2,13,14
 282 1288 282 1288 393 1414 c 128,-1,15
 504 1540 504 1540 682 1540 c 0,16,17
 782 1540 782 1540 902 1506 c 1,18,-1
 878 1402 l 1,19,20
 750 1432 750 1432 678 1432 c 0,21,22
 420 1432 420 1432 356 1046 c 2,23,-1
 322 836 l 1,24,25
 374 938 374 938 469 1012 c 128,-1,26
 564 1086 564 1086 682 1086 c 0,27,28
 872 1086 872 1086 958 933 c 128,-1,29
 1044 780 1044 780 1002 526 c 0,30,31
 958 258 958 258 814 111 c 128,-1,32
 670 -36 670 -36 494 -36 c 0,33,34
 374 -36 374 -36 305 37 c 128,-1,35
 236 110 236 110 216 208 c 1,36,-1
 180 0 l 1,37,-1
 68 0 l 1,12,-1
EndSplineSet
EndChar

StartChar: uni0254
Encoding: 596 596 520
Width: 946
GlyphClass: 2
Flags: W
LayerCount: 2
Fore
SplineSet
-6 234 m 1,0,-1
 98 268 l 1,1,2
 118 186 118 186 184 126 c 128,-1,3
 250 66 250 66 340 66 c 0,4,5
 480 66 480 66 591 191 c 128,-1,6
 702 316 702 316 738 524 c 0,7,8
 772 724 772 724 705 854 c 128,-1,9
 638 984 638 984 492 984 c 0,10,11
 406 984 406 984 331 930 c 128,-1,12
 256 876 256 876 212 796 c 1,13,-1
 118 828 l 1,14,15
 170 936 170 936 275 1011 c 128,-1,16
 380 1086 380 1086 510 1086 c 0,17,18
 714 1086 714 1086 804 929 c 128,-1,19
 894 772 894 772 854 524 c 0,20,21
 812 266 812 266 666 115 c 128,-1,22
 520 -36 520 -36 322 -36 c 0,23,24
 192 -36 192 -36 105 43 c 128,-1,25
 18 122 18 122 -6 234 c 1,0,-1
EndSplineSet
EndChar

StartChar: uni0255
Encoding: 597 597 521
Width: 944
GlyphClass: 2
Flags: W
LayerCount: 2
Fore
SplineSet
352 90 m 1,0,1
 414 66 414 66 500 66 c 0,2,3
 584 66 584 66 643 102 c 128,-1,4
 702 138 702 138 710 188 c 0,5,6
 716 228 716 228 691 254 c 128,-1,7
 666 280 666 280 612 280 c 0,8,9
 534 280 534 280 464 223 c 128,-1,10
 394 166 394 166 352 90 c 1,0,1
82 532 m 0,11,12
 122 770 122 770 263 928 c 128,-1,13
 404 1086 404 1086 614 1086 c 0,14,15
 742 1086 742 1086 819 1009 c 128,-1,16
 896 932 896 932 914 828 c 1,17,-1
 810 796 l 1,18,19
 796 870 796 870 739 927 c 128,-1,20
 682 984 682 984 598 984 c 0,21,22
 448 984 448 984 339 855 c 128,-1,23
 230 726 230 726 196 526 c 0,24,25
 154 270 154 270 270 148 c 1,26,27
 424 382 424 382 632 382 c 0,28,29
 738 382 738 382 788 324 c 128,-1,30
 838 266 838 266 824 188 c 0,31,32
 808 92 808 92 712 28 c 128,-1,33
 616 -36 616 -36 476 -36 c 0,34,35
 362 -36 362 -36 294 -8 c 1,36,37
 256 -76 256 -76 238 -130 c 1,38,-1
 140 -104 l 1,39,40
 162 -40 162 -40 208 40 c 1,41,42
 24 186 24 186 82 532 c 0,11,12
EndSplineSet
EndChar

StartChar: uni0256
Encoding: 598 598 522
Width: 1110
GlyphClass: 2
Flags: W
LayerCount: 2
Fore
SplineSet
80 526 m 0,0,1
 124 788 124 788 266 937 c 128,-1,2
 408 1086 408 1086 588 1086 c 0,3,4
 704 1086 704 1086 775 1012 c 128,-1,5
 846 938 846 938 864 838 c 1,6,-1
 978 1528 l 1,7,-1
 1094 1528 l 1,8,-1
 828 -76 l 2,9,10
 802 -236 802 -236 835 -304 c 128,-1,11
 868 -372 868 -372 960 -372 c 0,12,13
 1022 -372 1022 -372 1080 -360 c 1,14,-1
 1064 -466 l 1,15,16
 986 -478 986 -478 926 -478 c 0,17,18
 796 -478 796 -478 737 -391 c 128,-1,19
 678 -304 678 -304 716 -84 c 2,20,-1
 764 210 l 1,21,22
 708 104 708 104 612 34 c 128,-1,23
 516 -36 516 -36 400 -36 c 0,24,25
 234 -36 234 -36 134 105 c 128,-1,26
 34 246 34 246 80 526 c 0,0,1
196 526 m 0,27,28
 162 318 162 318 228 192 c 128,-1,29
 294 66 294 66 434 66 c 0,30,31
 562 66 562 66 672 190 c 128,-1,32
 782 314 782 314 816 526 c 0,33,34
 850 736 850 736 780 860 c 128,-1,35
 710 984 710 984 582 984 c 0,36,37
 448 984 448 984 339 860 c 128,-1,38
 230 736 230 736 196 526 c 0,27,28
EndSplineSet
EndChar

StartChar: uni0257
Encoding: 599 599 523
Width: 1110
GlyphClass: 2
Flags: W
LayerCount: 2
Fore
SplineSet
80 528 m 0,0,1
 124 790 124 790 266 938 c 128,-1,2
 408 1086 408 1086 588 1086 c 0,3,4
 704 1086 704 1086 776 1011 c 128,-1,5
 848 936 848 936 864 836 c 1,6,-1
 932 1250 l 2,7,8
 956 1392 956 1392 1052 1465 c 128,-1,9
 1148 1538 1148 1538 1286 1538 c 0,10,11
 1354 1538 1354 1538 1410 1532 c 1,12,-1
 1392 1424 l 1,13,14
 1350 1430 1350 1430 1286 1430 c 0,15,16
 1190 1430 1190 1430 1125 1377 c 128,-1,17
 1060 1324 1060 1324 1042 1222 c 2,18,-1
 840 0 l 1,19,-1
 730 0 l 1,20,-1
 764 212 l 1,21,22
 710 108 710 108 613 36 c 128,-1,23
 516 -36 516 -36 400 -36 c 0,24,25
 234 -36 234 -36 134 107 c 128,-1,26
 34 250 34 250 80 528 c 0,0,1
198 528 m 256,27,28
 164 318 164 318 229 192 c 128,-1,29
 294 66 294 66 434 66 c 0,30,31
 562 66 562 66 671 189 c 128,-1,32
 780 312 780 312 816 528 c 0,33,34
 850 738 850 738 780 861 c 128,-1,35
 710 984 710 984 582 984 c 0,36,37
 446 984 446 984 339 861 c 128,-1,38
 232 738 232 738 198 528 c 256,27,28
EndSplineSet
EndChar

StartChar: uni0258
Encoding: 600 600 524
Width: 1044
GlyphClass: 2
Flags: W
LayerCount: 2
Fore
SplineSet
200 580 m 1,0,-1
 844 580 l 1,1,2
 864 744 864 744 798 864 c 128,-1,3
 732 984 732 984 584 984 c 0,4,5
 440 984 440 984 335 866 c 128,-1,6
 230 748 230 748 200 580 c 1,0,-1
70 486 m 1,7,-1
 82 558 l 2,8,9
 120 788 120 788 262 937 c 128,-1,10
 404 1086 404 1086 602 1086 c 256,11,12
 800 1086 800 1086 897 933 c 128,-1,13
 994 780 994 780 954 532 c 0,14,15
 912 274 912 274 762 119 c 128,-1,16
 612 -36 612 -36 408 -36 c 0,17,18
 258 -36 258 -36 169 36 c 128,-1,19
 80 108 80 108 48 218 c 1,20,-1
 154 254 l 1,21,22
 182 170 182 170 252 118 c 128,-1,23
 322 66 322 66 426 66 c 0,24,25
 580 66 580 66 689 188 c 128,-1,26
 798 310 798 310 828 486 c 1,27,-1
 70 486 l 1,7,-1
EndSplineSet
EndChar

StartChar: uni025A
Encoding: 602 602 526
Width: 1202
GlyphClass: 2
Flags: W
LayerCount: 2
Fore
SplineSet
62 448 m 1,0,-1
 830 786 l 1,1,2
 770 984 770 984 572 984 c 0,3,4
 472 984 472 984 384 931 c 128,-1,5
 296 878 296 878 244 796 c 1,6,-1
 150 830 l 1,7,8
 220 948 220 948 333 1017 c 128,-1,9
 446 1086 446 1086 590 1086 c 0,10,11
 858 1086 858 1086 934 834 c 1,12,-1
 1088 914 l 1,13,14
 1114 782 1114 782 1228 782 c 0,15,16
 1268 782 1268 782 1292 788 c 1,17,-1
 1276 690 l 1,18,19
 1232 682 1232 682 1206 682 c 0,20,21
 1142 682 1142 682 1097 711 c 128,-1,22
 1052 740 1052 740 1038 780 c 1,23,-1
 954 736 l 1,24,25
 968 646 968 646 948 522 c 0,26,27
 908 282 908 282 763 123 c 128,-1,28
 618 -36 618 -36 408 -36 c 0,29,30
 220 -36 220 -36 130 103 c 128,-1,31
 40 242 40 242 62 448 c 1,0,-1
176 396 m 1,32,33
 172 240 172 240 241 153 c 128,-1,34
 310 66 310 66 426 66 c 0,35,36
 578 66 578 66 688 193 c 128,-1,37
 798 320 798 320 828 512 c 0,38,39
 844 614 844 614 844 686 c 1,40,-1
 176 396 l 1,32,33
EndSplineSet
EndChar

StartChar: uni025B
Encoding: 603 603 527
Width: 872
GlyphClass: 2
Flags: W
LayerCount: 2
Fore
SplineSet
40 276 m 0,0,1
 58 388 58 388 136 459 c 128,-1,2
 214 530 214 530 310 556 c 1,3,-1
 310 558 l 1,4,5
 236 584 236 584 193 646 c 128,-1,6
 150 708 150 708 166 802 c 0,7,8
 186 926 186 926 287 1006 c 128,-1,9
 388 1086 388 1086 548 1086 c 0,10,11
 762 1086 762 1086 846 890 c 1,12,-1
 744 844 l 1,13,14
 680 984 680 984 534 984 c 0,15,16
 424 984 424 984 360 932 c 128,-1,17
 296 880 296 880 282 796 c 0,18,19
 268 710 268 710 324 655 c 128,-1,20
 380 600 380 600 516 600 c 2,21,-1
 584 600 l 1,22,-1
 568 508 l 1,23,-1
 502 508 l 2,24,25
 342 508 342 508 257 440 c 128,-1,26
 172 372 172 372 156 278 c 0,27,28
 140 182 140 182 204 124 c 128,-1,29
 268 66 268 66 386 66 c 0,30,31
 468 66 468 66 549 110 c 128,-1,32
 630 154 630 154 676 212 c 1,33,-1
 758 164 l 1,34,35
 688 74 688 74 584 19 c 128,-1,36
 480 -36 480 -36 368 -36 c 0,37,38
 198 -36 198 -36 107 47 c 128,-1,39
 16 130 16 130 40 276 c 0,0,1
EndSplineSet
EndChar

StartChar: uni025C
Encoding: 604 604 528
Width: 874
GlyphClass: 2
Flags: W
LayerCount: 2
Fore
SplineSet
-18 164 m 1,0,-1
 80 212 l 1,1,2
 108 154 108 154 174 110 c 128,-1,3
 240 66 240 66 322 66 c 0,4,5
 440 66 440 66 524 124 c 128,-1,6
 608 182 608 182 624 278 c 0,7,8
 640 372 640 372 577 440 c 128,-1,9
 514 508 514 508 354 508 c 2,10,-1
 284 508 l 1,11,-1
 300 600 l 1,12,-1
 370 600 l 2,13,14
 506 600 506 600 581 655 c 128,-1,15
 656 710 656 710 670 796 c 0,16,17
 684 880 684 880 637 932 c 128,-1,18
 590 984 590 984 480 984 c 0,19,20
 334 984 334 984 222 844 c 1,21,-1
 136 890 l 1,22,23
 284 1086 284 1086 498 1086 c 0,24,25
 660 1086 660 1086 734 1006 c 128,-1,26
 808 926 808 926 788 802 c 0,27,28
 772 708 772 708 709 646 c 128,-1,29
 646 584 646 584 560 558 c 1,30,-1
 562 556 l 1,31,32
 650 530 650 530 704 459 c 128,-1,33
 758 388 758 388 740 276 c 0,34,35
 716 130 716 130 597 47 c 128,-1,36
 478 -36 478 -36 308 -36 c 0,37,38
 196 -36 196 -36 109 19 c 128,-1,39
 22 74 22 74 -18 164 c 1,0,-1
EndSplineSet
EndChar

StartChar: uni025D
Encoding: 605 605 529
Width: 972
GlyphClass: 2
Flags: W
LayerCount: 2
Fore
SplineSet
-18 164 m 1,0,-1
 80 212 l 1,1,2
 104 160 104 160 172 113 c 128,-1,3
 240 66 240 66 318 66 c 0,4,5
 448 66 448 66 528 126 c 128,-1,6
 608 186 608 186 624 280 c 256,7,8
 640 374 640 374 576 441 c 128,-1,9
 512 508 512 508 354 508 c 2,10,-1
 284 508 l 1,11,-1
 300 600 l 1,12,-1
 370 600 l 2,13,14
 506 600 506 600 581 655 c 128,-1,15
 656 710 656 710 670 796 c 256,16,17
 684 882 684 882 636 933 c 128,-1,18
 588 984 588 984 480 984 c 0,19,20
 332 984 332 984 222 844 c 1,21,-1
 136 890 l 1,22,23
 282 1086 282 1086 498 1086 c 0,24,25
 728 1086 728 1086 780 926 c 1,26,-1
 928 1002 l 1,27,28
 940 940 940 940 979 898 c 128,-1,29
 1018 856 1018 856 1076 856 c 0,30,31
 1112 856 1112 856 1136 862 c 1,32,-1
 1120 764 l 1,33,34
 1076 756 1076 756 1052 756 c 0,35,36
 984 756 984 756 937 790 c 128,-1,37
 890 824 890 824 876 868 c 1,38,-1
 790 824 l 1,39,40
 790 812 790 812 788 800 c 256,41,42
 786 788 786 788 782 774 c 0,43,44
 762 694 762 694 699 637 c 128,-1,45
 636 580 636 580 562 558 c 1,46,-1
 562 556 l 1,47,48
 650 530 650 530 704 459 c 128,-1,49
 758 388 758 388 740 278 c 0,50,51
 716 130 716 130 598 47 c 128,-1,52
 480 -36 480 -36 302 -36 c 0,53,54
 190 -36 190 -36 104 22 c 128,-1,55
 18 80 18 80 -18 164 c 1,0,-1
EndSplineSet
EndChar

StartChar: uni025E
Encoding: 606 606 530
Width: 1040
GlyphClass: 2
Flags: W
LayerCount: 2
Fore
SplineSet
82 530 m 0,0,1
 124 786 124 786 271 936 c 128,-1,2
 418 1086 418 1086 628 1086 c 0,3,4
 794 1086 794 1086 883 1007 c 128,-1,5
 972 928 972 928 948 792 c 0,6,7
 932 696 932 696 873 631 c 128,-1,8
 814 566 814 566 740 542 c 1,9,-1
 738 540 l 1,10,11
 822 518 822 518 872 449 c 128,-1,12
 922 380 922 380 904 272 c 0,13,14
 880 124 880 124 758 44 c 128,-1,15
 636 -36 636 -36 448 -36 c 0,16,17
 250 -36 250 -36 143 109 c 128,-1,18
 36 254 36 254 82 530 c 0,0,1
198 530 m 0,19,20
 176 402 176 402 194 307 c 128,-1,21
 212 212 212 212 257 162 c 128,-1,22
 302 112 302 112 354 89 c 128,-1,23
 406 66 406 66 464 66 c 0,24,25
 606 66 606 66 689 121 c 128,-1,26
 772 176 772 176 786 268 c 0,27,28
 800 354 800 354 744 420 c 128,-1,29
 688 486 688 486 534 486 c 2,30,-1
 470 486 l 1,31,-1
 486 584 l 1,32,-1
 550 584 l 2,33,34
 682 584 682 584 750 643 c 128,-1,35
 818 702 818 702 832 782 c 0,36,37
 848 878 848 878 789 931 c 128,-1,38
 730 984 730 984 612 984 c 0,39,40
 468 984 468 984 351 868 c 128,-1,41
 234 752 234 752 198 530 c 0,19,20
EndSplineSet
EndChar

StartChar: uni025F
Encoding: 607 607 531
Width: 526
GlyphClass: 2
Flags: W
LayerCount: 2
Fore
SplineSet
-16 550 m 1,0,-1
 0 650 l 1,1,-1
 226 650 l 1,2,-1
 292 1050 l 1,3,-1
 406 1050 l 1,4,-1
 340 650 l 1,5,-1
 544 650 l 1,6,-1
 526 550 l 1,7,-1
 324 550 l 1,8,-1
 212 -118 l 2,9,10
 184 -288 184 -288 98 -377 c 128,-1,11
 12 -466 12 -466 -118 -466 c 2,12,-1
 -184 -466 l 1,13,-1
 -166 -364 l 1,14,-1
 -122 -364 l 2,15,16
 56 -364 56 -364 100 -110 c 2,17,-1
 208 550 l 1,18,-1
 -16 550 l 1,0,-1
EndSplineSet
EndChar

StartChar: uni0260
Encoding: 608 608 532
Width: 1090
GlyphClass: 2
Flags: W
LayerCount: 2
Fore
SplineSet
84 546 m 256,0,1
 124 788 124 788 260 937 c 128,-1,2
 396 1086 396 1086 580 1086 c 0,3,4
 700 1086 700 1086 765 1016 c 128,-1,5
 830 946 830 946 852 854 c 1,6,-1
 916 1246 l 2,7,8
 938 1384 938 1384 1038 1462 c 128,-1,9
 1138 1540 1138 1540 1270 1540 c 0,10,11
 1320 1540 1320 1540 1390 1532 c 1,12,-1
 1374 1428 l 1,13,14
 1346 1432 1346 1432 1272 1432 c 0,15,16
 1180 1432 1180 1432 1111 1377 c 128,-1,17
 1042 1322 1042 1322 1024 1218 c 2,18,-1
 840 108 l 2,19,20
 818 -24 818 -24 784 -123 c 128,-1,21
 750 -222 750 -222 693 -306 c 128,-1,22
 636 -390 636 -390 545 -434 c 128,-1,23
 454 -478 454 -478 332 -478 c 0,24,25
 98 -478 98 -478 2 -294 c 1,26,-1
 94 -236 l 1,27,28
 194 -378 194 -378 354 -378 c 0,29,30
 646 -378 646 -378 720 68 c 2,31,-1
 748 228 l 1,32,33
 694 128 694 128 607 65 c 128,-1,34
 520 2 520 2 406 2 c 0,35,36
 222 2 222 2 133 153 c 128,-1,37
 44 304 44 304 84 546 c 256,0,1
200 544 m 0,38,39
 166 342 166 342 232 223 c 128,-1,40
 298 104 298 104 430 104 c 0,41,42
 568 104 568 104 667 222 c 128,-1,43
 766 340 766 340 802 548 c 0,44,45
 834 744 834 744 771 864 c 128,-1,46
 708 984 708 984 574 984 c 256,47,48
 440 984 440 984 336 862 c 128,-1,49
 232 740 232 740 200 544 c 0,38,39
EndSplineSet
EndChar

StartChar: uni0262
Encoding: 610 610 534
Width: 1092
GlyphClass: 2
Flags: W
LayerCount: 2
Fore
SplineSet
80 524 m 0,0,1
 122 778 122 778 275 932 c 128,-1,2
 428 1086 428 1086 650 1086 c 0,3,4
 890 1086 890 1086 982 860 c 1,5,-1
 878 816 l 1,6,7
 798 982 798 982 634 982 c 0,8,9
 468 982 468 982 350 857 c 128,-1,10
 232 732 232 732 196 524 c 0,11,12
 162 314 162 314 238 191 c 128,-1,13
 314 68 314 68 478 68 c 0,14,15
 620 68 620 68 717 161 c 128,-1,16
 814 254 814 254 834 382 c 2,17,-1
 848 462 l 1,18,-1
 524 462 l 1,19,-1
 542 562 l 1,20,-1
 974 562 l 1,21,-1
 880 0 l 1,22,-1
 788 0 l 1,23,-1
 810 156 l 1,24,25
 764 78 764 78 672 21 c 128,-1,26
 580 -36 580 -36 456 -36 c 0,27,28
 244 -36 244 -36 140 114 c 128,-1,29
 36 264 36 264 80 524 c 0,0,1
EndSplineSet
EndChar

StartChar: uni0263
Encoding: 611 611 535
Width: 924
GlyphClass: 2
Flags: W
LayerCount: 2
Fore
SplineSet
100 1050 m 1,0,-1
 228 1050 l 1,1,-1
 390 254 l 1,2,-1
 400 192 l 1,3,-1
 402 192 l 1,4,-1
 858 1050 l 1,5,-1
 986 1050 l 1,6,-1
 464 104 l 1,7,8
 582 -86 582 -86 560 -224 c 0,9,10
 542 -336 542 -336 466 -407 c 128,-1,11
 390 -478 390 -478 290 -478 c 0,12,13
 194 -478 194 -478 141 -409 c 128,-1,14
 88 -340 88 -340 108 -224 c 0,15,16
 122 -142 122 -142 170 -69 c 128,-1,17
 218 4 218 4 308 102 c 1,18,-1
 100 1050 l 1,0,-1
204 -226 m 0,19,20
 192 -294 192 -294 220 -342 c 128,-1,21
 248 -390 248 -390 306 -390 c 256,22,23
 364 -390 364 -390 407 -342 c 128,-1,24
 450 -294 450 -294 462 -226 c 0,25,26
 474 -156 474 -156 451 -93 c 128,-1,27
 428 -30 428 -30 378 50 c 1,28,29
 224 -100 224 -100 204 -226 c 0,19,20
EndSplineSet
Substitution2: "'sups' Superscript lookup 5 subtable" uni02E0
Substitution2: "'aalt' Access All Alternates lookup 0 subtable" uni02E0
EndChar

StartChar: uni0264
Encoding: 612 612 536
Width: 898
GlyphClass: 2
Flags: W
LayerCount: 2
Fore
SplineSet
474 710 m 1,0,1
 374 604 374 604 314 510 c 128,-1,2
 254 416 254 416 234 294 c 0,3,4
 218 194 218 194 254 131 c 128,-1,5
 290 68 290 68 372 68 c 0,6,7
 450 68 450 68 506 134 c 128,-1,8
 562 200 562 200 578 294 c 0,9,10
 598 414 598 414 571 507 c 128,-1,11
 544 600 544 600 474 710 c 1,0,1
130 974 m 1,12,-1
 148 1076 l 1,13,14
 194 1086 194 1086 232 1086 c 0,15,16
 322 1086 322 1086 382 1036 c 128,-1,17
 442 986 442 986 502 884 c 1,18,19
 596 984 596 984 674 1035 c 128,-1,20
 752 1086 752 1086 838 1086 c 0,21,22
 870 1086 870 1086 922 1076 c 1,23,-1
 906 972 l 1,24,25
 864 982 864 982 826 982 c 0,26,27
 760 982 760 982 698 935 c 128,-1,28
 636 888 636 888 556 800 c 1,29,30
 646 660 646 660 681 549 c 128,-1,31
 716 438 716 438 692 294 c 0,32,33
 668 148 668 148 576 56 c 128,-1,34
 484 -36 484 -36 354 -36 c 0,35,36
 216 -36 216 -36 155 56 c 128,-1,37
 94 148 94 148 118 294 c 0,38,39
 136 400 136 400 190 501 c 128,-1,40
 244 602 244 602 287 653 c 128,-1,41
 330 704 330 704 420 800 c 1,42,43
 372 892 372 892 326 937 c 128,-1,44
 280 982 280 982 212 982 c 0,45,46
 184 982 184 982 130 974 c 1,12,-1
EndSplineSet
EndChar

StartChar: uni0265
Encoding: 613 613 537
Width: 1074
GlyphClass: 2
Flags: W
LayerCount: 2
Fore
SplineSet
112 370 m 2,0,-1
 226 1050 l 1,1,-1
 342 1050 l 1,2,-1
 234 392 l 2,3,4
 180 66 180 66 408 66 c 0,5,6
 528 66 528 66 638 172 c 128,-1,7
 748 278 748 278 772 420 c 2,8,-1
 876 1050 l 1,9,-1
 990 1050 l 1,10,-1
 738 -470 l 1,11,-1
 624 -470 l 1,12,-1
 732 186 l 1,13,-1
 730 186 l 1,14,15
 682 100 682 100 584 32 c 128,-1,16
 486 -36 486 -36 368 -36 c 0,17,18
 306 -36 306 -36 257 -19 c 128,-1,19
 208 -2 208 -2 165 40 c 128,-1,20
 122 82 122 82 107 166 c 128,-1,21
 92 250 92 250 112 370 c 2,0,-1
EndSplineSet
EndChar

StartChar: uni0266
Encoding: 614 614 538
Width: 1074
GlyphClass: 2
Flags: W
LayerCount: 2
Fore
SplineSet
72 0 m 1,0,-1
 272 1208 l 2,1,2
 298 1366 298 1366 401 1453 c 128,-1,3
 504 1540 504 1540 644 1540 c 0,4,5
 726 1540 726 1540 832 1524 c 1,6,-1
 814 1420 l 1,7,8
 734 1432 734 1432 640 1432 c 0,9,10
 532 1432 532 1432 465 1357 c 128,-1,11
 398 1282 398 1282 384 1190 c 2,12,-1
 330 864 l 1,13,-1
 332 864 l 1,14,15
 384 952 384 952 482 1019 c 128,-1,16
 580 1086 580 1086 694 1086 c 0,17,18
 1014 1086 1014 1086 948 680 c 2,19,-1
 834 0 l 1,20,-1
 720 0 l 1,21,-1
 830 658 l 2,22,23
 884 984 884 984 656 984 c 0,24,25
 536 984 536 984 425 880 c 128,-1,26
 314 776 314 776 290 630 c 2,27,-1
 186 0 l 1,28,-1
 72 0 l 1,0,-1
EndSplineSet
Substitution2: "'sups' Superscript lookup 5 subtable" uni02B1
Substitution2: "'aalt' Access All Alternates lookup 0 subtable" uni02B1
EndChar

StartChar: uni0267
Encoding: 615 615 539
Width: 1082
GlyphClass: 2
Flags: W
LayerCount: 2
Fore
SplineSet
72 0 m 1,0,-1
 272 1206 l 2,1,2
 298 1366 298 1366 401 1453 c 128,-1,3
 504 1540 504 1540 644 1540 c 0,4,5
 726 1540 726 1540 832 1524 c 1,6,-1
 814 1420 l 1,7,8
 734 1432 734 1432 640 1432 c 0,9,10
 530 1432 530 1432 464 1357 c 128,-1,11
 398 1282 398 1282 382 1184 c 2,12,-1
 330 864 l 1,13,-1
 332 864 l 1,14,15
 384 952 384 952 482 1019 c 128,-1,16
 580 1086 580 1086 694 1086 c 0,17,18
 752 1086 752 1086 800 1070 c 128,-1,19
 848 1054 848 1054 893 1013 c 128,-1,20
 938 972 938 972 953 887 c 128,-1,21
 968 802 968 802 948 680 c 2,22,-1
 816 -118 l 2,23,24
 786 -296 786 -296 704 -387 c 128,-1,25
 622 -478 622 -478 462 -478 c 0,26,27
 460 -478 460 -478 342 -472 c 1,28,-1
 358 -370 l 1,29,30
 426 -374 426 -374 462 -374 c 0,31,32
 562 -374 562 -374 620 -316 c 128,-1,33
 678 -258 678 -258 702 -114 c 2,34,-1
 830 658 l 2,35,36
 884 984 884 984 656 984 c 0,37,38
 536 984 536 984 425 879 c 128,-1,39
 314 774 314 774 290 630 c 2,40,-1
 186 0 l 1,41,-1
 72 0 l 1,0,-1
EndSplineSet
EndChar

StartChar: uni0268
Encoding: 616 616 540
Width: 512
GlyphClass: 2
Flags: W
LayerCount: 2
Fore
SplineSet
298 1308 m 1,0,-1
 328 1492 l 1,1,-1
 494 1492 l 1,2,-1
 464 1308 l 1,3,-1
 298 1308 l 1,0,-1
30 532 m 1,4,-1
 48 632 l 1,5,-1
 212 632 l 1,6,-1
 282 1050 l 1,7,-1
 396 1050 l 1,8,-1
 326 632 l 1,9,-1
 492 632 l 1,10,-1
 476 532 l 1,11,-1
 310 532 l 1,12,-1
 222 0 l 1,13,-1
 108 0 l 1,14,-1
 196 532 l 1,15,-1
 30 532 l 1,4,-1
EndSplineSet
EndChar

StartChar: uni0269
Encoding: 617 617 541
Width: 612
GlyphClass: 2
Flags: W
LayerCount: 2
Fore
SplineSet
106 280 m 2,0,-1
 232 1050 l 1,1,-1
 348 1050 l 1,2,-1
 220 286 l 2,3,4
 184 72 184 72 346 72 c 0,5,6
 432 72 432 72 482 80 c 1,7,-1
 464 -24 l 1,8,9
 374 -36 374 -36 310 -36 c 0,10,11
 186 -36 186 -36 133 44 c 128,-1,12
 80 124 80 124 106 280 c 2,0,-1
EndSplineSet
EndChar

StartChar: uni026B
Encoding: 619 619 543
Width: 472
GlyphClass: 2
Flags: W
LayerCount: 2
Fore
SplineSet
6 742 m 1,0,-1
 22 846 l 1,1,2
 102 876 102 876 164 876 c 0,3,4
 182 876 182 876 228 866 c 1,5,-1
 336 1528 l 1,6,-1
 454 1528 l 1,7,-1
 340 842 l 1,8,9
 390 832 390 832 420 832 c 0,10,11
 426 832 426 832 430 832 c 0,12,13
 486 834 486 834 546 862 c 1,14,-1
 530 758 l 1,15,16
 468 730 468 730 414 728 c 0,17,18
 410 728 410 728 406 728 c 0,19,20
 382 728 382 728 322 740 c 1,21,-1
 200 0 l 1,22,-1
 84 0 l 1,23,-1
 210 764 l 1,24,25
 174 772 174 772 146 772 c 0,26,27
 86 772 86 772 6 742 c 1,0,-1
EndSplineSet
EndChar

